<svg width="272" height="38" viewBox="0 0 272 38" fill="none" xmlns="http://www.w3.org/2000/svg">
<path d="M41.1315 30.377L33.932 20.5956C33.1499 19.5327 31.9918 18.896 30.7585 18.7556C30.4777 18.7231 30.227 18.5601 30.0867 18.3144C29.9438 18.0688 29.9287 17.7705 30.0415 17.5098C30.5354 16.3717 30.5654 15.0506 30.034 13.8424L25.1634 2.71734C24.4414 1.06538 22.8095 0 21.0071 0C19.2048 0 17.5729 1.06788 16.8509 2.71734L11.9803 13.8424C11.4513 15.0506 11.4789 16.3717 11.9727 17.5098C12.0856 17.7705 12.068 18.0688 11.9276 18.3144C11.7847 18.5601 11.5366 18.7231 11.2558 18.7556C10.0225 18.896 8.86436 19.5327 8.08224 20.5956L0.882806 30.377C-0.185078 31.8284 -0.29287 33.7737 0.60706 35.3354C1.5095 36.8946 3.24919 37.7745 5.03902 37.5765L17.1091 36.2328C18.4202 36.0874 19.5507 35.4031 20.2877 34.4054C20.4557 34.1773 20.7239 34.0419 21.0071 34.0419C21.2904 34.0419 21.5561 34.1773 21.7266 34.4054C22.4636 35.4031 23.5941 36.0874 24.9052 36.2328L36.9753 37.5765C38.7651 37.777 40.5048 36.8971 41.4072 35.3354C42.3072 33.7737 42.1994 31.8284 41.1315 30.377ZM15.1288 15.2386L20.0069 4.10107C20.1824 3.7025 20.576 3.4443 21.0096 3.4443C21.4433 3.4443 21.8369 3.7025 22.0124 4.10107L26.8905 15.2386C27.0434 15.5896 27.0109 15.9957 26.8003 16.3166C26.5897 16.6374 26.2338 16.8304 25.8477 16.8304H16.1691C15.7855 16.8304 15.4271 16.6374 15.2165 16.3166C15.0059 15.9957 14.9733 15.5896 15.1263 15.2386H15.1288ZM17.633 32.1944C17.4601 32.5379 17.1242 32.7685 16.7431 32.8111L4.6605 34.1547C4.22934 34.2024 3.8082 33.9918 3.59011 33.6158C3.37202 33.2398 3.3996 32.771 3.65779 32.42L10.8648 22.6286C11.0929 22.3203 11.4589 22.1448 11.8424 22.1674C12.2259 22.1874 12.5719 22.4005 12.7649 22.7339L12.7724 22.7464L17.5979 31.104L17.6055 31.1165C17.7985 31.4499 17.8085 31.856 17.6355 32.1969L17.633 32.1944ZM21.9998 28.4142C21.7943 28.7677 21.4183 28.9883 21.0071 28.9883C20.5985 28.9883 20.22 28.7702 20.0145 28.4167L16.307 21.9969C16.1014 21.6434 16.1014 21.2048 16.307 20.8513C16.5125 20.4979 16.8885 20.2773 17.2996 20.2773H24.7121C25.1208 20.2773 25.4993 20.4928 25.7048 20.8488C25.9104 21.2048 25.9104 21.6409 25.7048 21.9944L21.9998 28.4142ZM38.4267 33.6158C38.2086 33.9918 37.79 34.2049 37.3563 34.1572L25.2737 32.8136C24.8926 32.771 24.5567 32.5404 24.3838 32.1969C24.2108 31.8535 24.2208 31.4474 24.4138 31.1165L24.4214 31.104L29.2469 22.7464L29.2544 22.7339C29.4474 22.4005 29.7934 22.1874 30.1769 22.1674C30.5604 22.1473 30.9264 22.3203 31.1545 22.6286L38.3615 32.42C38.6197 32.771 38.6448 33.2398 38.4292 33.6158H38.4267Z" fill="#E81899"/>
<path d="M59.5238 36.4601C58.8085 35.9748 58.17 35.5405 57.5314 35.0808C56.5097 34.34 56.0754 33.4715 56.714 32.1688C57.8379 29.8955 58.7319 27.52 59.8558 25.2722C61.3373 22.3347 62.9465 19.4483 64.4791 16.5364C64.6579 16.2044 64.709 15.8468 64.8623 15.3103C59.8303 14.7739 55.3858 17.0984 50.7114 17.788C50.6603 17.6348 50.6092 17.4815 50.5581 17.3283C52.8059 16.4598 55.0537 15.5658 57.3781 14.6718C56.9013 14.229 55.1218 14.3823 52.0396 15.1315C51.9885 15.0294 51.963 14.9272 51.9119 14.8506C53.0102 14.3397 54.1086 13.8288 55.207 13.3435C55.8711 13.037 55.8711 13.0625 55.9988 12.1941C55.9988 12.0664 56.3053 11.9386 56.5097 11.8876C60.1113 10.9425 63.6873 9.94628 67.3144 9.10335C70.5329 8.3626 73.7513 7.62185 76.9953 7.18762C79.2431 6.8811 81.5675 6.98327 83.8409 7.13653C85.3734 7.2387 86.0887 8.49032 85.9099 10.1251C85.8332 10.7892 86.0376 11.7088 85.68 12.0408C85.2457 12.4495 84.3262 12.3984 83.6365 12.4495C80.8268 12.7049 77.9915 12.9604 75.1562 13.1647C74.1345 13.2413 73.4703 13.6245 72.9339 14.544C70.3285 19.1674 67.6976 23.7907 64.9645 28.3629C63.6107 30.5852 62.0014 32.6542 60.5199 34.7998C60.1623 35.3106 59.8814 35.8726 59.4982 36.5112L59.5238 36.4601Z" fill="url(#paint0_linear_2189_8733)"/>
<path d="M201.084 26.4982C202.08 26.3961 203.051 26.3194 204.047 26.2173C207.7 25.8341 211.352 25.7575 214.954 26.5238C216.052 26.7537 216.538 26.3961 217.048 25.5787C220.241 20.5211 224.686 16.9196 230.28 14.7484C232.145 14.0332 232.604 14.1609 233.677 15.5658C234.827 17.0728 235.465 18.7587 234.367 20.1635C232.936 22.0282 231.021 23.1521 229.028 24.1738C226.959 25.2211 224.865 26.2428 222.387 25.9107C221.697 25.8086 220.497 27.5711 220.216 29.1547C222.106 28.5417 223.869 28.0308 225.58 27.4178C228.722 26.2939 231.838 25.1189 234.98 23.9439C235.363 23.7907 235.797 23.6629 236.206 23.6119C236.461 23.5863 236.87 23.6629 236.972 23.8162C237.125 24.0716 237.202 24.5314 237.049 24.7358C236.691 25.2466 236.283 25.7575 235.772 26.0896C232.604 28.133 229.437 30.202 226.142 32.0922C224.788 32.884 223.204 33.3949 221.672 33.7014C219.909 34.059 218.556 33.0628 217.713 31.5558C217.202 30.6107 216.64 30.1254 215.465 30.1765C212.425 30.2786 209.334 29.8955 206.32 30.2786C201.723 30.8661 197.125 31.7346 192.859 33.727C191.735 34.2378 190.586 34.6721 189.487 35.2085C188.236 35.796 187.546 35.6682 186.856 34.6465C186.065 33.4715 186.141 32.1177 187.163 31.3514C190.432 28.8738 193.728 26.3961 197.023 23.9184C198.095 23.101 199.117 22.2325 200.164 21.3896C200.113 21.2874 200.088 21.1597 200.037 21.0575C199.168 21.2363 198.3 21.3641 197.431 21.5684C195.873 21.926 194.315 22.3858 192.731 22.6923C192.195 22.7945 191.531 22.6923 190.994 22.488C190.586 22.3092 190.024 21.6706 190.1 21.4662C190.356 20.8277 189.947 19.9081 191.148 19.6016C196.64 18.2478 202.131 16.8174 207.598 15.2848C208.798 14.9527 209.871 14.212 210.969 13.5989C211.991 13.0114 212.885 12.9093 213.932 13.5989C214.775 14.1353 215.031 14.8761 214.75 15.6424C214.494 16.281 213.932 16.9962 213.319 17.2261C210.407 18.2478 208.313 20.2913 206.09 22.2836C204.89 23.3564 203.562 24.2504 202.285 25.2211C201.825 25.5787 201.391 25.9107 200.956 26.2684C201.007 26.3705 201.033 26.4727 201.084 26.5749V26.4982ZM230.024 18.9119C228.543 19.8826 227.036 20.8277 225.554 21.7983C227.291 22.207 229.718 20.6489 230.024 18.9119Z" fill="url(#paint1_linear_2189_8733)"/>
<path d="M261.059 26.7792C259.603 26.1917 258.25 25.7575 256.998 25.0934C254.163 23.6119 254.52 20.0614 256.385 18.4011C258.658 16.4087 260.855 14.212 263.997 13.4968C264.252 13.4457 264.431 13.0625 264.635 12.8326C265.121 12.1941 265.606 11.7087 266.551 11.7343C268.748 11.8365 269.335 12.7816 269.208 14.9783C269.08 16.894 268.85 18.7331 268.084 20.4701C267.777 21.1597 267.088 22.1814 266.551 22.1814C265.759 22.1814 264.814 21.5684 264.227 20.9554C263.665 20.3679 263.46 19.4228 263.077 18.5288C261.085 19.1163 259.654 20.5722 258.096 22.5135C259.144 22.7689 259.987 23.0499 260.855 23.1521C263.409 23.4586 265.989 23.663 268.569 23.9695C269.182 24.0461 269.795 24.3015 270.306 24.6336C271.634 25.5021 271.634 27.4689 270.204 28.133C267.854 29.2058 265.427 30.0743 263.001 30.9428C260.497 31.8368 257.943 32.6286 255.389 33.3949C254.418 33.7014 253.422 33.8547 252.553 34.0335C252.324 33.727 252.196 33.4715 251.992 33.3183C251.659 33.0117 250.944 32.6541 250.995 32.5009C251.149 31.99 251.455 31.3514 251.915 31.1216C253.78 30.202 255.721 29.4612 257.585 28.5928C258.786 28.0308 259.935 27.3667 261.034 26.7792H261.059Z" fill="url(#paint2_linear_2189_8733)"/>
<path d="M155.592 35.4128C155.745 33.9313 155.745 32.4243 156.051 30.9683C156.716 28.0053 157.38 25.0423 158.35 22.1815C159.423 18.963 160.828 15.8212 162.105 12.6539C163.05 10.3294 163.944 7.97948 164.992 5.68059C165.451 4.65887 166.166 3.73931 166.856 2.8453C167.061 2.56433 167.597 2.41107 167.98 2.41107C168.823 2.41107 169.666 2.43661 170.509 2.58987C172.271 2.87085 172.552 3.45834 171.735 5.0931C170.126 8.33708 168.363 11.5044 166.856 14.774C165.196 18.35 163.74 22.0282 162.182 25.6809C161.339 27.6477 160.624 29.6912 159.576 31.5814C159.014 32.5775 157.891 33.2928 157.048 34.1357C156.639 34.5444 156.281 35.0297 155.898 35.4639C155.77 35.4639 155.668 35.4128 155.541 35.3873L155.592 35.4128Z" fill="url(#paint3_linear_2189_8733)"/>
<path d="M121.67 35.336C121.824 33.829 121.849 32.3219 122.181 30.8404C122.845 27.9285 123.509 24.991 124.455 22.1813C125.476 19.065 126.804 16.0509 128.031 13.0113C129.027 10.5336 130.023 8.03039 131.121 5.57824C131.53 4.65869 132.117 3.81576 132.782 3.04947C133.088 2.69186 133.701 2.46197 134.212 2.41089C135.055 2.3598 135.898 2.46197 136.741 2.61523C138.273 2.87067 138.631 3.53479 137.967 4.88857C136.307 8.18364 134.493 11.4276 132.935 14.7993C131.275 18.3754 129.844 22.0791 128.26 25.6807C127.647 27.1111 126.728 28.4394 126.217 29.9209C125.578 31.7344 124.659 33.1904 122.999 34.2121C122.59 34.4676 122.36 35.0295 122.053 35.4382C121.926 35.4127 121.798 35.3616 121.67 35.336Z" fill="url(#paint4_linear_2189_8733)"/>
<path d="M245.836 19.1418C246.806 18.1712 247.573 17.4304 248.313 16.6641C248.697 16.2554 248.952 15.7701 249.31 15.3614C250.05 14.4929 250.689 13.5478 252.094 14.544C253.601 15.6168 254.188 16.6386 253.601 18.1201C252.834 20.0869 251.992 22.0026 251.2 23.9439C250.919 24.6591 250.484 24.7357 249.923 24.3015C249.284 23.8162 248.696 23.3053 247.981 22.7434C244.201 25.8596 242.515 30.5596 239.348 34.3144C237.406 34.4422 235.925 32.2965 236.717 30.3297C238.658 25.4254 240.574 20.5211 242.49 15.6168C242.719 15.0293 242.924 14.7484 243.664 15.0038C245.682 15.6679 246.014 16.1788 245.81 19.1162L245.836 19.1418Z" fill="url(#paint5_linear_2189_8733)"/>
<path d="M76.8931 14.9782C79.5241 15.6934 79.5752 15.77 79.7029 19.2694C80.6735 18.2988 81.4654 17.5325 82.2316 16.7406C82.5892 16.383 82.7936 15.8977 83.1512 15.5401C83.8153 14.876 84.1985 13.701 85.5778 14.4673C87.0849 15.3102 87.8767 16.5363 87.3914 17.9412C86.6762 20.0102 85.7821 22.0025 84.8881 24.0204C84.8115 24.2248 84.1218 24.3781 83.9175 24.2503C83.2278 23.8416 82.6403 23.3052 81.7463 22.59C80.5713 23.9694 79.2686 25.3487 78.1958 26.8557C76.6377 29.0525 75.1817 31.3258 73.7769 33.6247C73.2915 34.4165 72.8062 34.391 72.1166 34.0078C70.4562 33.0627 70.0731 32.041 70.7883 30.1764C72.6785 25.2721 74.6198 20.3678 76.5611 15.4635C76.6377 15.2847 76.7909 15.1314 76.9187 14.9782H76.8931Z" fill="url(#paint6_linear_2189_8733)"/>
<path d="M112.781 32.5775C111.3 33.2161 110.201 33.7014 108.873 34.2633C109.129 33.1905 109.282 32.2199 109.563 31.2748C110.687 27.6476 111.811 24.0461 112.986 20.4189C113.471 18.8863 114.416 17.8646 116.153 17.7624C116.996 17.7113 117.839 17.4815 118.656 17.4559C119.882 17.4048 120.265 17.8646 119.755 18.963C118.069 22.6412 116.383 26.3194 114.595 29.9465C114.058 31.0449 113.216 31.9644 112.756 32.603L112.781 32.5775Z" fill="url(#paint7_linear_2189_8733)"/>
<path d="M117.251 15.9489C116.562 15.719 115.387 15.6934 115.029 15.1315C114.442 14.2119 115.208 13.2157 115.898 12.4239C117.558 10.4826 120.572 10.5082 121.977 12.4239C122.615 13.2668 122.411 13.7522 121.492 14.1608C120.827 14.4674 120.291 15.0038 119.627 15.2847C118.963 15.5657 118.196 15.6934 117.251 15.9233V15.9489Z" fill="url(#paint8_linear_2189_8733)"/>
<path d="M140.802 19.9846C142.973 19.7292 144.94 19.4482 146.907 19.2694C151.581 18.8607 155.183 22.5134 153.778 26.8558C153.369 28.1585 152.501 29.64 151.377 30.3296C148.721 32.0155 145.885 33.4204 142.999 34.6464C140.087 35.898 137.737 33.7524 136.996 30.9427C136.945 30.7128 136.868 30.5084 136.741 30.0487C136.077 31.1981 135.489 32.1177 134.978 33.0883C134.314 34.3399 134.11 34.2122 133.114 33.2926C131.658 31.9644 132.092 30.4318 132.347 29.0014C133.165 24.5569 134.416 20.189 136.434 16.1532C138.529 11.9385 140.904 7.85164 143.152 3.68811C143.356 3.3305 143.637 2.94736 143.637 2.56421C143.714 1.23596 144.966 1.26151 145.655 1.10825C146.192 0.980532 147.29 1.72128 147.597 2.35986C148.669 4.42886 148.337 6.44677 147.137 8.46468C145.144 11.8364 143.305 15.3102 141.39 18.733C141.185 19.0906 141.032 19.4738 140.777 19.9846H140.802ZM145.809 24.1482C145.17 24.1226 144.838 24.0205 144.583 24.0971C142.514 24.8379 140.445 25.5786 138.452 26.4726C137.916 26.7025 137.558 27.4433 137.252 28.0307C137.047 28.3883 136.92 29.1802 137.073 29.2824C137.507 29.5378 138.095 29.5633 138.605 29.64C138.733 29.64 138.912 29.5122 139.065 29.4356C141.058 28.184 143.075 26.9579 145.042 25.6297C145.4 25.3998 145.502 24.8123 145.834 24.1482H145.809Z" fill="url(#paint9_linear_2189_8733)"/>
<path d="M182.54 35.2339C181.876 34.7742 181.492 34.4421 181.033 34.2122C179.679 33.5226 179.602 32.2454 179.474 30.9938C179.398 30.2019 179.372 29.4101 179.296 28.3373C177.814 29.4612 176.614 30.4829 175.311 31.3769C173.829 32.3731 172.246 33.2671 170.713 34.1867C170.56 34.2633 170.279 34.2633 170.126 34.1867C166.294 32.1432 165.221 26.8047 167.622 24.3526C169.104 22.82 170.407 21.083 171.939 19.6015C174.11 17.4814 176.767 16.7407 179.781 17.4559C180.266 17.5581 180.701 17.8135 181.262 18.0434C181.518 17.4559 181.748 16.945 182.003 16.4086C182.489 15.3103 183.051 14.1098 184.43 14.2119C186.269 14.3652 187.674 15.8467 187.776 17.4559C187.827 18.12 187.776 18.8097 187.572 19.4483C186.32 23.995 185.043 28.5416 183.715 33.0628C183.485 33.8546 182.948 34.5698 182.591 35.2595L182.54 35.2339ZM171.25 28.5416C171.479 28.465 171.735 28.4139 171.914 28.2862C174.161 26.9324 176.384 25.5531 178.657 24.2248C179.909 23.4841 179.96 22.3091 179.934 20.8787C176.409 22.8711 173.548 25.3487 171.25 28.5416Z" fill="url(#paint10_linear_2189_8733)"/>
<path d="M104.812 35.004C101.44 33.8801 101.644 31.1214 101.568 28.4394C98.5026 30.5084 95.6162 32.4497 92.8576 34.3143C89.6136 32.6285 88.362 30.1763 88.643 26.9068C88.694 26.447 88.7451 25.9362 89.0006 25.5786C91.0696 22.6156 93.113 19.5759 96.5358 17.9156C98.4515 16.9961 100.521 16.7662 102.538 17.6857C103.305 18.0433 103.611 17.8901 103.867 17.1749C104.071 16.6129 104.275 16.051 104.582 15.5656C105.604 13.8287 108.056 13.8287 109.154 15.5656C109.895 16.7151 110.15 17.9412 109.742 19.295C108.669 22.9221 107.596 26.5748 106.549 30.2019C106.268 31.1214 106.166 32.1176 105.834 33.0116C105.578 33.7779 105.118 34.4676 104.837 35.004H104.812ZM102.155 20.9808C100.01 21.6194 93.9049 26.6514 93.3685 28.5671C93.5983 28.4905 93.8027 28.4649 93.9815 28.3628C96.3315 26.9324 98.6814 25.5019 101.006 24.0971C102.232 23.3563 102.079 22.1813 102.155 20.9808Z" fill="url(#paint11_linear_2189_8733)"/>
<defs>
<linearGradient id="paint0_linear_2189_8733" x1="56.8754" y1="18.8025" x2="271.36" y2="18.8025" gradientUnits="userSpaceOnUse">
<stop stop-color="#E81899"/>
<stop offset="1" stop-color="#FFE2A0"/>
</linearGradient>
<linearGradient id="paint1_linear_2189_8733" x1="56.8754" y1="18.8025" x2="271.36" y2="18.8025" gradientUnits="userSpaceOnUse">
<stop stop-color="#E81899"/>
<stop offset="1" stop-color="#FFE2A0"/>
</linearGradient>
<linearGradient id="paint2_linear_2189_8733" x1="56.8754" y1="18.8025" x2="271.36" y2="18.8025" gradientUnits="userSpaceOnUse">
<stop stop-color="#E81899"/>
<stop offset="1" stop-color="#FFE2A0"/>
</linearGradient>
<linearGradient id="paint3_linear_2189_8733" x1="56.8754" y1="18.8025" x2="271.36" y2="18.8025" gradientUnits="userSpaceOnUse">
<stop stop-color="#E81899"/>
<stop offset="1" stop-color="#FFE2A0"/>
</linearGradient>
<linearGradient id="paint4_linear_2189_8733" x1="56.8754" y1="18.8025" x2="271.36" y2="18.8025" gradientUnits="userSpaceOnUse">
<stop stop-color="#E81899"/>
<stop offset="1" stop-color="#FFE2A0"/>
</linearGradient>
<linearGradient id="paint5_linear_2189_8733" x1="56.8754" y1="18.8025" x2="271.36" y2="18.8025" gradientUnits="userSpaceOnUse">
<stop stop-color="#E81899"/>
<stop offset="1" stop-color="#FFE2A0"/>
</linearGradient>
<linearGradient id="paint6_linear_2189_8733" x1="56.8754" y1="18.8025" x2="271.36" y2="18.8025" gradientUnits="userSpaceOnUse">
<stop stop-color="#E81899"/>
<stop offset="1" stop-color="#FFE2A0"/>
</linearGradient>
<linearGradient id="paint7_linear_2189_8733" x1="56.8754" y1="18.8025" x2="271.36" y2="18.8025" gradientUnits="userSpaceOnUse">
<stop stop-color="#E81899"/>
<stop offset="1" stop-color="#FFE2A0"/>
</linearGradient>
<linearGradient id="paint8_linear_2189_8733" x1="56.8754" y1="18.8025" x2="271.36" y2="18.8025" gradientUnits="userSpaceOnUse">
<stop stop-color="#E81899"/>
<stop offset="1" stop-color="#FFE2A0"/>
</linearGradient>
<linearGradient id="paint9_linear_2189_8733" x1="56.8754" y1="18.8025" x2="271.36" y2="18.8025" gradientUnits="userSpaceOnUse">
<stop stop-color="#E81899"/>
<stop offset="1" stop-color="#FFE2A0"/>
</linearGradient>
<linearGradient id="paint10_linear_2189_8733" x1="56.8754" y1="18.8025" x2="271.36" y2="18.8025" gradientUnits="userSpaceOnUse">
<stop stop-color="#E81899"/>
<stop offset="1" stop-color="#FFE2A0"/>
</linearGradient>
<linearGradient id="paint11_linear_2189_8733" x1="56.8754" y1="18.8025" x2="271.36" y2="18.8025" gradientUnits="userSpaceOnUse">
<stop stop-color="#E81899"/>
<stop offset="1" stop-color="#FFE2A0"/>
</linearGradient>
</defs>
</svg>
