<svg width="206" height="57" viewBox="0 0 206 57" fill="none" xmlns="http://www.w3.org/2000/svg">
<g id="taiko">
<path d="M115.841 44.4899C114.814 45.9503 113.453 47.0358 111.755 47.7463C110.058 48.4173 108.163 48.7528 106.071 48.7528C104.414 48.7528 102.894 48.5555 101.513 48.1608C100.17 47.766 98.9863 47.174 97.9601 46.3845C96.9338 45.5556 96.1246 44.5491 95.5325 43.3649C94.9405 42.1413 94.6444 40.7598 94.6444 39.2204C94.6444 37.5231 94.9799 36.0824 95.651 34.8983C96.322 33.6746 97.2298 32.6878 98.3745 31.9379C99.5587 31.1879 100.94 30.6353 102.519 30.2801C104.098 29.8854 105.756 29.688 107.492 29.688H115.485C115.485 27.3986 114.972 25.6224 113.946 24.3593C112.92 23.0962 111.124 22.4449 108.558 22.4055C107.058 22.4055 105.756 22.662 104.651 23.1752C103.585 23.6883 102.874 24.5369 102.519 25.7211H95.5918C95.8286 24.0633 96.3615 22.662 97.1904 21.5174C98.0587 20.3727 99.085 19.4253 100.269 18.6754C101.493 17.9254 102.835 17.3926 104.295 17.0768C105.795 16.761 107.295 16.6031 108.795 16.6031C110.729 16.6031 112.525 16.8597 114.183 17.3728C115.841 17.8859 117.281 18.7543 118.505 19.978C119.887 21.3989 120.814 23.0962 121.288 25.0698C121.761 27.0434 121.998 29.1946 121.998 31.5234V48.3384H116.137L115.841 44.4899ZM115.485 34.4838H108.973C107.828 34.4838 106.683 34.5825 105.539 34.7798C104.394 34.9377 103.407 35.3522 102.578 36.0232C101.789 36.6548 101.394 37.5823 101.394 38.806C101.394 40.3059 101.927 41.4506 102.993 42.24C104.098 42.99 105.44 43.3649 107.019 43.3649C108.242 43.3649 109.367 43.2071 110.394 42.8913C111.459 42.5755 112.367 42.0624 113.117 41.3519C113.867 40.6019 114.439 39.6743 114.834 38.5691C115.268 37.4244 115.485 36.0627 115.485 34.4838Z" fill="#FAFAFA"/>
<path d="M133.094 4.16953C134.318 4.16953 135.324 4.54451 136.114 5.29447C136.943 6.04444 137.357 7.0707 137.357 8.37327C137.357 9.63636 136.943 10.6429 136.114 11.3929C135.324 12.1428 134.318 12.5178 133.094 12.5178C131.792 12.5178 130.746 12.1428 129.956 11.3929C129.167 10.6429 128.772 9.63636 128.772 8.37327C128.772 7.0707 129.167 6.04444 129.956 5.29447C130.746 4.54451 131.792 4.16953 133.094 4.16953ZM129.66 48.3384V17.136H136.41V48.3384H129.66Z" fill="#FAFAFA"/>
<path d="M190.054 16.6031C192.541 16.6031 194.732 16.9978 196.626 17.7873C198.521 18.5767 200.119 19.6819 201.422 21.1029C202.764 22.4844 203.771 24.162 204.442 26.1355C205.113 28.1091 205.448 30.2998 205.448 32.7076C205.448 35.1548 205.113 37.3652 204.442 39.3388C203.81 41.2729 202.843 42.9505 201.54 44.3715C200.238 45.7924 198.62 46.8779 196.685 47.6279C194.791 48.3778 192.58 48.7528 190.054 48.7528C187.567 48.7528 185.377 48.3778 183.482 47.6279C181.587 46.8385 179.989 45.753 178.686 44.3715C177.423 42.9505 176.456 41.2532 175.785 39.2796C175.154 37.306 174.838 35.1154 174.838 32.7076C174.838 30.2998 175.154 28.1091 175.785 26.1355C176.456 24.162 177.443 22.4844 178.746 21.1029C180.048 19.6819 181.647 18.5767 183.541 17.7873C185.436 16.9978 187.607 16.6031 190.054 16.6031ZM190.054 42.8913C191.594 42.8913 192.896 42.6347 193.962 42.1216C195.067 41.569 195.955 40.8388 196.626 39.9309C197.337 39.0231 197.85 37.9573 198.166 36.7337C198.521 35.5101 198.698 34.1878 198.698 32.7668C198.698 31.3458 198.521 30.0235 198.166 28.7999C197.85 27.5368 197.337 26.4513 196.626 25.5435C195.955 24.6356 195.067 23.9251 193.962 23.412C192.896 22.8989 191.594 22.6423 190.054 22.6423C188.554 22.6423 187.271 22.8989 186.206 23.412C185.14 23.9251 184.252 24.6356 183.541 25.5435C182.831 26.4513 182.298 27.5368 181.943 28.7999C181.627 30.0235 181.469 31.3458 181.469 32.7668C181.469 34.1878 181.627 35.5101 181.943 36.7337C182.298 37.9573 182.811 39.0231 183.482 39.9309C184.193 40.8388 185.081 41.569 186.146 42.1216C187.252 42.6347 188.554 42.8913 190.054 42.8913Z" fill="#FAFAFA"/>
<path d="M155.766 29.8656H150.911V7.71663H144.221V48.3384H150.911V35.7272H156.181L164.411 48.3384H172.226L161.569 31.9971L171.397 17.136H163.819L155.766 29.8656Z" fill="#FAFAFA"/>
<path d="M90.0804 17.0473H82.0883V7.71663H80.0231L70.3104 20.9128V22.6193H75.298V38.0627C75.298 41.7082 76.1192 44.3322 77.7617 45.9347C79.4443 47.5371 82.2285 48.3383 86.1144 48.3383H89.8401V42.4494H86.7153C84.9126 42.4494 83.6907 42.0087 83.0498 41.1274C82.4088 40.246 82.0883 38.904 82.0883 37.1012V22.6193H90.0804V17.0473Z" fill="#FAFAFA"/>
<path d="M61.4613 45.3913L50.7035 30.7753C49.5348 29.1871 47.8042 28.2357 45.9613 28.0259C45.5418 27.9772 45.1672 27.7337 44.9574 27.3666C44.7439 26.9995 44.7214 26.5538 44.89 26.1642C45.6279 24.4637 45.6729 22.4896 44.8788 20.6842L37.6007 4.06042C36.5219 1.59195 34.0835 0 31.3902 0C28.697 0 26.2585 1.5957 25.1797 4.06042L17.9017 20.6842C17.1113 22.4896 17.1525 24.4637 17.8905 26.1642C18.059 26.5538 18.0328 26.9995 17.823 27.3666C17.6095 27.7337 17.2387 27.9772 16.8192 28.0259C14.9762 28.2357 13.2457 29.1871 12.077 30.7753L1.31915 45.3913C-0.276555 47.5601 -0.437626 50.4669 0.907108 52.8005C2.25559 55.1303 4.85515 56.4451 7.52963 56.1492L25.5655 54.1414C27.5246 53.9242 29.2139 52.9016 30.3152 51.4108C30.5662 51.0699 30.967 50.8676 31.3902 50.8676C31.8135 50.8676 32.2106 51.0699 32.4653 51.4108C33.5665 52.9016 35.2559 53.9242 37.2149 54.1414L55.2508 56.1492C57.9253 56.4489 60.5249 55.1341 61.8734 52.8005C63.2181 50.4669 63.057 47.5601 61.4613 45.3913ZM22.6064 22.7706L29.8957 6.12809C30.1579 5.53251 30.746 5.14669 31.394 5.14669C32.042 5.14669 32.6301 5.53251 32.8923 6.12809L40.1816 22.7706C40.4101 23.295 40.3614 23.9018 40.0467 24.3813C39.7321 24.8607 39.2002 25.1491 38.6233 25.1491H24.1609C23.5878 25.1491 23.0521 24.8607 22.7375 24.3813C22.4228 23.9018 22.3741 23.295 22.6026 22.7706H22.6064ZM26.3484 48.107C26.09 48.6202 25.588 48.9648 25.0187 49.0285L6.96402 51.0362C6.31974 51.1074 5.69046 50.7927 5.36457 50.2309C5.03869 49.669 5.0799 48.9685 5.46571 48.4441L16.2348 33.8131C16.5757 33.3524 17.1226 33.0902 17.6957 33.1239C18.2688 33.1539 18.7857 33.4723 19.0741 33.9704L19.0854 33.9892L26.296 46.4776L26.3072 46.4963C26.5956 46.9945 26.6106 47.6013 26.3522 48.1107L26.3484 48.107ZM32.8736 42.4584C32.5664 42.9865 32.0045 43.3162 31.3902 43.3162C30.7797 43.3162 30.2141 42.9903 29.9069 42.4621L24.3669 32.8692C24.0597 32.341 24.0597 31.6855 24.3669 31.1574C24.6741 30.6292 25.2359 30.2996 25.8502 30.2996H36.9265C37.537 30.2996 38.1027 30.6217 38.4098 31.1536C38.717 31.6855 38.717 32.3373 38.4098 32.8654L32.8736 42.4584ZM57.4196 50.2309C57.0937 50.7927 56.4682 51.1111 55.8202 51.0399L37.7655 49.0322C37.1962 48.9685 36.6943 48.6239 36.4358 48.1107C36.1773 47.5976 36.1923 46.9908 36.4807 46.4963L36.492 46.4776L43.7026 33.9892L43.7138 33.9704C44.0023 33.4723 44.5192 33.1539 45.0923 33.1239C45.6654 33.0939 46.2123 33.3524 46.5531 33.8131L57.3222 48.4441C57.708 48.9685 57.7455 49.669 57.4234 50.2309H57.4196Z" fill="#E81899"/>
</g>
</svg>
