<svg width="18" height="18" viewBox="0 0 18 18" fill="none" xmlns="http://www.w3.org/2000/svg">
<path d="M12.1425 1.5H5.8575C3.1275 1.5 1.5 3.1275 1.5 5.8575V12.135C1.5 14.8725 3.1275 16.5 5.8575 16.5H12.135C14.865 16.5 16.4925 14.8725 16.4925 12.1425V5.8575C16.5 3.1275 14.8725 1.5 12.1425 1.5ZM7.8675 12.54C7.6125 12.795 7.275 12.9675 6.8625 13.02L5.85 13.1325C5.295 13.1925 4.8225 12.72 4.8825 12.1575L4.995 11.1375C5.0925 10.23 5.85 9.6525 6.6525 9.6375C6.7275 9.63 6.8175 9.6375 6.9 9.645C7.2525 9.69 7.59 9.855 7.875 10.1325C8.1525 10.41 8.31 10.74 8.355 11.0775C8.3625 11.16 8.37 11.2425 8.37 11.3175C8.37 11.7825 8.1975 12.21 7.8675 12.54ZM13.08 5.6625C12.54 7.0125 11.3025 8.7825 10.125 9.9375C9.9525 8.8725 9.105 8.0325 8.025 7.8825C9.18 6.6975 10.965 5.445 12.3225 4.8975C12.5625 4.8075 12.8025 4.875 12.9525 5.025C13.1025 5.19 13.1775 5.4225 13.08 5.6625Z" fill="#EE42AD"/>
</svg>
