<svg width="18" height="18" viewBox="0 0 18 18" fill="none" xmlns="http://www.w3.org/2000/svg">
<path d="M11.8478 1.65786C11.5403 1.35036 11.0078 1.56036 11.0078 1.98786V4.60536C11.0078 5.70036 11.9378 6.60786 13.0703 6.60786C13.7828 6.61536 14.7728 6.61536 15.6203 6.61536C16.0478 6.61536 16.2728 6.11286 15.9728 5.81286C14.8928 4.72536 12.9578 2.76786 11.8478 1.65786Z" fill="#EE42AD"/>
<path d="M15.375 7.6425H13.2075C11.43 7.6425 9.9825 6.195 9.9825 4.4175V2.25C9.9825 1.8375 9.645 1.5 9.2325 1.5H6.0525C3.7425 1.5 1.875 3 1.875 5.6775V12.3225C1.875 15 3.7425 16.5 6.0525 16.5H11.9475C14.2575 16.5 16.125 15 16.125 12.3225V8.3925C16.125 7.98 15.7875 7.6425 15.375 7.6425ZM8.625 13.3125H5.625C5.3175 13.3125 5.0625 13.0575 5.0625 12.75C5.0625 12.4425 5.3175 12.1875 5.625 12.1875H8.625C8.9325 12.1875 9.1875 12.4425 9.1875 12.75C9.1875 13.0575 8.9325 13.3125 8.625 13.3125ZM10.125 10.3125H5.625C5.3175 10.3125 5.0625 10.0575 5.0625 9.75C5.0625 9.4425 5.3175 9.1875 5.625 9.1875H10.125C10.4325 9.1875 10.6875 9.4425 10.6875 9.75C10.6875 10.0575 10.4325 10.3125 10.125 10.3125Z" fill="#EE42AD"/>
</svg>
