<svg width="14" height="12" viewBox="0 0 14 12" fill="none" xmlns="http://www.w3.org/2000/svg">
<path d="M11.282 0.0682926C10.961 0.0204877 10.5922 0 10.0732 0H3.92683C3.41463 0 3.03902 0.0204877 2.73854 0.0614634C0.450732 0.314146 0 1.67317 0 3.92683V8.02439C0 10.278 0.450732 11.6371 2.71805 11.8829C3.03902 11.9307 3.4078 11.9512 3.92683 11.9512H10.0732C10.5854 11.9512 10.961 11.9307 11.2615 11.8898C13.5493 11.6371 14 10.2849 14 8.02439V3.92683C14 1.67317 13.5493 0.314146 11.282 0.0682926ZM5.69561 3.92683C6.07805 3.92683 6.38537 4.23415 6.38537 4.60976C6.38537 4.98537 6.07805 5.29268 5.70244 5.29268C5.32683 5.29268 5.01951 4.98537 5.01951 4.60976C5.01951 4.23415 5.32 3.92683 5.69561 3.92683ZM3.64683 3.92683C4.0361 3.92683 4.33659 4.23415 4.33659 4.60976C4.33659 4.98537 4.02927 5.29268 3.65366 5.29268C3.27805 5.29268 2.97073 4.98537 2.97073 4.60976C2.97073 4.23415 3.27122 3.92683 3.64683 3.92683ZM10.4146 8.87805H3.59902C3.31902 8.87805 3.08 8.64585 3.08 8.36585C3.08 8.08585 3.30537 7.85366 3.58537 7.85366H10.4146C10.6946 7.85366 10.9268 8.08585 10.9268 8.36585C10.9268 8.64585 10.6946 8.87805 10.4146 8.87805ZM10.4146 5.12195H8.02439C7.74439 5.12195 7.5122 4.88976 7.5122 4.60976C7.5122 4.32976 7.74439 4.09756 8.02439 4.09756H10.4146C10.6946 4.09756 10.9268 4.32976 10.9268 4.60976C10.9268 4.88976 10.6946 5.12195 10.4146 5.12195Z" fill="#EE42AD"/>
</svg>
