<svg width="14" height="14" viewBox="0 0 14 14" fill="none" xmlns="http://www.w3.org/2000/svg">
<g clip-path="url(#clip0_1225_9970)">
<path fill-rule="evenodd" clip-rule="evenodd" d="M3.5 7C5.43299 7 7 5.43299 7 3.5C7 5.43299 8.56702 7 10.5 7C8.56702 7 7 8.56702 7 10.5C7 8.56702 5.43299 7 3.5 7ZM3.5 7C1.56701 7 0 8.56702 0 10.5C0 12.433 1.56701 14 3.5 14C5.43299 14 7 12.433 7 10.5C7 12.433 8.56702 14 10.5 14C12.433 14 14 12.433 14 10.5C14 8.56702 12.433 7 10.5 7C12.433 7 14 5.43299 14 3.5C14 1.56701 12.433 0 10.5 0C8.56702 0 7 1.56701 7 3.5C7 1.56701 5.43299 0 3.5 0C1.56701 0 0 1.56701 0 3.5C0 5.43299 1.56701 7 3.5 7Z" fill="#EE42AD"/>
</g>
<defs>
<clipPath id="clip0_1225_9970">
<rect width="14" height="14" fill="white"/>
</clipPath>
</defs>
</svg>
