<svg width="18" height="18" viewBox="0 0 18 18" fill="none" xmlns="http://www.w3.org/2000/svg">
<path d="M14.5253 3.66734L10.1303 1.70984C9.48531 1.42484 8.51031 1.42484 7.86531 1.70984L3.47031 3.66734C2.36031 4.16234 2.19531 4.83734 2.19531 5.19734C2.19531 5.55734 2.36031 6.23234 3.47031 6.72734L7.86531 8.68484C8.18781 8.82734 8.59281 8.90234 8.99781 8.90234C9.40281 8.90234 9.80781 8.82734 10.1303 8.68484L14.5253 6.72734C15.6353 6.23234 15.8003 5.55734 15.8003 5.19734C15.8003 4.83734 15.6428 4.16234 14.5253 3.66734Z" fill="#EE42AD"/>
<path d="M9.00219 12.78C8.71719 12.78 8.43219 12.72 8.16969 12.6075L3.11469 10.3575C2.34219 10.0125 1.74219 9.09 1.74219 8.2425C1.74219 7.935 1.98969 7.6875 2.29719 7.6875C2.60469 7.6875 2.85219 7.935 2.85219 8.2425C2.85219 8.6475 3.18969 9.1725 3.56469 9.3375L8.61969 11.5875C8.85969 11.6925 9.13719 11.6925 9.37719 11.5875L14.4322 9.3375C14.8072 9.1725 15.1447 8.655 15.1447 8.2425C15.1447 7.935 15.3922 7.6875 15.6997 7.6875C16.0072 7.6875 16.2547 7.935 16.2547 8.2425C16.2547 9.0825 15.6547 10.0125 14.8822 10.3575L9.82719 12.6075C9.57219 12.72 9.28719 12.78 9.00219 12.78Z" fill="#EE42AD"/>
<path d="M9.00219 16.5007C8.71719 16.5007 8.43219 16.4407 8.16969 16.3282L3.11469 14.0782C2.28219 13.7107 1.74219 12.8782 1.74219 11.9632C1.74219 11.6557 1.98969 11.4082 2.29719 11.4082C2.60469 11.4082 2.85219 11.6557 2.85219 11.9632C2.85219 12.4357 3.12969 12.8632 3.56469 13.0582L8.61969 15.3082C8.85969 15.4132 9.13719 15.4132 9.37719 15.3082L14.4322 13.0582C14.8597 12.8707 15.1447 12.4357 15.1447 11.9632C15.1447 11.6557 15.3922 11.4082 15.6997 11.4082C16.0072 11.4082 16.2547 11.6557 16.2547 11.9632C16.2547 12.8782 15.7147 13.7032 14.8822 14.0782L9.82719 16.3282C9.57219 16.4407 9.28719 16.5007 9.00219 16.5007Z" fill="#EE42AD"/>
</svg>
