<svg width="14" height="14" viewBox="0 0 14 14" fill="none" xmlns="http://www.w3.org/2000/svg">
<g clip-path="url(#clip0_31_5544)">
<path d="M9.93795 0.00146484H4.06903C1.51976 0.00146484 0 1.52122 0 4.07049V9.93241C0 12.4887 1.51976 14.0084 4.06903 14.0084H9.93095C12.4802 14.0084 14 12.4887 14 9.93942V4.07049C14.007 1.52122 12.4872 0.00146484 9.93795 0.00146484ZM5.75687 13.3081H4.13906C2.24112 13.3081 0.700349 11.7673 0.700349 9.86938V8.25158C0.700349 7.96443 0.938468 7.72632 1.22561 7.72632C1.51275 7.72632 1.75087 7.96443 1.75087 8.25158V9.86938C1.75087 11.186 2.82241 12.2576 4.13906 12.2576H5.75687C6.04401 12.2576 6.28213 12.4957 6.28213 12.7828C6.28213 13.07 6.05102 13.3081 5.75687 13.3081ZM5.75687 1.75234H4.13906C2.82241 1.75234 1.75087 2.82387 1.75087 4.14053V5.75833C1.75087 6.04548 1.51275 6.2836 1.22561 6.2836C0.938468 6.2836 0.700349 6.05248 0.700349 5.75833V4.14053C0.700349 2.24258 2.24112 0.701814 4.13906 0.701814H5.75687C6.04401 0.701814 6.28213 0.939933 6.28213 1.22708C6.28213 1.51422 6.05102 1.75234 5.75687 1.75234ZM13.3066 9.86938C13.3066 11.7673 11.7659 13.3081 9.86792 13.3081H8.89443C8.60729 13.3081 8.36917 13.07 8.36917 12.7828C8.36917 12.4957 8.60729 12.2576 8.89443 12.2576H9.86792C11.1846 12.2576 12.2561 11.186 12.2561 9.86938V8.8959C12.2561 8.60876 12.4942 8.37064 12.7814 8.37064C13.0685 8.37064 13.3066 8.60876 13.3066 8.8959V9.86938ZM13.3066 5.75833C13.3066 6.04548 13.0685 6.2836 12.7814 6.2836C12.4942 6.2836 12.2561 6.04548 12.2561 5.75833V4.14053C12.2561 2.82387 11.1846 1.75234 9.86792 1.75234H8.25011C7.96297 1.75234 7.72485 1.51422 7.72485 1.22708C7.72485 0.939933 7.95596 0.701814 8.25011 0.701814H9.86792C11.7659 0.701814 13.3066 2.24258 13.3066 4.14053V5.75833Z" fill="#EE42AD"/>
<rect x="3" y="5.20837" width="3.33333" height="3.33333" fill="white"/>
<rect x="4.33337" y="5.20837" width="2" height="2" fill="#EE42AD"/>
<rect x="8" y="5.20837" width="3.33333" height="3.33333" fill="white"/>
<rect x="9.33337" y="5.20837" width="2" height="2" fill="#EE42AD"/>
</g>
<defs>
<clipPath id="clip0_31_5544">
<rect width="14" height="14" fill="white"/>
</clipPath>
</defs>
</svg>
