<svg width="18" height="18" viewBox="0 0 18 18" fill="none" xmlns="http://www.w3.org/2000/svg">
<path d="M12.5646 2.67V1.5C12.5646 1.1925 12.3096 0.9375 12.0021 0.9375C11.6946 0.9375 11.4396 1.1925 11.4396 1.5V2.625H6.56463V1.5C6.56463 1.1925 6.30963 0.9375 6.00213 0.9375C5.69463 0.9375 5.43963 1.1925 5.43963 1.5V2.67C3.41463 2.8575 2.43213 4.065 2.28213 5.8575C2.26713 6.075 2.44713 6.255 2.65713 6.255H15.3471C15.5646 6.255 15.7446 6.0675 15.7221 5.8575C15.5721 4.065 14.5896 2.8575 12.5646 2.67Z" fill="#EE42AD"/>
<path d="M15 7.37891H3C2.5875 7.37891 2.25 7.71641 2.25 8.12891V12.7489C2.25 14.9989 3.375 16.4989 6 16.4989H12C14.625 16.4989 15.75 14.9989 15.75 12.7489V8.12891C15.75 7.71641 15.4125 7.37891 15 7.37891ZM6.9075 13.6564C6.87 13.6864 6.8325 13.7239 6.795 13.7464C6.75 13.7764 6.705 13.7989 6.66 13.8139C6.615 13.8364 6.57 13.8514 6.525 13.8589C6.4725 13.8664 6.4275 13.8739 6.375 13.8739C6.2775 13.8739 6.18 13.8514 6.09 13.8139C5.9925 13.7764 5.9175 13.7239 5.8425 13.6564C5.7075 13.5139 5.625 13.3189 5.625 13.1239C5.625 12.9289 5.7075 12.7339 5.8425 12.5914C5.9175 12.5239 5.9925 12.4714 6.09 12.4339C6.225 12.3739 6.375 12.3589 6.525 12.3889C6.57 12.3964 6.615 12.4114 6.66 12.4339C6.705 12.4489 6.75 12.4714 6.795 12.5014C6.8325 12.5314 6.87 12.5614 6.9075 12.5914C7.0425 12.7339 7.125 12.9289 7.125 13.1239C7.125 13.3189 7.0425 13.5139 6.9075 13.6564ZM6.9075 11.0314C6.765 11.1664 6.57 11.2489 6.375 11.2489C6.18 11.2489 5.985 11.1664 5.8425 11.0314C5.7075 10.8889 5.625 10.6939 5.625 10.4989C5.625 10.3039 5.7075 10.1089 5.8425 9.96641C6.0525 9.75641 6.3825 9.68891 6.66 9.80891C6.7575 9.84641 6.84 9.89891 6.9075 9.96641C7.0425 10.1089 7.125 10.3039 7.125 10.4989C7.125 10.6939 7.0425 10.8889 6.9075 11.0314ZM9.5325 13.6564C9.39 13.7914 9.195 13.8739 9 13.8739C8.805 13.8739 8.61 13.7914 8.4675 13.6564C8.3325 13.5139 8.25 13.3189 8.25 13.1239C8.25 12.9289 8.3325 12.7339 8.4675 12.5914C8.745 12.3139 9.255 12.3139 9.5325 12.5914C9.6675 12.7339 9.75 12.9289 9.75 13.1239C9.75 13.3189 9.6675 13.5139 9.5325 13.6564ZM9.5325 11.0314C9.495 11.0614 9.4575 11.0914 9.42 11.1214C9.375 11.1514 9.33 11.1739 9.285 11.1889C9.24 11.2114 9.195 11.2264 9.15 11.2339C9.0975 11.2414 9.0525 11.2489 9 11.2489C8.805 11.2489 8.61 11.1664 8.4675 11.0314C8.3325 10.8889 8.25 10.6939 8.25 10.4989C8.25 10.3039 8.3325 10.1089 8.4675 9.96641C8.535 9.89891 8.6175 9.84641 8.715 9.80891C8.9925 9.68891 9.3225 9.75641 9.5325 9.96641C9.6675 10.1089 9.75 10.3039 9.75 10.4989C9.75 10.6939 9.6675 10.8889 9.5325 11.0314ZM12.1575 13.6564C12.015 13.7914 11.82 13.8739 11.625 13.8739C11.43 13.8739 11.235 13.7914 11.0925 13.6564C10.9575 13.5139 10.875 13.3189 10.875 13.1239C10.875 12.9289 10.9575 12.7339 11.0925 12.5914C11.37 12.3139 11.88 12.3139 12.1575 12.5914C12.2925 12.7339 12.375 12.9289 12.375 13.1239C12.375 13.3189 12.2925 13.5139 12.1575 13.6564ZM12.1575 11.0314C12.12 11.0614 12.0825 11.0914 12.045 11.1214C12 11.1514 11.955 11.1739 11.91 11.1889C11.865 11.2114 11.82 11.2264 11.775 11.2339C11.7225 11.2414 11.67 11.2489 11.625 11.2489C11.43 11.2489 11.235 11.1664 11.0925 11.0314C10.9575 10.8889 10.875 10.6939 10.875 10.4989C10.875 10.3039 10.9575 10.1089 11.0925 9.96641C11.1675 9.89891 11.2425 9.84641 11.34 9.80891C11.475 9.74891 11.625 9.73391 11.775 9.76391C11.82 9.77141 11.865 9.78641 11.91 9.80891C11.955 9.82391 12 9.84641 12.045 9.87641C12.0825 9.90641 12.12 9.93641 12.1575 9.96641C12.2925 10.1089 12.375 10.3039 12.375 10.4989C12.375 10.6939 12.2925 10.8889 12.1575 11.0314Z" fill="#EE42AD"/>
</svg>
