<svg width="18" height="18" viewBox="0 0 18 18" fill="none" xmlns="http://www.w3.org/2000/svg">
<path d="M16.4766 4.125V7.125C16.4766 8.44615 15.5019 9.54238 14.2255 9.72369C14.0204 9.75282 13.8516 9.58211 13.8516 9.375V9.1875C13.8516 6.3975 11.5866 4.125 8.78906 4.125H8.60156C8.39446 4.125 8.22375 3.95614 8.2531 3.75113C8.4351 2.48009 9.53097 1.5 10.8516 1.5H13.8516C15.3066 1.5 16.4766 2.6775 16.4766 4.125Z" fill="#EE42AD"/>
<path d="M8.78906 5.25H8.22656H5.22656C3.15656 5.25 1.47656 6.93 1.47656 9V12.75C1.47656 14.82 3.15656 16.5 5.22656 16.5H8.97656C11.0466 16.5 12.7266 14.82 12.7266 12.75V9.75V9.1875C12.7266 7.0125 10.9641 5.25 8.78906 5.25Z" fill="#EE42AD"/>
</svg>
