<svg width="18" height="18" viewBox="0 0 18 18" fill="none" xmlns="http://www.w3.org/2000/svg">
<path d="M11.1997 1.875V6.3C11.1997 6.63 10.8097 6.795 10.5697 6.5775L9.25719 5.37C9.11469 5.235 8.88969 5.235 8.74719 5.37L7.43469 6.57C7.19469 6.795 6.80469 6.6225 6.80469 6.3V1.875C6.80469 1.665 6.96969 1.5 7.17969 1.5H10.8247C11.0347 1.5 11.1997 1.665 11.1997 1.875Z" fill="#EE42AD"/>
<path d="M12.735 1.54614C12.5175 1.51614 12.3225 1.70364 12.3225 1.92114V6.43614C12.3225 7.00614 11.985 7.52364 11.46 7.75614C10.935 7.98114 10.3275 7.88364 9.9075 7.49364L9.255 6.89364C9.1125 6.75864 8.895 6.75864 8.745 6.89364L8.0925 7.49364C7.8225 7.74864 7.47 7.87614 7.1175 7.87614C6.9225 7.87614 6.7275 7.83864 6.54 7.75614C6.015 7.52364 5.6775 7.00614 5.6775 6.43614V1.92114C5.6775 1.70364 5.4825 1.51614 5.265 1.54614C3.165 1.80864 2.25 3.22614 2.25 5.25114V12.7511C2.25 15.0011 3.375 16.5011 6 16.5011H12C14.625 16.5011 15.75 15.0011 15.75 12.7511V5.25114C15.75 3.22614 14.835 1.80864 12.735 1.54614ZM13.125 14.0636H6.75C6.4425 14.0636 6.1875 13.8086 6.1875 13.5011C6.1875 13.1936 6.4425 12.9386 6.75 12.9386H13.125C13.4325 12.9386 13.6875 13.1936 13.6875 13.5011C13.6875 13.8086 13.4325 14.0636 13.125 14.0636ZM13.125 11.0636H9.9375C9.63 11.0636 9.375 10.8086 9.375 10.5011C9.375 10.1936 9.63 9.93864 9.9375 9.93864H13.125C13.4325 9.93864 13.6875 10.1936 13.6875 10.5011C13.6875 10.8086 13.4325 11.0636 13.125 11.0636Z" fill="#EE42AD"/>
</svg>
