<svg width="18" height="18" viewBox="0 0 18 18" fill="none" xmlns="http://www.w3.org/2000/svg">
<path d="M15.7366 2.2666C15.0841 1.6141 14.1616 1.3591 13.2691 1.5841L5.9191 3.4216C4.6816 3.7291 3.7291 4.6891 3.4216 5.9191L1.5841 13.2766C1.3591 14.1691 1.6141 15.0916 2.2666 15.7441C2.7616 16.2316 3.4141 16.5016 4.0891 16.5016C4.2991 16.5016 4.5166 16.4791 4.7266 16.4191L12.0841 14.5816C13.3141 14.2741 14.2741 13.3216 14.5816 12.0841L16.4191 4.7266C16.6441 3.8341 16.3891 2.9116 15.7366 2.2666ZM9.0016 11.9116C7.3966 11.9116 6.0916 10.6066 6.0916 9.0016C6.0916 7.3966 7.3966 6.0916 9.0016 6.0916C10.6066 6.0916 11.9116 7.3966 11.9116 9.0016C11.9116 10.6066 10.6066 11.9116 9.0016 11.9116Z" fill="#EE42AD"/>
</svg>
