<svg width="18" height="18" viewBox="0 0 18 18" fill="none" xmlns="http://www.w3.org/2000/svg">
<path d="M6.75391 1.49805C4.78891 1.49805 3.19141 3.09555 3.19141 5.06055C3.19141 6.98805 4.69891 8.54805 6.66391 8.61555C6.72391 8.60805 6.78391 8.60805 6.82891 8.61555C6.84391 8.61555 6.85141 8.61555 6.86641 8.61555C6.87391 8.61555 6.87391 8.61555 6.88141 8.61555C8.80141 8.54805 10.3089 6.98805 10.3164 5.06055C10.3164 3.09555 8.71891 1.49805 6.75391 1.49805Z" fill="#EE42AD"/>
<path d="M10.5627 10.6127C8.47016 9.21766 5.05766 9.21766 2.95016 10.6127C1.99766 11.2502 1.47266 12.1127 1.47266 13.0352C1.47266 13.9577 1.99766 14.8127 2.94266 15.4427C3.99266 16.1477 5.37266 16.5002 6.75266 16.5002C8.13266 16.5002 9.51266 16.1477 10.5627 15.4427C11.5077 14.8052 12.0327 13.9502 12.0327 13.0202C12.0252 12.0977 11.5077 11.2427 10.5627 10.6127Z" fill="#EE42AD"/>
<path d="M14.992 5.50361C15.112 6.95861 14.077 8.23361 12.6445 8.40611C12.637 8.40611 12.637 8.40611 12.6295 8.40611H12.607C12.562 8.40611 12.517 8.40611 12.4795 8.42111C11.752 8.45861 11.0845 8.22611 10.582 7.79861C11.3545 7.10861 11.797 6.07361 11.707 4.94861C11.6545 4.34111 11.4445 3.78611 11.1295 3.31361C11.4145 3.17111 11.7445 3.08111 12.082 3.05111C13.552 2.92361 14.8645 4.01861 14.992 5.50361Z" fill="#EE42AD"/>
<path d="M16.4922 12.4408C16.4322 13.1683 15.9672 13.7983 15.1872 14.2258C14.4372 14.6383 13.4922 14.8333 12.5547 14.8108C13.0947 14.3233 13.4097 13.7158 13.4697 13.0708C13.5447 12.1408 13.1022 11.2483 12.2172 10.5358C11.7147 10.1383 11.1297 9.82334 10.4922 9.59084C12.1497 9.11084 14.2347 9.43334 15.5172 10.4683C16.2072 11.0233 16.5597 11.7208 16.4922 12.4408Z" fill="#EE42AD"/>
</svg>
