<svg width="18" height="18" viewBox="0 0 18 18" fill="none" xmlns="http://www.w3.org/2000/svg">
<path d="M16.4986 6.375C16.4986 8.82 14.6986 10.8375 12.3586 11.19V11.145C12.1261 8.235 9.76359 5.8725 6.83109 5.64H6.80859C7.16109 3.3 9.17859 1.5 11.6236 1.5C14.3161 1.5 16.4986 3.6825 16.4986 6.375Z" fill="#EE42AD"/>
<path d="M11.235 11.235C11.0475 8.8575 9.1425 6.9525 6.765 6.765C6.6375 6.7575 6.5025 6.75 6.375 6.75C3.6825 6.75 1.5 8.9325 1.5 11.625C1.5 14.3175 3.6825 16.5 6.375 16.5C9.0675 16.5 11.25 14.3175 11.25 11.625C11.25 11.4975 11.2425 11.3625 11.235 11.235ZM7.035 12.285L6.375 13.5L5.715 12.285L4.5 11.625L5.715 10.965L6.375 9.75L7.035 10.965L8.25 11.625L7.035 12.285Z" fill="#EE42AD"/>
</svg>
