<svg width="80" height="80" viewBox="0 0 80 80" fill="none" xmlns="http://www.w3.org/2000/svg">
<rect width="80" height="80" fill="white"/>
<path d="M18.9308 16.6501C15.3343 18.722 12.3633 20.5202 12.3633 20.6375C12.3633 20.7548 13.4579 21.4584 14.8261 22.2012L17.2498 23.6085L17.3671 36.8609L17.4453 50.1524L28.9385 56.7199L40.4317 63.2483L43.1682 61.6846L45.9438 60.0819L46.061 57.9318L46.1783 55.7426L49.6967 61.841C51.6122 65.203 53.3713 67.9395 53.5668 67.9395C53.9968 67.9395 67.0928 60.3946 67.0928 60.1209C67.0928 60.0037 65.9591 59.3 64.5518 58.5572L62.0108 57.189L61.9326 43.8975L61.8153 30.6061L50.4785 24.0776L39.1417 17.5883L36.4052 19.0738L33.6687 20.5984L33.4732 22.8658L33.2778 25.1331L29.7595 18.9956C27.8439 15.5946 26.0848 12.819 25.8502 12.8581C25.6547 12.8581 22.5273 14.5781 18.9308 16.6501ZM28.6649 20.4029C30.2286 23.1785 31.4795 25.6413 31.4013 25.8759C31.2059 26.3841 28.5085 27.9087 28.2739 27.6741C27.6094 26.9314 22.1755 16.9628 22.3319 16.8064C22.9574 16.1809 24.7556 15.2036 25.2247 15.2818C25.4984 15.3209 27.0621 17.6274 28.6649 20.4029ZM24.2474 22.0839C25.6547 24.5858 26.7493 26.6968 26.6321 26.8141C26.5539 26.9314 26.0066 26.6968 25.4984 26.345C24.9511 25.9932 24.4038 25.7195 24.2865 25.7195C24.1692 25.7195 24.091 30.4106 24.091 36.1572V46.634L29.3685 49.6441C32.2614 51.3251 34.8415 52.6934 35.037 52.6934C35.2715 52.6934 35.4279 47.2595 35.4279 37.4473C35.4279 29.0424 35.5061 22.2012 35.5842 22.2012C35.7015 22.2012 40.3144 24.8204 45.8656 28.026L55.9515 33.8117L56.0687 47.1031L56.1469 60.3946L57.9061 61.3328C58.8834 61.841 59.6652 62.3492 59.6652 62.4665C59.6652 62.8965 54.505 65.633 54.0359 65.4766C53.4886 65.2421 48.2111 56.2117 48.6412 56.2117C48.7975 56.2508 49.3448 56.4853 49.8921 56.7981C50.4394 57.1108 50.9867 57.3454 51.1822 57.3845C51.3385 57.3845 51.4167 52.6934 51.3776 46.9859L51.2604 36.5481L45.9829 33.4989C43.09 31.7789 40.5881 30.4106 40.4317 30.4106C40.2754 30.4106 40.119 37.2909 40.119 45.6958C40.119 55.4298 39.9626 60.9028 39.7281 60.8246C39.5326 60.7464 34.8806 58.1663 29.3685 55.0389L19.3999 49.3705V36.1572V22.983L17.6408 21.8885C16.6635 21.3021 15.8816 20.7548 15.8816 20.6375C15.8816 20.3247 20.6509 17.5492 21.1982 17.5101C21.4718 17.5101 22.8401 19.5429 24.2474 22.0839ZM49.3448 25.4068L59.7434 31.3488L58.8052 32.0525C56.8897 33.538 56.7333 33.4598 46.022 27.3223L35.7797 21.4584L37.2652 20.4811C38.0862 19.9338 38.7898 19.5038 38.868 19.5038C38.9071 19.4647 43.6373 22.123 49.3448 25.4068ZM27.6876 28.6124C27.8439 28.8469 28.0003 32.3262 28.0003 36.3527V43.6239L26.6711 44.4448C25.9675 44.914 25.1856 45.2658 24.912 45.2658C24.4429 45.2658 24.2474 27.6351 24.7165 27.1659C25.0293 26.8923 27.2966 27.9869 27.6876 28.6124ZM33.4732 36.1181V45.3049L31.5186 44.2494L29.564 43.1939V36.1963V29.2378L31.4404 28.0651C32.4568 27.4396 33.3169 26.8923 33.3951 26.8923C33.4342 26.8923 33.4732 31.0361 33.4732 36.1181ZM42.6991 32.4043L44.0282 33.2253V46.2822V59.3391L42.4645 60.1209L40.9008 60.9028V46.2431C40.9008 38.19 41.0181 31.5834 41.1354 31.5834C41.2918 31.5834 41.9954 31.9352 42.6991 32.4043ZM60.0562 45.0703V57.7754L58.8052 58.5572C58.1015 58.9873 57.3979 59.3391 57.2415 59.3391C57.046 59.3391 56.9288 53.6316 56.9288 46.6731V34.0071L58.2188 33.1862C58.8834 32.7562 59.5871 32.3652 59.7825 32.3652C59.9389 32.3652 60.0562 38.0728 60.0562 45.0703ZM49.8921 44.5621V51.5206L48.4457 52.4197C47.6247 52.9279 46.7256 53.4752 46.4911 53.6316C46.1001 53.8661 45.9829 51.9506 45.9829 44.6794V35.4536L47.9375 36.5481L49.8921 37.6427V44.5621ZM31.6359 46.2822L34.646 48.0414V49.996C34.646 51.9897 34.646 51.9897 33.786 51.4424C33.2778 51.1297 31.245 49.9569 29.2513 48.7841C27.2575 47.6504 25.5375 46.5949 25.4593 46.4386C25.2638 46.0867 27.5312 44.4839 28.1958 44.4839C28.4303 44.4839 29.9549 45.3049 31.6359 46.2822ZM51.0649 54.8435C51.0649 56.4072 50.5958 56.5635 48.9539 55.4689L47.8202 54.7262L48.9539 54.1007C50.674 53.2016 51.0649 53.3188 51.0649 54.8435ZM63.5745 60.1991C63.5745 60.3555 62.8708 60.8637 62.0108 61.2937L60.4862 62.0756L59.0789 61.2546C58.3361 60.7855 57.7106 60.3164 57.7106 60.1991C57.7106 60.0428 58.3752 59.5346 59.1961 59.1045L60.6426 58.2445L62.089 59.1045C62.9099 59.5346 63.5745 60.0428 63.5745 60.1991Z" fill="#22282B"/>
<g style="mix-blend-mode:multiply" opacity="0.6" filter="url(#filter0_f_1079_3104)">
<path d="M19.9961 22.1443L24.5527 19.2871L27.139 23.8326V24.2222L25.538 25.0014L19.9961 22.1443Z" fill="#E81899"/>
</g>
<g style="mix-blend-mode:multiply" opacity="0.5" filter="url(#filter1_f_1079_3104)">
<path d="M61.4258 60.0014L54.5908 64.2871L50.7115 57.4689V56.8845L53.113 55.7157L61.4258 60.0014Z" fill="#6321B6"/>
</g>
<path d="M16.7778 58.1228L21.0266 62.0848L15.471 63.7834L16.7778 58.1228Z" fill="#E9199A"/>
<circle cx="53.8518" cy="11.7092" r="3.85178" fill="#6422B7"/>
<defs>
<filter id="filter0_f_1079_3104" x="9.92467" y="9.21568" width="27.2874" height="25.8577" filterUnits="userSpaceOnUse" color-interpolation-filters="sRGB">
<feFlood flood-opacity="0" result="BackgroundImageFix"/>
<feBlend mode="normal" in="SourceGraphic" in2="BackgroundImageFix" result="shape"/>
<feGaussianBlur stdDeviation="5.03571" result="effect1_foregroundBlur_1079_3104"/>
</filter>
<filter id="filter1_f_1079_3104" x="40.7109" y="45.7148" width="30.7148" height="28.5723" filterUnits="userSpaceOnUse" color-interpolation-filters="sRGB">
<feFlood flood-opacity="0" result="BackgroundImageFix"/>
<feBlend mode="normal" in="SourceGraphic" in2="BackgroundImageFix" result="shape"/>
<feGaussianBlur stdDeviation="5" result="effect1_foregroundBlur_1079_3104"/>
</filter>
</defs>
</svg>
