<svg width="80" height="80" viewBox="0 0 80 80" fill="none" xmlns="http://www.w3.org/2000/svg">
<path d="M46.3557 12.6849L41.2997 13.9421L38.881 17.1533L36.476 20.3646L36.4214 29.397L36.3804 38.4158L32.2399 37.4046L28.0995 36.3934L22.9478 37.6506C20.1192 38.3338 17.6595 39.0034 17.4956 39.1264C17.3179 39.2494 16.1701 40.7388 14.9266 42.4196L12.6719 45.4805V52.3676V59.2547L15.0632 62.4796L17.4546 65.7045L22.7839 67.03L28.1131 68.3555L33.4014 67.0436L38.6897 65.7318L40.6575 63.0945C41.737 61.6597 42.6799 60.4709 42.7482 60.4709C42.8165 60.4709 44.9072 60.9628 47.3942 61.5777L51.9036 62.6846L57.0553 61.4274C59.8839 60.7305 62.2889 60.1156 62.3846 60.0609C62.4802 60.0199 63.6417 58.5305 64.9535 56.7677L67.3312 53.5701V37.022V20.4739L64.8989 17.208L62.4665 13.9421L57.3422 12.6713C54.5273 11.988 52.0403 11.4141 51.808 11.4278C51.5893 11.4278 49.1433 12.0017 46.3557 12.6849ZM56.3037 14.2154C58.5721 14.7893 60.6628 15.3222 60.9497 15.3906C61.4143 15.5135 61.674 15.8005 63.4504 18.1919L65.4318 20.8565L63.5461 23.3982C62.5075 24.792 61.6193 25.9945 61.5783 26.0765C61.469 26.2268 52.4229 28.4951 51.9173 28.4951C51.5483 28.4951 42.8712 26.3908 42.4339 26.1994C42.2562 26.1175 40.0289 23.2342 38.6624 21.2801L38.3481 20.8428L40.3022 18.1919L42.2562 15.5272L46.9023 14.3657C49.4576 13.7235 51.685 13.2042 51.8626 13.1905C52.0266 13.1905 54.0353 13.6551 56.3037 14.2154ZM40.2475 24.6143L41.778 26.6914L41.7506 29.2604L41.7097 31.843L39.9742 29.52L38.2251 27.197V24.6007C38.2251 21.5534 37.9928 21.5534 40.2475 24.6143ZM64.0243 29.233C61.7696 32.294 62.0019 32.294 62.0019 29.2467V26.6504L63.751 24.3274L65.4865 22.0043L65.5275 24.587L65.5548 27.156L64.0243 29.233ZM47.0389 28.0989L51.48 29.2057V32.0617C51.48 33.6331 51.4527 34.9176 51.4117 34.9176C51.3707 34.9176 49.3483 34.412 46.9023 33.8108L42.4612 32.7039V29.848C42.4612 28.2765 42.4886 26.992 42.5295 26.992C42.5705 26.992 44.5929 27.4976 47.0389 28.0989ZM61.3187 29.848V32.7039L56.8776 33.8108C54.4316 34.412 52.3819 34.9176 52.2999 34.9176C52.2042 34.9176 52.1769 33.9611 52.1906 32.0753L52.2316 29.2467L56.6043 28.1262C59.0093 27.5113 61.0591 27.0057 61.1547 27.0057C61.2777 26.992 61.3187 27.6479 61.3187 29.848ZM40.1929 30.9958L41.778 33.1549L41.7506 35.7512L41.7097 38.3612L39.9742 35.9971L38.2251 33.6331V31.0368C38.2251 28.8368 38.2524 28.4678 38.4164 28.6318C38.5121 28.7411 39.3183 29.807 40.1929 30.9958ZM65.5548 31.0641V33.6331L63.8194 35.9698L62.0703 38.3065L62.0293 35.7102L62.0019 33.1139L63.7237 30.8045C64.6666 29.5337 65.4728 28.4951 65.5001 28.4951C65.5275 28.4951 65.5548 29.6567 65.5548 31.0641ZM47.1483 34.5897L51.48 35.6692V38.4978C51.48 40.3562 51.4254 41.3401 51.3434 41.3401C51.2204 41.3401 44.6339 39.714 42.9805 39.2767L42.4612 39.14V36.2704C42.4612 34.0157 42.5022 33.4008 42.6389 33.4418C42.7209 33.4828 44.7569 33.9884 47.1483 34.5897ZM61.3187 36.2841V39.14L60.8131 39.2767C58.6814 39.837 52.5322 41.3401 52.3682 41.3401C52.1906 41.3401 52.1633 40.9848 52.1906 38.5115L52.2316 35.6828L56.6726 34.5623C59.1187 33.9474 61.1547 33.4281 61.223 33.4281C61.2777 33.4145 61.3187 34.699 61.3187 36.2841ZM40.1245 37.3773L41.778 39.6183V42.1873C41.778 43.5948 41.7506 44.7563 41.7233 44.7563C41.696 44.7563 40.8898 43.7178 39.9469 42.4333L38.2251 40.1239V37.4866C38.2251 35.9835 38.2798 34.9176 38.3481 34.9859C38.4164 35.0679 39.209 36.1338 40.1245 37.3773ZM65.5548 37.5003V40.0966L63.8194 42.4333L62.0703 44.77L62.0293 42.1736L62.0019 39.5773L63.7374 37.2406C64.6939 35.9698 65.4865 34.9176 65.5138 34.9176C65.5411 34.9176 65.5548 36.0791 65.5548 37.5003ZM32.8958 39.3724L37.6785 40.5475L39.5643 43.0892C40.6028 44.4967 41.491 45.7128 41.5457 45.7948C41.5867 45.8768 40.7395 47.134 39.6463 48.5961L37.6785 51.2471L32.8685 52.4359L28.0585 53.6248L23.2758 52.4359L18.5068 51.2471L16.539 48.6098C15.4732 47.1613 14.585 45.9451 14.585 45.9041C14.585 45.8495 15.4732 44.6333 16.5527 43.1848L18.5204 40.5612L23.2075 39.386C25.7901 38.7438 27.9628 38.2108 28.0175 38.1972C28.0858 38.1972 30.2722 38.7301 32.8958 39.3724ZM61.223 45.5899C61.0591 45.7265 52.3136 47.8719 52.2316 47.7899C52.1906 47.7489 52.1633 46.4644 52.1633 44.9476V42.16L52.5459 42.0643C52.7508 42.0097 54.7869 41.5041 57.0826 40.9438L61.2504 39.9053L61.2914 42.6929C61.305 44.237 61.2777 45.5352 61.223 45.5899ZM47.1756 41.0395L51.4117 42.1053L51.4527 44.9886L51.48 47.8582L47.4216 46.847C45.1805 46.2868 43.1445 45.7948 42.9122 45.7538L42.4612 45.6718V42.8296C42.4612 40.1922 42.4749 39.9736 42.7072 39.9736C42.8302 39.9873 44.8526 40.4655 47.1756 41.0395ZM63.833 48.8694C62.8902 50.1402 62.0839 51.1788 62.0566 51.1788C62.0293 51.1788 62.0019 50.0309 62.0019 48.6098V46.0545L63.751 43.6904L65.4865 41.3401L65.5275 43.9501L65.5548 46.5464L63.833 48.8694ZM46.5197 47.3526C48.6787 47.8855 50.6738 48.3775 50.9607 48.4595L51.48 48.5961V51.4657C51.48 53.7204 51.439 54.3353 51.316 54.2807C51.2204 54.2534 49.1843 53.7478 46.8066 53.1602L42.4612 52.108V49.252C42.4612 47.6806 42.4886 46.3961 42.5295 46.3961C42.5705 46.3961 44.3606 46.8334 46.5197 47.3526ZM61.3187 49.252V52.108L57.0279 53.1465C54.6776 53.7341 52.6142 54.2397 52.4502 54.2807C52.1633 54.349 52.1633 54.349 52.1633 51.5477C52.1633 49.4433 52.2042 48.7054 52.3272 48.6234C52.4912 48.5278 60.7858 46.4371 61.1547 46.4097C61.2777 46.3961 61.3187 47.052 61.3187 49.252ZM16.3477 49.5117L18.0012 51.739V54.2534C18.0012 55.6472 17.9602 56.7814 17.9055 56.7814C17.8372 56.7677 17.0446 55.7565 16.1291 54.5267L14.4483 52.272V49.6483C14.4483 48.1452 14.503 47.0793 14.5713 47.1476C14.6396 47.2296 15.4322 48.2818 16.3477 49.5117ZM41.778 49.6346V52.2036L40.0015 54.595L38.2251 56.9727V54.3217L38.2388 51.657L39.9469 49.3613C40.8761 48.1042 41.6823 47.0793 41.7097 47.0793C41.7506 47.0793 41.778 48.2272 41.778 49.6346ZM65.5548 50.4545V53.0235L63.7784 55.4149L62.0019 57.7926V55.1416L62.0156 52.4769L63.7237 50.1812C64.6529 48.9241 65.4591 47.8992 65.4865 47.8992C65.5275 47.8992 65.5548 49.0471 65.5548 50.4545ZM23.3714 53.1738L27.7032 54.2534V57.082C27.7032 58.9404 27.6485 59.9243 27.5665 59.9243C27.4436 59.9243 20.8571 58.2981 19.2037 57.8609L18.6844 57.7242V54.8546C18.6844 52.5999 18.7254 51.985 18.862 52.026C18.944 52.067 20.9801 52.5726 23.3714 53.1738ZM37.5419 54.8683V57.7242L37.0363 57.8609C34.9046 58.4211 28.7554 59.9243 28.5914 59.9243C28.4138 59.9243 28.3864 59.569 28.4138 57.0956L28.4548 54.267L32.8958 53.1465C35.3418 52.5316 37.3779 52.0123 37.4462 52.0123C37.5009 51.9987 37.5419 53.2832 37.5419 54.8683ZM47.1483 53.9801L51.48 55.0459V57.8882C51.48 59.4597 51.439 60.7442 51.3844 60.7442C51.275 60.7442 43.978 58.9541 42.9805 58.6808L42.4612 58.5441V55.6745C42.4612 53.4198 42.5022 52.8049 42.6389 52.8595C42.7209 52.8869 44.7569 53.3925 47.1483 53.9801ZM61.3187 55.6882V58.5441L60.8131 58.6808C59.5559 59.0224 52.4502 60.7442 52.3136 60.7442C52.2042 60.7442 52.1633 59.9106 52.1906 57.9019L52.2316 55.0732L56.6726 53.9664C59.1187 53.3515 61.1547 52.8459 61.223 52.8322C61.2777 52.8186 61.3187 54.103 61.3187 55.6882ZM16.2794 55.8931L18.0012 58.2025V60.7715C18.0012 62.179 17.9738 63.3405 17.9465 63.3405C17.9192 63.3405 17.1129 62.3019 16.1701 61.0311L14.4483 58.7354V56.0981C14.4483 54.6496 14.4756 53.4881 14.503 53.5155C14.5303 53.5428 15.3365 54.6086 16.2794 55.8931ZM41.778 56.0708V58.6398L40.0425 61.0038L38.2934 63.3678L38.2524 60.7578L38.2251 58.1615L39.9469 55.8385C40.8898 54.554 41.696 53.5018 41.7233 53.5018C41.7506 53.5018 41.778 54.6633 41.778 56.0708ZM37.4462 64.1604C37.2822 64.3107 28.5368 66.4561 28.4548 66.3741C28.4138 66.3331 28.3864 65.0486 28.3864 63.5318V60.7442L28.7691 60.6485C28.974 60.6075 31.0101 60.0882 33.3058 59.5143L37.4736 58.4758L37.5145 61.2771C37.5282 62.8075 37.5009 64.1194 37.4462 64.1604ZM23.3988 59.6236L27.6349 60.6895L27.6759 63.5728L27.7032 66.4424L23.1938 65.3355L18.6844 64.2287V61.3864C18.6844 58.7764 18.6981 58.5578 18.9304 58.5578C19.0534 58.5714 21.0621 59.0497 23.3988 59.6236Z" fill="black"/>
<g opacity="0.1">
<g filter="url(#filter0_f_1079_3056)">
<ellipse cx="8.12141" cy="13.3758" rx="8.12141" ry="13.3758" transform="matrix(-0.0370296 0.999314 0.999314 0.0370296 40.1836 11.4863)" fill="url(#paint0_linear_1079_3056)"/>
</g>
<g filter="url(#filter1_f_1079_3056)">
<ellipse cx="5.9425" cy="9.78716" rx="5.9425" ry="9.78716" transform="matrix(-0.0370296 0.999314 0.999314 0.0370296 38.4023 16.3965)" fill="url(#paint1_linear_1079_3056)"/>
</g>
</g>
<g opacity="0.1">
<g filter="url(#filter2_f_1079_3056)">
<ellipse cx="8.12141" cy="13.3758" rx="8.12141" ry="13.3758" transform="matrix(-0.0370296 0.999314 0.999314 0.0370296 40.1836 11.4863)" fill="url(#paint2_linear_1079_3056)"/>
</g>
<g filter="url(#filter3_f_1079_3056)">
<ellipse cx="5.9425" cy="9.78716" rx="5.9425" ry="9.78716" transform="matrix(-0.0370296 0.999314 0.999314 0.0370296 38.4023 16.3965)" fill="url(#paint3_linear_1079_3056)"/>
</g>
</g>
<g opacity="0.1">
<g filter="url(#filter4_f_1079_3056)">
<ellipse cx="8.12141" cy="13.3758" rx="8.12141" ry="13.3758" transform="matrix(-0.0370296 0.999314 0.999314 0.0370296 40.1836 11.4863)" fill="url(#paint4_linear_1079_3056)"/>
</g>
<g filter="url(#filter5_f_1079_3056)">
<ellipse cx="5.9425" cy="9.78716" rx="5.9425" ry="9.78716" transform="matrix(-0.0370296 0.999314 0.999314 0.0370296 38.4023 16.3965)" fill="url(#paint5_linear_1079_3056)"/>
</g>
</g>
<g opacity="0.1">
<g filter="url(#filter6_f_1079_3056)">
<ellipse cx="8.12141" cy="13.3758" rx="8.12141" ry="13.3758" transform="matrix(-0.0370296 0.999314 0.999314 0.0370296 17.7422 37.334)" fill="url(#paint6_linear_1079_3056)"/>
</g>
<g filter="url(#filter7_f_1079_3056)">
<ellipse cx="5.9425" cy="9.78716" rx="5.9425" ry="9.78716" transform="matrix(-0.0370296 0.999314 0.999314 0.0370296 15.9609 42.2441)" fill="url(#paint7_linear_1079_3056)"/>
</g>
</g>
<g clip-path="url(#clip0_1079_3056)">
<path d="M20.5623 22.1259C18.2989 25.353 15.2942 23.6231 16.9484 20.0453C13.7213 17.782 15.4512 14.7772 19.0289 16.4314C21.2918 13.2045 24.2971 14.9342 22.6429 18.512C25.8694 20.7731 24.1395 23.7803 20.5623 22.1259Z" fill="#6422B7"/>
</g>
<defs>
<filter id="filter0_f_1079_3056" x="33.3541" y="5.44202" width="39.7917" height="29.3113" filterUnits="userSpaceOnUse" color-interpolation-filters="sRGB">
<feFlood flood-opacity="0" result="BackgroundImageFix"/>
<feBlend mode="normal" in="SourceGraphic" in2="BackgroundImageFix" result="shape"/>
<feGaussianBlur stdDeviation="3.26239" result="effect1_foregroundBlur_1079_3056"/>
</filter>
<filter id="filter1_f_1079_3056" x="34.9173" y="13.4857" width="26.0912" height="18.4232" filterUnits="userSpaceOnUse" color-interpolation-filters="sRGB">
<feFlood flood-opacity="0" result="BackgroundImageFix"/>
<feBlend mode="normal" in="SourceGraphic" in2="BackgroundImageFix" result="shape"/>
<feGaussianBlur stdDeviation="1.63119" result="effect1_foregroundBlur_1079_3056"/>
</filter>
<filter id="filter2_f_1079_3056" x="33.3541" y="5.44202" width="39.7917" height="29.3113" filterUnits="userSpaceOnUse" color-interpolation-filters="sRGB">
<feFlood flood-opacity="0" result="BackgroundImageFix"/>
<feBlend mode="normal" in="SourceGraphic" in2="BackgroundImageFix" result="shape"/>
<feGaussianBlur stdDeviation="3.26239" result="effect1_foregroundBlur_1079_3056"/>
</filter>
<filter id="filter3_f_1079_3056" x="34.9173" y="13.4857" width="26.0912" height="18.4232" filterUnits="userSpaceOnUse" color-interpolation-filters="sRGB">
<feFlood flood-opacity="0" result="BackgroundImageFix"/>
<feBlend mode="normal" in="SourceGraphic" in2="BackgroundImageFix" result="shape"/>
<feGaussianBlur stdDeviation="1.63119" result="effect1_foregroundBlur_1079_3056"/>
</filter>
<filter id="filter4_f_1079_3056" x="33.3541" y="5.44202" width="39.7917" height="29.3113" filterUnits="userSpaceOnUse" color-interpolation-filters="sRGB">
<feFlood flood-opacity="0" result="BackgroundImageFix"/>
<feBlend mode="normal" in="SourceGraphic" in2="BackgroundImageFix" result="shape"/>
<feGaussianBlur stdDeviation="3.26239" result="effect1_foregroundBlur_1079_3056"/>
</filter>
<filter id="filter5_f_1079_3056" x="34.9173" y="13.4857" width="26.0912" height="18.4232" filterUnits="userSpaceOnUse" color-interpolation-filters="sRGB">
<feFlood flood-opacity="0" result="BackgroundImageFix"/>
<feBlend mode="normal" in="SourceGraphic" in2="BackgroundImageFix" result="shape"/>
<feGaussianBlur stdDeviation="1.63119" result="effect1_foregroundBlur_1079_3056"/>
</filter>
<filter id="filter6_f_1079_3056" x="10.9127" y="31.2897" width="39.7917" height="29.3113" filterUnits="userSpaceOnUse" color-interpolation-filters="sRGB">
<feFlood flood-opacity="0" result="BackgroundImageFix"/>
<feBlend mode="normal" in="SourceGraphic" in2="BackgroundImageFix" result="shape"/>
<feGaussianBlur stdDeviation="3.26239" result="effect1_foregroundBlur_1079_3056"/>
</filter>
<filter id="filter7_f_1079_3056" x="12.4759" y="39.3333" width="26.0912" height="18.4232" filterUnits="userSpaceOnUse" color-interpolation-filters="sRGB">
<feFlood flood-opacity="0" result="BackgroundImageFix"/>
<feBlend mode="normal" in="SourceGraphic" in2="BackgroundImageFix" result="shape"/>
<feGaussianBlur stdDeviation="1.63119" result="effect1_foregroundBlur_1079_3056"/>
</filter>
<linearGradient id="paint0_linear_1079_3056" x1="8.12141" y1="0" x2="8.12141" y2="26.7516" gradientUnits="userSpaceOnUse">
<stop stop-color="#FF7BCA"/>
<stop offset="1" stop-color="#FFC56F" stop-opacity="0.46"/>
</linearGradient>
<linearGradient id="paint1_linear_1079_3056" x1="5.9425" y1="0" x2="5.9425" y2="19.5743" gradientUnits="userSpaceOnUse">
<stop stop-color="#F22FB0"/>
<stop offset="1" stop-color="#F58A25" stop-opacity="0"/>
<stop offset="1" stop-color="#7061A3"/>
</linearGradient>
<linearGradient id="paint2_linear_1079_3056" x1="8.12141" y1="0" x2="8.12141" y2="26.7516" gradientUnits="userSpaceOnUse">
<stop stop-color="#FF7BCA"/>
<stop offset="1" stop-color="#FFC56F" stop-opacity="0.46"/>
</linearGradient>
<linearGradient id="paint3_linear_1079_3056" x1="5.9425" y1="0" x2="5.9425" y2="19.5743" gradientUnits="userSpaceOnUse">
<stop stop-color="#F22FB0"/>
<stop offset="1" stop-color="#F58A25" stop-opacity="0"/>
<stop offset="1" stop-color="#7061A3"/>
</linearGradient>
<linearGradient id="paint4_linear_1079_3056" x1="8.12141" y1="0" x2="8.12141" y2="26.7516" gradientUnits="userSpaceOnUse">
<stop stop-color="#FF7BCA"/>
<stop offset="1" stop-color="#FFC56F" stop-opacity="0.46"/>
</linearGradient>
<linearGradient id="paint5_linear_1079_3056" x1="5.9425" y1="0" x2="5.9425" y2="19.5743" gradientUnits="userSpaceOnUse">
<stop offset="0.0001" stop-color="#AB6AFF"/>
<stop offset="1" stop-color="#9925F5" stop-opacity="0.45"/>
</linearGradient>
<linearGradient id="paint6_linear_1079_3056" x1="8.12141" y1="0" x2="8.12141" y2="26.7516" gradientUnits="userSpaceOnUse">
<stop stop-color="#FF7BCA"/>
<stop offset="1" stop-color="#FFC56F" stop-opacity="0.46"/>
</linearGradient>
<linearGradient id="paint7_linear_1079_3056" x1="5.9425" y1="0" x2="5.9425" y2="19.5743" gradientUnits="userSpaceOnUse">
<stop stop-color="#F22FB0"/>
<stop offset="1" stop-color="#F58A25" stop-opacity="0"/>
<stop offset="1" stop-color="#7061A3"/>
</linearGradient>
<clipPath id="clip0_1079_3056">
<rect width="7.99779" height="7.99779" fill="white" transform="translate(14.8945 16.457) rotate(-15.0706)"/>
</clipPath>
</defs>
</svg>
