<svg width="60" height="60" viewBox="0 0 60 60" fill="none" xmlns="http://www.w3.org/2000/svg">
<g clip-path="url(#clip0_1079_3244)">
<path d="M56.6667 48.4951C55.9716 46.8901 55.1733 45.1486 53.3334 45.1486H51.6666C53.5069 45.1486 54.9998 43.6503 54.9998 41.802V13.3486C54.9998 11.5003 53.5069 10.002 51.6666 10.002H8.33334C6.49331 10.002 5.00002 11.5003 5.00002 13.3486V41.802C5.00002 43.6503 6.49331 45.1486 8.33334 45.1486H6.66666C4.82667 45.1486 3.88833 46.822 3.33333 48.4951L0 56.6537C0 58.5038 1.49333 60.002 3.33333 60.002H56.6667C58.5066 60.002 60 58.5038 60 56.6551L56.6667 48.4951Z" fill="#CCD6DD"/>
<path d="M0.0117188 56.791L0.0217187 56.8857L0.305052 58.0393C0.831721 59.1924 1.98505 59.9991 3.33172 59.9991H56.6651C58.4585 59.9991 59.9103 58.5741 59.9853 56.791H0.0117188Z" fill="#9AAAB4"/>
<path d="M51.6692 40.1263C51.6692 41.0513 50.9243 41.7996 50.0028 41.7996H10.0026C9.08261 41.7996 8.33594 41.0513 8.33594 40.1263V15.023C8.33594 14.098 9.08261 13.3496 10.0026 13.3496H50.0028C50.9243 13.3496 51.6692 14.0996 51.6692 15.023V40.1263Z" fill="black"/>
<path d="M54.8423 51.739L53.5757 48.1137C53.1773 47.3472 52.5173 46.7188 51.5957 46.7188H8.51564C7.59563 46.7188 7.00561 47.3988 6.58899 48.4455L5.44228 51.7404C5.07731 52.7337 6.18896 53.4138 7.10897 53.4138H19.739C19.739 53.4138 21.3006 53.3355 21.5773 52.4004C21.8973 51.3204 22.269 49.6938 22.349 49.4069C22.4723 48.9673 22.9956 48.5219 23.7756 48.5219H38.0723C38.9056 48.5219 39.3156 48.9438 39.424 49.4655C39.494 49.8054 39.944 51.3673 40.154 52.4355C40.339 53.3871 42.189 53.4119 42.189 53.4119H53.1791C54.0974 53.4119 55.2074 52.6273 54.8423 51.739Z" fill="#AEBBC1"/>
<path d="M37.2918 55.1877H24.3235C23.6985 55.1877 23.4268 54.6163 23.5168 54.0627C23.6068 53.511 24.1151 51.0745 24.1551 50.7913C24.1935 50.5063 24.6118 50.166 25.0285 50.166H36.7201C37.2151 50.166 37.5368 50.4379 37.6368 50.9812C37.7351 51.5263 38.1401 53.7163 38.1718 54.216C38.2035 54.7176 37.8901 55.1877 37.2918 55.1877Z" fill="#9AAAB4"/>
<path d="M40.7772 33.6116L36.9217 28.3733C36.5028 27.8041 35.8826 27.4632 35.2222 27.388C35.0718 27.3705 34.9375 27.2833 34.8624 27.1517C34.7858 27.0202 34.7778 26.8604 34.8382 26.7208C35.1027 26.1113 35.1188 25.4039 34.8342 24.7568L32.2258 18.799C31.8391 17.9143 30.9652 17.3438 30 17.3438C29.0348 17.3438 28.1608 17.9156 27.7742 18.799L25.1658 24.7568C24.8826 25.4039 24.8973 26.1113 25.1618 26.7208C25.2222 26.8604 25.2128 27.0202 25.1376 27.1517C25.0611 27.2833 24.9282 27.3705 24.7778 27.388C24.1174 27.4632 23.4971 27.8041 23.0783 28.3733L19.2228 33.6116C18.6509 34.3889 18.5932 35.4307 19.0751 36.267C19.5584 37.102 20.49 37.5732 21.4485 37.4671L27.9125 36.7476C28.6146 36.6697 29.22 36.3032 29.6147 35.769C29.7046 35.6468 29.8483 35.5743 30 35.5743C30.1517 35.5743 30.294 35.6468 30.3853 35.769C30.78 36.3032 31.3854 36.6697 32.0875 36.7476L38.5515 37.4671C39.51 37.5745 40.4416 37.1033 40.9249 36.267C41.4068 35.4307 41.3491 34.3889 40.7772 33.6116ZM26.8519 25.5045L29.4644 19.54C29.5583 19.3266 29.7691 19.1883 30.0014 19.1883C30.2336 19.1883 30.4443 19.3266 30.5383 19.54L33.1507 25.5045C33.2326 25.6925 33.2152 25.91 33.1024 26.0818C32.9896 26.2536 32.799 26.357 32.5923 26.357H27.4091C27.2037 26.357 27.0117 26.2536 26.8989 26.0818C26.7862 25.91 26.7687 25.6925 26.8506 25.5045H26.8519ZM28.1931 34.5849C28.1004 34.7688 27.9205 34.8923 27.7165 34.9151L21.2459 35.6347C21.015 35.6602 20.7894 35.5474 20.6726 35.3461C20.5558 35.1447 20.5706 34.8937 20.7089 34.7057L24.5684 29.4621C24.6906 29.297 24.8866 29.203 25.092 29.2151C25.2974 29.2258 25.4827 29.3399 25.586 29.5185L25.59 29.5252L28.1743 34.0009L28.1783 34.0076C28.2817 34.1862 28.287 34.4037 28.1944 34.5862L28.1931 34.5849ZM30.5316 32.5605C30.4215 32.7498 30.2202 32.8679 30 32.8679C29.7812 32.8679 29.5784 32.7511 29.4684 32.5618L27.4829 29.1238C27.3728 28.9345 27.3728 28.6996 27.4829 28.5103C27.593 28.321 27.7943 28.2029 28.0145 28.2029H31.9842C32.203 28.2029 32.4057 28.3183 32.5158 28.509C32.6258 28.6996 32.6258 28.9332 32.5158 29.1225L30.5316 32.5605ZM39.3287 35.3461C39.2119 35.5474 38.9877 35.6616 38.7555 35.6361L32.2849 34.9165C32.0808 34.8937 31.9009 34.7701 31.8083 34.5862C31.7157 34.4023 31.721 34.1849 31.8244 34.0076L31.8284 34.0009L34.4127 29.5252L34.4167 29.5185C34.5201 29.3399 34.7053 29.2258 34.9107 29.2151C35.1161 29.2043 35.3121 29.297 35.4343 29.4621L39.2938 34.7057C39.4321 34.8937 39.4455 35.1447 39.33 35.3461H39.3287Z" fill="#E81899"/>
</g>
<defs>
<clipPath id="clip0_1079_3244">
<rect width="60" height="60" fill="white"/>
</clipPath>
</defs>
</svg>
