<svg width="55" height="55" viewBox="0 0 55 55" fill="none" xmlns="http://www.w3.org/2000/svg">
<g clip-path="url(#clip0_1079_3261)">
<mask id="mask0_1079_3261" style="mask-type:luminance" maskUnits="userSpaceOnUse" x="0" y="0" width="55" height="55">
<path d="M55 0H0V55H55V0Z" fill="white"/>
</mask>
<g mask="url(#mask0_1079_3261)">
<path d="M1.52734 25.9718L13.7496 15.2773L38.194 16.8051L39.7218 41.2496L29.0273 53.4718C29.0273 53.4718 29.0289 44.3067 19.8607 35.1385C10.6925 25.9703 1.52734 25.9718 1.52734 25.9718Z" fill="#E81899"/>
<path d="M1.4844 53.4731C1.4844 53.4731 1.4294 41.2829 6.04482 36.6675C10.6602 32.0521 22.9145 32.3699 22.9145 32.3699C22.9145 32.3699 22.913 44.3064 18.3297 48.8898C13.7464 53.4731 1.4844 53.4731 1.4844 53.4731Z" fill="#FFAC33"/>
<path d="M13.7478 47.3609C17.1229 47.3609 19.8589 44.6248 19.8589 41.2498C19.8589 37.8747 17.1229 35.1387 13.7478 35.1387C10.3728 35.1387 7.63672 37.8747 7.63672 41.2498C7.63672 44.6248 10.3728 47.3609 13.7478 47.3609Z" fill="#FFCC4D"/>
<path d="M54.995 0C54.995 0 39.7172 0 21.3839 15.2778C12.2172 22.9167 12.2172 36.6667 15.2728 39.7222C18.3283 42.7778 32.0783 42.7778 39.7172 33.6111C54.995 15.2778 54.995 0 54.995 0Z" fill="black"/>
<path d="M12.2227 42.7776C12.2227 42.7776 12.2227 36.6665 13.7504 35.1387C15.2782 33.6109 33.6131 18.3347 35.1393 19.8609C36.6656 21.3872 21.3878 39.7221 19.86 41.2498C18.3322 42.7776 12.2227 42.7776 12.2227 42.7776Z" fill="#E81899"/>
<path d="M45.472 22.0646L46.2687 16.8251C46.3553 16.2558 46.1944 15.702 45.8572 15.2781C45.7807 15.1814 45.7536 15.0538 45.7861 14.9347C45.8178 14.8148 45.9052 14.7182 46.0204 14.6725C46.5239 14.4737 46.9409 14.0754 47.1497 13.5386L49.0795 8.60308C49.3665 7.87061 49.1916 7.03838 48.6355 6.48222C48.0794 5.92611 47.2464 5.75209 46.5147 6.03825L41.5792 7.96808C41.0431 8.1777 40.644 8.59381 40.4453 9.09732C40.3996 9.21256 40.3022 9.29919 40.183 9.33168C40.0632 9.3634 39.9363 9.33713 39.8396 9.26053C39.4157 8.9233 38.862 8.76243 38.2927 8.84905L33.0532 9.64574C32.2759 9.76409 31.6424 10.331 31.4382 11.0906C31.2355 11.8501 31.5008 12.6584 32.1142 13.1495L36.253 16.4592C36.7024 16.8189 37.2624 16.9566 37.7977 16.8761C37.9198 16.8576 38.0444 16.8986 38.1318 16.9859C38.2192 17.0734 38.2594 17.1971 38.2416 17.3201C38.1612 17.8554 38.2989 18.4153 38.6585 18.8647L41.9682 23.0036C42.4586 23.6177 43.2669 23.883 44.0272 23.6795C44.7867 23.4754 45.3537 22.8419 45.472 22.0646ZM42.1198 9.37038L47.0615 7.43901C47.2386 7.37016 47.4397 7.41192 47.5736 7.54576C47.7074 7.67954 47.7491 7.88064 47.6803 8.05776L45.7489 12.9995C45.6878 13.1549 45.5525 13.2702 45.3885 13.3043C45.2245 13.3383 45.0551 13.288 44.936 13.1689L41.9497 10.1825C41.8313 10.0641 41.7802 9.894 41.8143 9.73002C41.8483 9.56604 41.9636 9.43068 42.119 9.36962L42.1198 9.37038ZM37.6607 15.3748C37.5014 15.4274 37.3266 15.3949 37.1959 15.2905L33.0532 11.977C32.9055 11.8586 32.8405 11.6637 32.8892 11.4804C32.938 11.2971 33.0911 11.1609 33.2791 11.1323L38.5239 10.3349C38.6895 10.3101 38.8565 10.3689 38.9679 10.4942C39.0801 10.6187 39.1211 10.7912 39.0778 10.9537L39.0762 10.9598L37.9864 15.0275L37.9848 15.0337C37.9415 15.1962 37.8193 15.3245 37.6607 15.3764V15.3748ZM40.1745 15.5558C40.0021 15.6014 39.818 15.5535 39.6911 15.4266C39.5651 15.3006 39.5156 15.1165 39.5612 14.944L40.3981 11.8192C40.4437 11.6467 40.579 11.5114 40.7515 11.4657C40.924 11.42 41.1081 11.468 41.235 11.5949L43.5221 13.882C43.6482 14.0081 43.6985 14.1914 43.6521 14.3647C43.6056 14.5379 43.4711 14.6725 43.2986 14.7182L40.1745 15.5558ZM43.6381 22.2293C43.4548 22.278 43.2599 22.2146 43.1408 22.0661L39.8272 17.9234C39.7228 17.7927 39.6903 17.6179 39.7429 17.4585C39.7956 17.2992 39.9239 17.177 40.0856 17.1344L40.0918 17.1329L44.1594 16.0431L44.1657 16.0415C44.3281 15.9982 44.5005 16.0392 44.6251 16.1514C44.7496 16.2636 44.8092 16.4298 44.7844 16.5953L43.987 21.8403C43.9583 22.0282 43.8214 22.1806 43.6389 22.2301L43.6381 22.2293Z" fill="#E81899"/>
</g>
</g>
<defs>
<clipPath id="clip0_1079_3261">
<rect width="55" height="55" fill="white"/>
</clipPath>
</defs>
</svg>
