<svg width="80" height="80" viewBox="0 0 80 80" fill="none" xmlns="http://www.w3.org/2000/svg">
<path d="M28.736 19.0813L17.8208 21.7063L13.495 27.7331C11.1244 31.0545 8.99498 34.0277 8.78069 34.3491L8.37891 34.9384V39.9875V45.0366L8.78069 45.6259C8.99498 45.9473 11.1244 48.9205 13.495 52.2419L17.8208 58.2687L28.8699 60.9205L39.919 63.5723L50.0976 61.1482C55.6958 59.8223 60.7047 58.6169 61.2136 58.4964L62.1511 58.2553L66.8654 51.6928L71.5797 45.1437V39.9875V34.8313L66.8654 28.2822C62.5797 22.3224 62.1109 21.7063 61.6824 21.5991C59.5797 21.05 40.0262 16.4161 39.8654 16.4295C39.7449 16.4429 34.736 17.6349 28.736 19.0813ZM50.4324 20.6483C56.9681 22.2152 61.0261 23.2331 61.1734 23.367C61.535 23.7152 69.6243 35.0857 69.6243 35.2464C69.6243 35.4071 61.6957 46.5098 61.227 47.0187C60.9859 47.2732 59.2716 47.7152 50.4324 49.8044L39.919 52.2955L29.4324 49.791C23.553 48.3714 18.8655 47.1794 18.7717 47.0723C18.1557 46.4428 10.2673 35.2464 10.3477 35.1125C10.6423 34.617 18.6244 23.5411 18.7985 23.367C18.9458 23.2465 22.361 22.3625 27.5976 21.117C34.5619 19.4697 37.5217 18.7465 39.852 18.1706C39.8922 18.1572 44.6467 19.2822 50.4324 20.6483ZM14.3253 42.117L18.2896 47.6482L18.2628 51.7598L18.2226 55.8714L14.178 50.2196L10.12 44.5678V40.4429C10.12 38.0321 10.1735 36.3714 10.2405 36.4384C10.3075 36.5188 12.1423 39.0634 14.3253 42.117ZM65.8073 50.2196L61.7493 55.8714L61.7091 51.7598L61.6824 47.6482L65.727 41.9964L69.785 36.3446L69.8252 40.4562L69.852 44.5544L65.8073 50.2196ZM29.5798 50.5143L39.5842 52.9116V57.3178V61.7107L39.2896 61.6437C39.1154 61.5901 35.9146 60.8267 32.1512 59.9294C28.4012 59.0321 23.9012 57.9607 22.1735 57.5455L19.0262 56.7821L18.986 52.3893L18.9592 47.9964L19.2539 48.05C19.428 48.0902 24.0619 49.1884 29.5798 50.5143ZM61.0127 52.3625C61.0127 54.7598 60.9725 56.7419 60.919 56.7687C60.852 56.8089 56.352 57.8937 50.9011 59.2062C45.4502 60.5053 40.8565 61.6035 40.6958 61.6437L40.3878 61.7107V57.3178V52.9116L50.5395 50.4741C56.1109 49.1348 60.7583 48.0366 60.852 48.0366C60.9725 48.0232 61.0127 48.9741 61.0127 52.3625Z" fill="#22282B"/>
<path d="M30.9485 22.7905C26.2342 23.9155 22.3637 24.853 22.3503 24.853C22.3369 24.853 20.6628 27.1834 18.6137 30.0226C15.3191 34.6298 14.9173 35.2325 15.0646 35.4601C15.3459 35.9155 22.0691 45.2637 22.2432 45.4512C22.4173 45.6387 39.3994 49.7637 40.0021 49.7637C40.3771 49.7637 57.0244 45.8262 57.4663 45.6253C57.6806 45.5315 64.0824 36.786 64.8993 35.4869C65.0601 35.2191 64.8056 34.8173 61.3636 30.036C59.3279 27.1968 57.5601 24.8396 57.4261 24.7994C57.3056 24.7593 54.5199 24.0896 51.2387 23.3128C47.9574 22.5361 44.1539 21.6253 42.7878 21.2905C41.4217 20.9691 40.1226 20.7012 39.9083 20.7146C39.694 20.7146 35.6628 21.6521 30.9485 22.7905ZM39.5869 22.6968C39.5869 23.8218 39.5735 23.8887 39.2923 23.9557C36.5333 24.6521 23.2075 27.7994 23.0601 27.7994C22.886 27.7994 22.8459 27.5985 22.8459 26.6209V25.4423L27.5066 24.3307C30.0646 23.7146 33.7208 22.8307 35.636 22.3753C37.5512 21.9066 39.2253 21.5316 39.3592 21.5182C39.5601 21.5048 39.5869 21.6521 39.5869 22.6968ZM48.8279 23.4468C53.2878 24.5182 56.9842 25.3887 57.0378 25.3887C57.0913 25.3887 57.1315 25.9244 57.1315 26.5941C57.1315 27.545 57.0913 27.7994 56.944 27.7994C56.8369 27.7994 53.1003 26.9289 48.6404 25.8575C44.1672 24.786 40.4842 23.9155 40.4574 23.9155C40.4173 23.9155 40.3905 23.3664 40.3905 22.7102C40.3905 21.8798 40.444 21.5048 40.5512 21.5048C40.6315 21.5048 44.3547 22.3753 48.8279 23.4468ZM48.7744 26.6075C53.4083 27.7057 57.2386 28.6566 57.2922 28.7101C57.3458 28.7637 58.6717 30.6119 60.252 32.8084L63.1181 36.8128L60.1851 40.911L57.2386 45.0092L48.6271 47.0717L40.0155 49.1342L31.3771 47.0717L22.7387 45.0092L19.8325 40.9512C18.0914 38.5271 16.953 36.8262 16.9932 36.7057C17.0334 36.6119 18.3459 34.7369 19.8994 32.5673L22.7387 28.6164L24.828 28.1209C25.9932 27.853 29.7566 26.9557 33.2253 26.1119C36.694 25.2816 39.7074 24.5985 39.9351 24.5985C40.1628 24.5852 44.1405 25.4959 48.7744 26.6075ZM19.3503 32.1655C17.7968 34.3351 16.4575 36.0896 16.3905 36.0762C16.3236 36.0494 16.1494 35.8485 16.0155 35.6208L15.7477 35.2057L18.9352 30.7726L22.1093 26.3262L22.1494 27.2637L22.1896 28.2146L19.3503 32.1655ZM61.0422 30.7459C62.6895 33.0628 64.0958 35.045 64.1493 35.1253C64.2431 35.286 63.7342 36.103 63.5467 36.103C63.4931 36.103 62.1806 34.3351 60.627 32.1655L57.8011 28.228V27.2503C57.8011 26.7012 57.8547 26.3262 57.9083 26.3932C57.9752 26.4735 59.3815 28.4289 61.0422 30.7459Z" fill="#22282B"/>
<path d="M42.423 31.7908L37.0391 33.3578L34.2266 36.6123L31.4141 39.8667V40.8042C31.4141 41.9292 31.4944 41.9828 32.6596 41.6614C35.2578 40.9381 42.7444 38.7417 42.8783 38.6748C42.9587 38.6212 44.2846 37.148 45.798 35.3801L48.5703 32.1792L48.5301 31.2283C48.4899 30.3176 48.4765 30.2774 48.1551 30.2507C47.9676 30.2373 45.3962 30.9337 42.423 31.7908ZM47.0033 31.3087C46.9497 31.4024 45.9453 32.581 44.7667 33.9337L42.6506 36.3712L42.0881 36.0498C39.2221 34.389 38.4319 33.9203 38.3382 33.8399C38.2846 33.773 38.8873 33.5453 39.6774 33.3042C40.4676 33.0766 42.4498 32.5007 44.0703 32.0319C45.6908 31.5632 47.0301 31.1614 47.0569 31.1614C47.0837 31.148 47.0569 31.2283 47.0033 31.3087ZM47.8872 31.7373C47.8872 31.8712 44.4855 35.9426 43.1194 37.4292C43.0926 37.456 43.0658 37.3623 43.0658 37.2149C43.0658 37.0676 43.5614 36.3846 44.164 35.6882C46.6149 32.8489 47.7667 31.5498 47.8203 31.5498C47.8605 31.5498 47.8872 31.6301 47.8872 31.7373ZM39.7176 35.4739C40.5614 35.956 41.3783 36.4381 41.5123 36.5453C41.7801 36.7328 41.7801 36.7462 41.5123 36.8131C41.3783 36.8533 39.4498 37.4158 37.2399 38.0453C35.0301 38.6748 33.1417 39.2239 33.048 39.2506C32.7801 39.3444 32.9275 39.1569 35.2042 36.5319L37.3337 34.0944L37.7489 34.3489C37.9899 34.4828 38.8739 34.9917 39.7176 35.4739ZM42.3694 37.7373L42.3292 38.1658L37.5748 39.5453C31.5212 41.2864 32.0837 41.1792 32.0837 40.6703C32.0837 40.2953 32.1373 40.2417 32.8605 40.0408C35.7935 39.1703 42.2087 37.3221 42.3024 37.3221C42.3694 37.3087 42.3962 37.4962 42.3694 37.7373Z" fill="#E81899"/>
<g opacity="0.1">
<g filter="url(#filter0_f_1079_3197)">
<ellipse cx="12.248" cy="20.1722" rx="12.248" ry="20.1722" transform="matrix(-0.0370296 0.999314 0.999314 0.0370296 23.3477 22.2324)" fill="url(#paint0_linear_1079_3197)"/>
</g>
<g filter="url(#filter1_f_1079_3197)">
<ellipse cx="8.96196" cy="14.7601" rx="8.96196" ry="14.7601" transform="matrix(-0.0370296 0.999314 0.999314 0.0370296 20.6602 29.6367)" fill="url(#paint1_linear_1079_3197)"/>
</g>
</g>
<defs>
<filter id="filter0_f_1079_3197" x="13.0505" y="13.1169" width="60.0044" height="44.2056" filterUnits="userSpaceOnUse" color-interpolation-filters="sRGB">
<feFlood flood-opacity="0" result="BackgroundImageFix"/>
<feBlend mode="normal" in="SourceGraphic" in2="BackgroundImageFix" result="shape"/>
<feGaussianBlur stdDeviation="4.92005" result="effect1_foregroundBlur_1079_3197"/>
</filter>
<filter id="filter1_f_1079_3197" x="15.4042" y="25.246" width="39.3479" height="27.7854" filterUnits="userSpaceOnUse" color-interpolation-filters="sRGB">
<feFlood flood-opacity="0" result="BackgroundImageFix"/>
<feBlend mode="normal" in="SourceGraphic" in2="BackgroundImageFix" result="shape"/>
<feGaussianBlur stdDeviation="2.46002" result="effect1_foregroundBlur_1079_3197"/>
</filter>
<linearGradient id="paint0_linear_1079_3197" x1="12.248" y1="0" x2="12.248" y2="40.3444" gradientUnits="userSpaceOnUse">
<stop stop-color="#FF7BCA"/>
<stop offset="1" stop-color="#FFC56F" stop-opacity="0.46"/>
</linearGradient>
<linearGradient id="paint1_linear_1079_3197" x1="8.96196" y1="0" x2="8.96196" y2="29.5203" gradientUnits="userSpaceOnUse">
<stop stop-color="#F22FB0"/>
<stop offset="1" stop-color="#F58A25" stop-opacity="0"/>
<stop offset="1" stop-color="#7061A3"/>
</linearGradient>
</defs>
</svg>
