<svg width="254" height="227" viewBox="0 0 254 227" fill="none" xmlns="http://www.w3.org/2000/svg">
<path d="M247.876 183.065L204.489 124.118C199.775 117.713 192.796 113.875 185.363 113.029C183.671 112.833 182.161 111.851 181.315 110.371C180.454 108.89 180.363 107.092 181.043 105.521C184.019 98.6628 184.2 90.7015 180.998 83.42L151.645 16.3758C147.294 6.4204 137.46 0 126.598 0C115.736 0 105.901 6.43551 101.551 16.3758L72.1981 83.42C69.0106 90.7015 69.1768 98.6628 72.1528 105.521C72.8326 107.092 72.7269 108.89 71.8809 110.371C71.0198 111.851 69.5242 112.833 67.8322 113.029C60.3997 113.875 53.4203 117.713 48.707 124.118L5.32016 183.065C-1.11536 191.812 -1.76496 203.535 3.6584 212.946C9.09686 222.343 19.581 227.645 30.3673 226.452L103.107 218.354C111.008 217.478 117.821 213.354 122.262 207.341C123.274 205.967 124.891 205.151 126.598 205.151C128.305 205.151 129.906 205.967 130.934 207.341C135.375 213.354 142.188 217.478 150.089 218.354L222.828 226.452C233.615 227.66 244.099 222.358 249.537 212.946C254.961 203.535 254.311 191.812 247.876 183.065ZM91.1723 91.8345L120.57 24.7148C121.628 22.3128 123.999 20.7568 126.613 20.7568C129.226 20.7568 131.598 22.3128 132.656 24.7148L162.054 91.8345C162.975 93.9494 162.779 96.3967 161.51 98.3304C160.241 100.264 158.096 101.427 155.769 101.427H97.4416C95.1303 101.427 92.97 100.264 91.7011 98.3304C90.4321 96.3967 90.2357 93.9494 91.1572 91.8345H91.1723ZM106.264 194.017C105.222 196.087 103.197 197.477 100.901 197.733L28.0861 205.831C25.4877 206.118 22.9498 204.849 21.6355 202.583C20.3212 200.317 20.4874 197.492 22.0434 195.377L65.4756 136.369C66.8503 134.511 69.0559 133.454 71.3673 133.59C73.6786 133.711 75.7633 134.995 76.9266 137.004L76.9719 137.079L106.053 187.446L106.098 187.521C107.261 189.53 107.322 191.978 106.279 194.032L106.264 194.017ZM132.58 171.236C131.341 173.366 129.075 174.696 126.598 174.696C124.135 174.696 121.854 173.381 120.616 171.251L98.2725 132.563C97.0338 130.432 97.0338 127.789 98.2725 125.659C99.5113 123.529 101.777 122.199 104.255 122.199H148.926C151.388 122.199 153.669 123.498 154.908 125.644C156.147 127.789 156.147 130.417 154.908 132.547L132.58 171.236ZM231.575 202.583C230.261 204.849 227.738 206.133 225.125 205.846L152.31 197.749C150.013 197.492 147.989 196.102 146.947 194.032C145.904 191.963 145.965 189.515 147.128 187.521L147.173 187.446L176.254 137.079L176.299 137.004C177.463 134.995 179.547 133.711 181.859 133.59C184.17 133.469 186.376 134.511 187.75 136.369L231.182 195.377C232.738 197.492 232.89 200.317 231.59 202.583H231.575Z" fill="#E81899"/>
</svg>
