<svg>
    <!-- Logo -->
    
    <symbol id="logo" viewBox="0 0 91 26" fill="none" xmlns="http://www.w3.org/2000/svg">
        <path d="M50.7588 20.4417C50.3092 21.0817 49.7125 21.5573 48.9688 21.8686C48.225 22.1627 47.3948 22.3097 46.4782 22.3097C45.7518 22.3097 45.0859 22.2232 44.4805 22.0502C43.8925 21.8773 43.3736 21.6179 42.9239 21.2719C42.4742 20.9087 42.1197 20.4677 41.8602 19.9488C41.6008 19.4127 41.4711 18.8073 41.4711 18.1328C41.4711 17.3891 41.6181 16.7578 41.9121 16.2389C42.2062 15.7027 42.604 15.2704 43.1055 14.9417C43.6244 14.6131 44.2298 14.371 44.9216 14.2153C45.6134 14.0424 46.3398 13.9559 47.1008 13.9559H50.6032C50.6032 12.9527 50.3783 12.1744 49.9287 11.621C49.479 11.0675 48.692 10.7821 47.5678 10.7648C46.9106 10.7648 46.3398 10.8773 45.8555 11.1021C45.3886 11.327 45.0772 11.6988 44.9216 12.2177H41.8862C41.99 11.4913 42.2235 10.8773 42.5867 10.3757C42.9672 9.87412 43.4169 9.45902 43.9357 9.13041C44.4719 8.80179 45.0599 8.5683 45.6999 8.42993C46.3571 8.29157 47.0143 8.22239 47.6716 8.22239C48.5191 8.22239 49.306 8.33481 50.0324 8.55965C50.7588 8.78449 51.3901 9.165 51.9263 9.70116C52.5316 10.3238 52.9381 11.0675 53.1456 11.9323C53.3532 12.7971 53.457 13.7397 53.457 14.7601V22.1281H50.8886L50.7588 20.4417ZM50.6032 16.0573H47.7494C47.2478 16.0573 46.7463 16.1005 46.2447 16.187C45.7431 16.2562 45.3107 16.4378 44.9475 16.7318C44.6016 17.0086 44.4286 17.415 44.4286 17.9512C44.4286 18.6084 44.6621 19.11 45.1291 19.4559C45.6134 19.7845 46.2014 19.9488 46.8933 19.9488C47.4294 19.9488 47.9224 19.8796 48.3721 19.7413C48.839 19.6029 49.2368 19.3781 49.5654 19.0667C49.8941 18.7381 50.1449 18.3317 50.3178 17.8474C50.5081 17.3458 50.6032 16.7491 50.6032 16.0573Z" fill="#0B101B"/>
        <g>
            <path d="M58.3189 2.77426C58.8551 2.77426 59.2961 2.93857 59.642 3.26719C60.0053 3.5958 60.1869 4.04549 60.1869 4.61625C60.1869 5.16971 60.0053 5.61075 59.642 5.93936C59.2961 6.26798 58.8551 6.43229 58.3189 6.43229C57.7482 6.43229 57.2898 6.26798 56.9439 5.93936C56.598 5.61075 56.4251 5.16971 56.4251 4.61625C56.4251 4.04549 56.598 3.5958 56.9439 3.26719C57.2898 2.93857 57.7482 2.77426 58.3189 2.77426ZM56.8142 22.1281V8.45588H59.7718V22.1281H56.8142Z" fill="#0B101B"/>
            <path d="M83.2775 8.22239C84.3672 8.22239 85.3271 8.39534 86.1573 8.74125C86.9874 9.08717 87.6879 9.57144 88.2587 10.1941C88.8467 10.7994 89.2878 11.5345 89.5818 12.3993C89.8758 13.2641 90.0228 14.224 90.0228 15.279C90.0228 16.3513 89.8758 17.3199 89.5818 18.1847C89.3051 19.0322 88.8813 19.7672 88.3106 20.3899C87.7398 21.0125 87.0307 21.4881 86.1832 21.8168C85.353 22.1454 84.3844 22.3097 83.2775 22.3097C82.1879 22.3097 81.228 22.1454 80.3978 21.8168C79.5676 21.4708 78.8671 20.9952 78.2964 20.3899C77.7429 19.7672 77.3192 19.0235 77.0252 18.1587C76.7484 17.2939 76.6101 16.334 76.6101 15.279C76.6101 14.224 76.7484 13.2641 77.0252 12.3993C77.3192 11.5345 77.7516 10.7994 78.3223 10.1941C78.8931 9.57144 79.5936 9.08717 80.4238 8.74125C81.2539 8.39534 82.2052 8.22239 83.2775 8.22239ZM83.2775 19.7413C83.9521 19.7413 84.5228 19.6289 84.9898 19.404C85.4741 19.1619 85.8632 18.8419 86.1573 18.4441C86.4686 18.0463 86.6934 17.5793 86.8318 17.0432C86.9874 16.507 87.0653 15.9276 87.0653 15.3049C87.0653 14.6823 86.9874 14.1029 86.8318 13.5667C86.6934 13.0133 86.4686 12.5376 86.1573 12.1398C85.8632 11.742 85.4741 11.4307 84.9898 11.2059C84.5228 10.981 83.9521 10.8686 83.2775 10.8686C82.6203 10.8686 82.0582 10.981 81.5912 11.2059C81.1242 11.4307 80.7351 11.742 80.4238 12.1398C80.1124 12.5376 79.8789 13.0133 79.7233 13.5667C79.5849 14.1029 79.5157 14.6823 79.5157 15.3049C79.5157 15.9276 79.5849 16.507 79.7233 17.0432C79.8789 17.5793 80.1038 18.0463 80.3978 18.4441C80.7091 18.8419 81.0983 19.1619 81.5653 19.404C82.0495 19.6289 82.6203 19.7413 83.2775 19.7413Z" fill="#0B101B"/>
            <path d="M68.2534 14.0337H66.126V4.32852H63.1944V22.1281H66.126V16.6021H68.435L72.0411 22.1281H75.4657L70.7959 14.9677L75.1025 8.45587H71.7817L68.2534 14.0337Z" fill="#0B101B"/>
            <path d="M39.4712 8.41703H35.9693V4.32852H35.0643L30.8085 10.1108V10.8585H32.9939V17.6255C32.9939 19.2229 33.3538 20.3727 34.0735 21.0748C34.8107 21.777 36.0307 22.128 37.7334 22.128H39.3659V19.5476H37.9967C37.2068 19.5476 36.6714 19.3545 36.3906 18.9684C36.1097 18.5822 35.9693 17.9941 35.9693 17.2042V10.8585H39.4712V8.41703Z" fill="#0B101B"/>
            <path d="M26.931 20.8367L22.2171 14.4323C21.705 13.7364 20.9468 13.3195 20.1392 13.2276C19.9554 13.2063 19.7913 13.0996 19.6994 12.9387C19.6058 12.7779 19.5959 12.5826 19.6698 12.4119C19.9931 11.6667 20.0128 10.8017 19.6649 10.0106L16.4758 2.72645C16.0031 1.64482 14.9346 0.947266 13.7545 0.947266C12.5744 0.947266 11.5059 1.64647 11.0332 2.72645L7.84412 10.0106C7.49781 10.8017 7.51586 11.6667 7.8392 12.4119C7.91306 12.5826 7.90157 12.7779 7.80966 12.9387C7.7161 13.0996 7.55361 13.2063 7.36978 13.2276C6.56225 13.3195 5.80397 13.7364 5.29188 14.4323L0.57802 20.8367C-0.12118 21.7871 -0.191758 23.0607 0.397475 24.0833C0.988348 25.1042 2.12742 25.6803 3.29932 25.5506L11.2023 24.6709C12.0607 24.5757 12.8009 24.1276 13.2834 23.4743C13.3934 23.325 13.569 23.2363 13.7545 23.2363C13.94 23.2363 14.114 23.325 14.2256 23.4743C14.7081 24.1276 15.4483 24.5757 16.3068 24.6709L24.2097 25.5506C25.3816 25.6819 26.5207 25.1058 27.1115 24.0833C27.7008 23.0607 27.6302 21.7871 26.931 20.8367ZM9.90562 10.9248L13.0996 3.63246C13.2145 3.37149 13.4722 3.20243 13.7561 3.20243C14.0401 3.20243 14.2978 3.37149 14.4127 3.63246L17.6067 10.9248C17.7068 11.1546 17.6855 11.4205 17.5476 11.6306C17.4097 11.8407 17.1766 11.9671 16.9239 11.9671H10.5868C10.3356 11.9671 10.1009 11.8407 9.96306 11.6306C9.82519 11.4205 9.80385 11.1546 9.90397 10.9248H9.90562ZM11.5453 22.0267C11.432 22.2516 11.2121 22.4026 10.9626 22.4305L3.05148 23.3102C2.76917 23.3414 2.49343 23.2035 2.35064 22.9573C2.20784 22.7111 2.2259 22.4042 2.39495 22.1744L7.11374 15.7634C7.2631 15.5615 7.50273 15.4467 7.75385 15.4614C8.00498 15.4746 8.23148 15.6141 8.35786 15.8324L8.36278 15.8406L11.5223 21.3127L11.5272 21.3209C11.6536 21.5392 11.6602 21.8051 11.5469 22.0283L11.5453 22.0267ZM14.4045 19.5516C14.2699 19.783 14.0237 19.9274 13.7545 19.9274C13.487 19.9274 13.2391 19.7847 13.1045 19.5532L10.677 15.3498C10.5424 15.1184 10.5424 14.8312 10.677 14.5997C10.8116 14.3683 11.0578 14.2239 11.327 14.2239H16.1804C16.4479 14.2239 16.6957 14.365 16.8303 14.5981C16.9649 14.8312 16.9649 15.1167 16.8303 15.3482L14.4045 19.5516ZM25.16 22.9573C25.0172 23.2035 24.7431 23.343 24.4592 23.3118L16.548 22.4321C16.2985 22.4042 16.0786 22.2532 15.9654 22.0283C15.8521 21.8035 15.8587 21.5376 15.9851 21.3209L15.99 21.3127L19.1495 15.8406L19.1544 15.8324C19.2808 15.6141 19.5073 15.4746 19.7584 15.4614C20.0096 15.4483 20.2492 15.5615 20.3986 15.7634L25.1173 22.1744C25.2864 22.4042 25.3028 22.7111 25.1617 22.9573H25.16Z" fill="#E81899"/>
        </g>
    </symbol>

    <!-- Socials -->

    <symbol id="socials:github" version="1.1" xmlns="http://www.w3.org/2000/svg" x="0px" y="0px" viewBox="0 0 98 96" style="enable-background:new 0 0 98 96;" xml:space="preserve">
        <g>
            <ellipse fill="white" class="st0" cx="49" cy="48" rx="46.8" ry="48"/>
            <path class="st1" d="M49,0C22.7,0,1.4,21.5,1.4,48C1.4,69.2,15,87.2,34,93.5c2.4,0.5,3.2-1,3.2-2.3c0-1.1-0.1-4.9-0.1-8.9
                c-13.3,2.9-16-5.7-16-5.7c-2.1-5.6-5.3-7-5.3-7c-4.3-2.9,0.3-2.9,0.3-2.9c4.8,0.3,7.3,4.9,7.3,4.9c4.3,7.3,11.1,5.2,13.9,4
                c0.4-3.1,1.7-5.2,3-6.4C29.8,68,18.7,63.9,18.7,45.4c0-5.2,1.9-9.5,4.9-12.9c-0.5-1.2-2.1-6.1,0.5-12.7c0,0,4-1.3,13.1,4.9
                C41,23.7,45,23.2,49,23.2c4,0,8.1,0.6,11.9,1.6C70,18.6,74,19.9,74,19.9c2.6,6.6,0.9,11.5,0.5,12.7c3.1,3.3,4.9,7.6,4.9,12.9
                c0,18.4-11.1,22.5-21.8,23.7c1.7,1.5,3.2,4.4,3.2,8.9c0,6.4-0.1,11.6-0.1,13.2c0,1.3,0.9,2.8,3.2,2.3C83,87.2,96.6,69.2,96.6,48
                C96.7,21.5,75.3,0,49,0z"/>
        </g>
    </symbol>

    <symbol id="socials:discord" viewBox="0 0 32 32" fill="none" xmlns="http://www.w3.org/2000/svg">
        <circle cx="16" cy="16" r="16" fill="#0B101B"/>
        <g clip-path="url(#clip0_899_11352)">
            <path d="M23.5626 8.83997C22.1756 8.20497 20.7114 7.75448 19.2073 7.5C19.0015 7.86793 18.8152 8.24649 18.6494 8.63408C17.0472 8.39266 15.418 8.39266 13.8158 8.63408C13.6499 8.24653 13.4637 7.86798 13.2579 7.5C11.7529 7.75662 10.2877 8.20819 8.89926 8.8433C6.14293 12.9213 5.39574 16.8981 5.76934 20.8184C7.38351 22.011 9.19023 22.918 11.111 23.5C11.5435 22.9183 11.9262 22.3012 12.255 21.6553C11.6304 21.422 11.0276 21.1342 10.4534 20.7951C10.6045 20.6856 10.7523 20.5726 10.8951 20.4631C12.5657 21.2487 14.389 21.656 16.2351 21.656C18.0812 21.656 19.9045 21.2487 21.5751 20.4631C21.7195 20.5809 21.8673 20.6939 22.0167 20.7951C21.4415 21.1347 20.8376 21.4231 20.2118 21.6569C20.5403 22.3026 20.923 22.9192 21.3559 23.5C23.2783 22.9204 25.0864 22.0138 26.7008 20.82C27.1392 16.2738 25.952 12.3335 23.5626 8.83997ZM12.7282 18.4074C11.6871 18.4074 10.827 17.4626 10.827 16.3003C10.827 15.138 11.6573 14.1849 12.7249 14.1849C13.7926 14.1849 14.646 15.138 14.6278 16.3003C14.6095 17.4626 13.7893 18.4074 12.7282 18.4074ZM19.7419 18.4074C18.6992 18.4074 17.8424 17.4626 17.8424 16.3003C17.8424 15.138 18.6726 14.1849 19.7419 14.1849C20.8113 14.1849 21.6581 15.138 21.6398 16.3003C21.6216 17.4626 20.803 18.4074 19.7419 18.4074Z" fill="white"/>
        </g>
        <defs>
            <clipPath id="clip0_899_11352">
                <rect width="21.1108" height="16" fill="white" transform="translate(5.67969 7.5)"/>
            </clipPath>
        </defs>
    </symbol>

    <symbol id="socials:twitter" viewBox="0 0 32 32" fill="none" xmlns="http://www.w3.org/2000/svg">
    <circle cx="16" cy="16" r="16" fill='black'/>
    <g id="layer1" transform="translate(-6.28 -2.33) scale(0.028935)">
        <path fill="#FFFFFF" id="path1009" class="st1"
d="M485.39,356.79l230.07,307.62L483.94,914.52h52.11l202.7-218.98l163.77,218.98h177.32 L836.82,589.6l215.5-232.81h-52.11L813.54,558.46L662.71,356.79H485.39z M562.02,395.17h81.46l359.72,480.97h-81.46L562.02,395.17z"/>
    </g>
    </symbol>

    <symbol id="gsocial:taiko" viewBox="0 0 34 34" xmlns="http://www.w3.org/2000/svg">
        <path d="M33.0565 26.2345L27.3129 18.431C26.6889 17.5831 25.765 17.0751 24.781 16.9631C24.5571 16.9371 24.3571 16.8071 24.2451 16.6111C24.1311 16.4151 24.1191 16.1771 24.2091 15.9692C24.6031 15.0612 24.6271 14.0073 24.2031 13.0433L20.3173 4.16787C19.7413 2.84995 18.4394 2 17.0015 2C15.5636 2 14.2617 2.85195 13.6857 4.16787L9.79995 13.0433C9.37797 14.0073 9.39997 15.0612 9.79395 15.9692C9.88394 16.1771 9.86994 16.4151 9.75795 16.6111C9.64396 16.8071 9.44596 16.9371 9.22198 16.9631C8.23804 17.0751 7.3141 17.5831 6.69014 18.431L0.946483 26.2345C0.094534 27.3925 0.00853797 28.9444 0.726495 30.1903C1.44645 31.4342 2.83436 32.1362 4.26228 31.9782L13.8917 30.9063C14.9376 30.7903 15.8396 30.2443 16.4276 29.4483C16.5615 29.2664 16.7755 29.1584 17.0015 29.1584C17.2275 29.1584 17.4395 29.2664 17.5755 29.4483C18.1634 30.2443 19.0654 30.7903 20.1113 30.9063L29.7407 31.9782C31.1687 32.1382 32.5566 31.4362 33.2765 30.1903C33.9945 28.9444 33.9085 27.3925 33.0565 26.2345ZM12.3118 14.1573L16.2036 5.2718C16.3436 4.95382 16.6575 4.74783 17.0035 4.74783C17.3495 4.74783 17.6635 4.95382 17.8035 5.2718L21.6952 14.1573C21.8172 14.4373 21.7912 14.7612 21.6232 15.0172C21.4552 15.2732 21.1713 15.4272 20.8633 15.4272H13.1417C12.8358 15.4272 12.5498 15.2732 12.3818 15.0172C12.2138 14.7612 12.1878 14.4373 12.3098 14.1573H12.3118ZM14.3097 27.6845C14.1717 27.9584 13.9037 28.1424 13.5997 28.1764L3.96029 29.2484C3.61632 29.2864 3.28034 29.1184 3.10635 28.8184C2.93236 28.5184 2.95436 28.1444 3.16034 27.8644L8.91 20.0529C9.09199 19.8069 9.38397 19.6669 9.68996 19.6849C9.99594 19.7009 10.2719 19.8709 10.4259 20.1369L10.4319 20.1469L14.2817 26.8145L14.2877 26.8245C14.4417 27.0905 14.4497 27.4145 14.3117 27.6865L14.3097 27.6845ZM17.7935 24.6686C17.6295 24.9506 17.3295 25.1266 17.0015 25.1266C16.6755 25.1266 16.3736 24.9526 16.2096 24.6706L13.2517 19.5489C13.0877 19.267 13.0877 18.917 13.2517 18.635C13.4157 18.353 13.7157 18.177 14.0437 18.177H19.9573C20.2833 18.177 20.5853 18.349 20.7493 18.633C20.9133 18.917 20.9133 19.265 20.7493 19.5469L17.7935 24.6686ZM30.8987 28.8184C30.7247 29.1184 30.3907 29.2884 30.0447 29.2504L20.4053 28.1784C20.1013 28.1444 19.8333 27.9604 19.6954 27.6865C19.5574 27.4125 19.5654 27.0885 19.7193 26.8245L19.7254 26.8145L23.5751 20.1469L23.5811 20.1369C23.7351 19.8709 24.0111 19.7009 24.3171 19.6849C24.6231 19.6689 24.915 19.8069 25.097 20.0529L30.8467 27.8644C31.0527 28.1444 31.0727 28.5184 30.9007 28.8184H30.8987Z" />
    </symbol>
    
    <symbol id="gsocial:twitter" viewBox="0 0 26 25" xmlns="http://www.w3.org/2000/svg">
        <path d="M19.5014 1.99219H22.9675L15.395 10.647L24.3034 22.4243H17.3282L11.865 15.2815L5.61381 22.4243H2.14558L10.2451 13.167L1.69922 1.99219H8.85151L13.7898 8.52104L19.5014 1.99219ZM18.2849 20.3497H20.2055L7.8079 3.95786H5.74688L18.2849 20.3497Z" />
    </symbol>

    <symbol id="gsocial:mirror" viewBox="0 0 24 24" xmlns="http://www.w3.org/2000/svg">
        <g clip-path="url(#clip0_3002_2821)">
            <rect width="23.2086" height="23.2086" transform="translate(0.320312 0.757812)"/>
            <path d="M4.01953 12.292V19.6172H5.8327C7.50082 19.6172 7.64588 19.3996 7.7184 15.7733V12.0019L9.16894 15.7733C10.2568 18.5293 11.0546 19.6172 11.9975 19.6172C12.9403 19.6172 13.7381 18.5293 14.826 15.7733L16.2766 12.0019V15.7733C16.3491 19.3996 16.4942 19.6172 18.1623 19.6172H19.9755V12.292V5.03928L17.6546 5.25686C15.5513 5.47444 15.1161 5.9096 13.8107 9.24584C13.0129 11.3491 12.2151 13.0898 11.9975 13.0898C11.7799 13.0898 10.9821 11.3491 10.1843 9.24584C8.87883 5.9096 8.44367 5.47444 6.34039 5.25686L4.01953 5.03928V12.292Z" fill="white"/>
        </g>
        <defs>
            <clipPath id="clip0_3002_2821">
                <rect width="23.2086" height="23.2086" fill="white" transform="translate(0.394531 0.757812)"/>
            </clipPath>
        </defs>
    </symbol>

    <symbol id="gsocial:youtube" viewBox="0 0 26 27" xmlns="http://www.w3.org/2000/svg">
        <g clip-path="url(#clip0_3002_2826)">
            <path d="M25.4402 8.28588C25.4402 8.28588 25.1923 6.53574 24.4288 5.76727C23.462 4.75586 22.3811 4.7509 21.8854 4.6914C18.3355 4.43359 13.0058 4.43359 13.0058 4.43359H12.9958C12.9958 4.43359 7.66611 4.43359 4.11626 4.6914C3.62047 4.7509 2.53965 4.75586 1.57286 5.76727C0.809341 6.53574 0.566404 8.28588 0.566404 8.28588C0.566404 8.28588 0.308594 10.3434 0.308594 12.396V14.3196C0.308594 16.3722 0.561446 18.4297 0.561446 18.4297C0.561446 18.4297 0.809341 20.1799 1.5679 20.9483C2.53469 21.9598 3.80391 21.925 4.36911 22.0341C6.40185 22.2275 13.0008 22.287 13.0008 22.287C13.0008 22.287 18.3355 22.2771 21.8854 22.0242C22.3811 21.9647 23.462 21.9598 24.4288 20.9483C25.1923 20.1799 25.4402 18.4297 25.4402 18.4297C25.4402 18.4297 25.693 16.3772 25.693 14.3196V12.396C25.693 10.3434 25.4402 8.28588 25.4402 8.28588ZM10.3781 16.6548V9.52039L17.2348 13.1L10.3781 16.6548Z" />
        </g>
            <defs>
            <clipPath id="clip0_3002_2826">
            <rect width="25.3844" height="25.3844" fill="white" transform="translate(0.308594 0.671875)"/>
            </clipPath>
        </defs>
    </symbol>

    <symbol id="gsocial:discord" viewBox="0 0 28 27" xmlns="http://www.w3.org/2000/svg">
        <g clip-path="url(#clip0_3002_2830)">
            <g clip-path="url(#clip1_3002_2830)">
                <path d="M22.0414 5.87015C20.5622 5.18173 18.9759 4.67453 17.3174 4.38403C17.2872 4.37842 17.257 4.39244 17.2415 4.42046C17.0375 4.78848 16.8115 5.26859 16.6533 5.64596C14.8694 5.37509 13.0947 5.37509 11.3475 5.64596C11.1892 5.26021 10.955 4.78848 10.7501 4.42046C10.7345 4.39337 10.7044 4.37936 10.6742 4.38403C9.01656 4.6736 7.43032 5.1808 5.95018 5.87015C5.93737 5.87576 5.92639 5.88511 5.9191 5.89724C2.91033 10.4565 2.0861 14.9037 2.49044 19.2957C2.49227 19.3172 2.50416 19.3378 2.52063 19.3508C4.50573 20.8295 6.42863 21.7271 8.31583 22.3221C8.34604 22.3315 8.37804 22.3203 8.39726 22.295C8.84368 21.6767 9.24162 21.0247 9.58281 20.3391C9.60295 20.2989 9.58373 20.2513 9.54257 20.2354C8.91137 19.9925 8.31034 19.6964 7.73219 19.3602C7.68646 19.3331 7.6828 19.2667 7.72487 19.235C7.84653 19.1425 7.96823 19.0463 8.0844 18.9492C8.10542 18.9314 8.13471 18.9277 8.15942 18.9389C11.9576 20.6978 16.0696 20.6978 19.823 18.9389C19.8477 18.9267 19.877 18.9305 19.8989 18.9482C20.0151 19.0454 20.1368 19.1425 20.2594 19.235C20.3014 19.2667 20.2987 19.3331 20.253 19.3602C19.6748 19.703 19.0738 19.9925 18.4417 20.2345C18.4005 20.2503 18.3822 20.2989 18.4023 20.3391C18.7509 21.0238 19.1488 21.6757 19.587 22.2941C19.6053 22.3203 19.6382 22.3315 19.6684 22.3221C21.5648 21.7271 23.4877 20.8295 25.4728 19.3508C25.4901 19.3378 25.5011 19.3181 25.503 19.2967C25.9869 14.219 24.6924 9.80825 22.0716 5.89817C22.0651 5.88511 22.0542 5.87576 22.0414 5.87015ZM10.15 16.6214C9.00649 16.6214 8.06427 15.5566 8.06427 14.2489C8.06427 12.9411 8.98822 11.8763 10.15 11.8763C11.3209 11.8763 12.254 12.9505 12.2357 14.2489C12.2357 15.5566 11.3118 16.6214 10.15 16.6214ZM17.8617 16.6214C16.7182 16.6214 15.776 15.5566 15.776 14.2489C15.776 12.9411 16.6999 11.8763 17.8617 11.8763C19.0326 11.8763 19.9657 12.9505 19.9474 14.2489C19.9474 15.5566 19.0326 16.6214 17.8617 16.6214Z" />
            </g>
        </g>
        <defs>
            <clipPath id="clip0_3002_2830">
                <rect width="26.1097" height="26.1097" fill="white" transform="translate(0.945312 0.308594)"/>
            </clipPath>
            <clipPath id="clip1_3002_2830">
                <rect width="23.2084" height="18.2351" fill="white" transform="translate(2.39453 4.24609)"/>
            </clipPath>
        </defs>
    </symbol>

    <!-- Arrows -->

    <symbol id="arrow-right" viewBox="0 0 14 14" fill="none" xmlns="http://www.w3.org/2000/svg">
        <path d="M8.41797 3.45898L11.9588 6.99982L8.41797 10.5407" stroke-width="1.5" stroke-miterlimit="10" stroke-linecap="round" stroke-linejoin="round"/>
        <path d="M2.03906 7H11.8566" stroke-width="1.5" stroke-miterlimit="10" stroke-linecap="round" stroke-linejoin="round"/>
    </symbol>

    <symbol id="arrow-right-small" viewBox="0 0 24 24" xmlns="http://www.w3.org/2000/svg">
        <path fill-rule="evenodd" clip-rule="evenodd" d="M10.0387 18.9892C9.63187 19.3959 8.97232 19.3959 8.56552 18.9892C8.15873 18.5824 8.15873 17.9228 8.56552 17.516L14.079 12.0026L8.56552 6.48918C8.15873 6.08238 8.15873 5.42283 8.56552 5.01603C8.97232 4.60924 9.63187 4.60924 10.0387 5.01603L16.2887 11.266C16.6954 11.6728 16.6954 12.3324 16.2887 12.7392L10.0387 18.9892Z" />
    </symbol>

    <symbol id="arrow-down" viewBox="0 0 26 28" fill="none" xmlns="http://www.w3.org/2000/svg">
        <path d="M13.0014 0V26M13.0014 26L6.21875 19.2174M13.0014 26L19.784 19.2174"  stroke-width="1.5"/>
    </symbol>


    <!-- Icons -->

    <symbol id="icon:grants" viewBox="0 0 14 14" fill="none" xmlns="http://www.w3.org/2000/svg">
        <g clip-path="url(#clip0_452_1895)">
            <path d="M7 12.1617C1.70551 16.5861 -2.58607 12.2945 1.83835 7C-2.58607 1.70551 1.70551 -2.58607 7 1.83835C12.2935 -2.58607 16.5861 1.70551 12.1617 7C16.5861 12.2905 12.2935 16.5861 7 12.1617Z" fill="#EE42AD"/>
        </g>
        <defs>
            <clipPath id="clip0_452_1895">
                <rect width="14" height="14" fill="white"/>
            </clipPath>
        </defs>
    </symbol>

    <symbol id="aicon:seamless" viewBox="0 0 16 16" xmlns="http://www.w3.org/2000/svg">
        <path fill-rule="evenodd" clip-rule="evenodd" d="M7.99807 8C3.58068 7.99896 3.86202e-07 4.41763 0 1.39877e-06L16 0C16 4.41763 12.4194 7.99896 8.00192 8C12.4194 8.00104 16 11.5824 16 16H6.99382e-07C6.99382e-07 11.5824 3.58068 8.00104 7.99807 8Z" fill="#E81899"/>
    </symbol>

    <symbol id="aicon:community" viewBox="0 0 16 16" xmlns="http://www.w3.org/2000/svg">
        <path fill-rule="evenodd" clip-rule="evenodd" d="M4 8C6.20914 8 8 6.20914 8 4C8 6.20914 9.79088 8 12 8C9.79088 8 8 9.79088 8 12C8 9.79088 6.20914 8 4 8ZM4 8C1.79086 8 0 9.79088 0 12C0 14.2091 1.79086 16 4 16C6.20914 16 8 14.2091 8 12C8 14.2091 9.79088 16 12 16C14.2091 16 16 14.2091 16 12C16 9.79088 14.2091 8 12 8C14.2091 8 16 6.20914 16 4C16 1.79086 14.2091 0 12 0C9.79088 0 8 1.79086 8 4C8 1.79086 6.20914 0 4 0C1.79086 0 0 1.79086 0 4C0 6.20914 1.79086 8 4 8Z" />
    </symbol>

    <symbol id="aicon:security" viewBox="0 0 16 16" xmlns="http://www.w3.org/2000/svg">
        <path d="M8.02032 16C7.76798 16 7.5547 15.8173 7.49359 15.5725C7.29882 14.7922 6.92595 13.9625 6.375 13.0834C5.72222 12.0278 4.79166 11.0486 3.58334 10.1458C2.53239 9.35152 1.48145 8.80984 0.43051 8.52088C0.181604 8.45248 0 8.23176 0 7.97362C0 7.72053 0.174618 7.50236 0.417978 7.43287C1.44836 7.13868 2.44098 6.66105 3.39583 6C4.49306 5.23611 5.40972 4.31944 6.14583 3.25C6.79703 2.29732 7.24406 1.3551 7.4869 0.423366C7.55052 0.179276 7.76541 0 8.01768 0C8.27272 0 8.48912 0.183246 8.5512 0.430664C8.69136 0.989232 8.9104 1.56096 9.20832 2.14583C9.58336 2.86806 10.0625 3.5625 10.6458 4.22917C11.243 4.88194 11.9098 5.47222 12.6458 6C13.6078 6.68185 14.5856 7.16089 15.5795 7.43712C15.8234 7.50487 16 7.72195 16 7.97499C16 8.23184 15.818 8.45072 15.5703 8.51864C14.9403 8.69136 14.2918 8.96992 13.625 9.35416C12.8194 9.8264 12.0694 10.3889 11.375 11.0417C10.6806 11.6806 10.1111 12.3542 9.66664 13.0625C9.11464 13.9434 8.74136 14.7796 8.54696 15.5711C8.48664 15.8166 8.27304 16 8.02032 16Z" />
    </symbol>

    <symbol id="aicon:based" viewBox="0 0 14 14" xmlns="http://www.w3.org/2000/svg">
        <path d="M7 12.1617C1.70551 16.5861 -2.58607 12.2945 1.83835 7C-2.58607 1.70551 1.70551 -2.58607 7 1.83835C12.2935 -2.58607 16.5861 1.70551 12.1617 7C16.5861 12.2905 12.2935 16.5861 7 12.1617Z" />
    </symbol>

    <symbol id="about:ethereum" viewBox="0 0 24 24" fill="none" xmlns="http://www.w3.org/2000/svg">
        <path d="M6.90162 9.09805L11.7016 6.99805C11.9016 6.89805 12.1016 6.89805 12.4016 6.99805L17.2016 9.09805C17.6016 9.29805 18.0016 8.79805 17.7016 8.39805L12.7016 2.29805C12.4016 1.89805 11.8016 1.89805 11.5016 2.29805L6.50162 8.39805C6.10162 8.79805 6.50162 9.29805 6.90162 9.09805Z" stroke-width="1.5" stroke-miterlimit="10" stroke-linecap="round" stroke-linejoin="round"/>
        <path d="M6.90162 14.899L11.7016 16.999C11.9016 17.099 12.1016 17.099 12.4016 16.999L17.2016 14.899C17.6016 14.699 18.0016 15.199 17.7016 15.599L12.7016 21.6991C12.4016 22.0991 11.8016 22.0991 11.5016 21.6991L6.50162 15.599C6.10162 15.199 6.50162 14.699 6.90162 14.899Z" stroke-width="1.5" stroke-miterlimit="10" stroke-linecap="round" stroke-linejoin="round"/>
        <path d="M11.9969 9.40039L6.79688 12.0004L11.9969 14.6004L17.1969 12.0004L11.9969 9.40039Z" stroke-width="1.5" stroke-miterlimit="10" stroke-linecap="round" stroke-linejoin="round"/>
    </symbol>

    <symbol id="about:link" viewBox="0 0 24 24" fill="none" xmlns="http://www.w3.org/2000/svg">
        <path d="M14.9883 17.5H16.4983C19.5183 17.5 21.9983 15.03 21.9983 12C21.9983 8.98 19.5283 6.5 16.4983 6.5H14.9883" stroke-width="1.5" stroke-linecap="round" stroke-linejoin="round"/>
        <path d="M9 6.5H7.5C4.47 6.5 2 8.97 2 12C2 15.02 4.47 17.5 7.5 17.5H9" stroke-width="1.5" stroke-linecap="round" stroke-linejoin="round"/>
        <path d="M8 12H16" stroke-width="1.5" stroke-linecap="round" stroke-linejoin="round"/>
    </symbol>

    <symbol id="about:settings" viewBox="0 0 24 24" fill="none" xmlns="http://www.w3.org/2000/svg">
        <path d="M12 15C13.6569 15 15 13.6569 15 12C15 10.3431 13.6569 9 12 9C10.3431 9 9 10.3431 9 12C9 13.6569 10.3431 15 12 15Z" stroke-width="1.5" stroke-miterlimit="10" stroke-linecap="round" stroke-linejoin="round"/>
        <path d="M2 12.8794V11.1194C2 10.0794 2.85 9.21945 3.9 9.21945C5.71 9.21945 6.45 7.93945 5.54 6.36945C5.02 5.46945 5.33 4.29945 6.24 3.77945L7.97 2.78945C8.76 2.31945 9.78 2.59945 10.25 3.38945L10.36 3.57945C11.26 5.14945 12.74 5.14945 13.65 3.57945L13.76 3.38945C14.23 2.59945 15.25 2.31945 16.04 2.78945L17.77 3.77945C18.68 4.29945 18.99 5.46945 18.47 6.36945C17.56 7.93945 18.3 9.21945 20.11 9.21945C21.15 9.21945 22.01 10.0694 22.01 11.1194V12.8794C22.01 13.9194 21.16 14.7794 20.11 14.7794C18.3 14.7794 17.56 16.0594 18.47 17.6294C18.99 18.5394 18.68 19.6994 17.77 20.2194L16.04 21.2094C15.25 21.6794 14.23 21.3994 13.76 20.6094L13.65 20.4194C12.75 18.8494 11.27 18.8494 10.36 20.4194L10.25 20.6094C9.78 21.3994 8.76 21.6794 7.97 21.2094L6.24 20.2194C5.33 19.6994 5.02 18.5294 5.54 17.6294C6.45 16.0594 5.71 14.7794 3.9 14.7794C2.85 14.7794 2 13.9194 2 12.8794Z" stroke-width="1.5" stroke-miterlimit="10" stroke-linecap="round" stroke-linejoin="round"/>
    </symbol>
    
    <symbol id="share:twitter" viewBox="0 0 26 25" xmlns="http://www.w3.org/2000/svg">
        <path d="M19.5014 1.99219H22.9675L15.395 10.647L24.3034 22.4243H17.3282L11.865 15.2815L5.61381 22.4243H2.14558L10.2451 13.167L1.69922 1.99219H8.85151L13.7898 8.52104L19.5014 1.99219ZM18.2849 20.3497H20.2055L7.8079 3.95786H5.74688L18.2849 20.3497Z" />
    </symbol>

    <symbol id="share:linkedin" viewBox="0 0 100 100" xmlns="http://www.w3.org/2000/svg">
        <path d="M90 90V60.7c0-14.4-3.1-25.4-19.9-25.4-8.1 0-13.5 4.4-15.7 8.6h-.2v-7.3H38.3V90h16.6V63.5c0-7 1.3-13.7 9.9-13.7 8.5 0 8.6 7.9 8.6 14.1v26H90zM11.3 36.6h16.6V90H11.3zM19.6 10c-5.3 0-9.6 4.3-9.6 9.6s4.3 9.7 9.6 9.7 9.6-4.4 9.6-9.7-4.3-9.6-9.6-9.6z"></path>
    </symbol>

    <symbol id="share:facebook" viewBox="0 0 26 26" xmlns="http://www.w3.org/2000/svg">
        <path fill-rule="evenodd" clip-rule="evenodd" d="M14.7718 22.454V13.8293H17.7221L18.1647 10.4671H14.7718V8.32086C14.7718 7.34773 15.0461 6.68455 16.4705 6.68455L18.2841 6.68382V3.67656C17.9705 3.63658 16.8939 3.54492 15.6408 3.54492C13.0241 3.54492 11.2327 5.11151 11.2327 7.98787V10.4671H8.27344V13.8293H11.2327V22.454H14.7718Z" />
        <mask id="mask0_614_863" style="mask-type:luminance" maskUnits="userSpaceOnUse" x="8" y="3" width="11" height="20">
            <path fill-rule="evenodd" clip-rule="evenodd" d="M14.7718 22.454V13.8293H17.7221L18.1647 10.4671H14.7718V8.32086C14.7718 7.34773 15.0461 6.68455 16.4705 6.68455L18.2841 6.68382V3.67656C17.9705 3.63658 16.8939 3.54492 15.6408 3.54492C13.0241 3.54492 11.2327 5.11151 11.2327 7.98787V10.4671H8.27344V13.8293H11.2327V22.454H14.7718Z" fill="white"/>
        </mask>
        <g mask="url(#mask0_614_863)"></g>
    </symbol>

    <!-- Rest -->

    <symbol id="calendar" viewBox="0 0 18 18" fill="none" xmlns="http://www.w3.org/2000/svg">
        <rect x="2.25" y="4.5" width="13.5" height="11.25" rx="1.25" />
        <path d="M3 8.25H15" stroke-linecap="round"/>
        <path d="M6.75 12H11.25" stroke-linecap="round"/>
        <path d="M6 2.25L6 5.25" stroke-linecap="round"/>
        <path d="M12 2.25L12 5.25" stroke-linecap="round"/>
    </symbol>

    <symbol id="timer" viewBox="0 0 18 19" fill="none" xmlns="http://www.w3.org/2000/svg">
        <circle cx="9" cy="9.78125" r="6.5" />
        <path d="M12.375 9.78125H9.15625C9.06996 9.78125 9 9.71129 9 9.625V7.15625" stroke-linecap="round"/>
    </symbol>

    <symbol id="notification" viewBox="0 0 24 24" fill="none" xmlns="http://www.w3.org/2000/svg">
        <path d="M12.0186 2.91016C8.70862 2.91016 6.01862 5.60016 6.01862 8.91016V11.8002C6.01862 12.4102 5.75862 13.3402 5.44862 13.8602L4.29862 15.7702C3.58862 16.9502 4.07862 18.2602 5.37862 18.7002C9.68862 20.1402 14.3386 20.1402 18.6486 18.7002C19.8586 18.3002 20.3886 16.8702 19.7286 15.7702L18.5786 13.8602C18.2786 13.3402 18.0186 12.4102 18.0186 11.8002V8.91016C18.0186 5.61016 15.3186 2.91016 12.0186 2.91016Z" stroke-width="1.5" stroke-miterlimit="10" stroke-linecap="round"/>
        <path d="M13.8719 3.20141C13.5619 3.11141 13.2419 3.04141 12.9119 3.00141C11.9519 2.88141 11.0319 2.95141 10.1719 3.20141C10.4619 2.46141 11.1819 1.94141 12.0219 1.94141C12.8619 1.94141 13.5819 2.46141 13.8719 3.20141Z" stroke-width="1.5" stroke-miterlimit="10" stroke-linecap="round" stroke-linejoin="round"/>
        <path d="M15.0195 19.0586C15.0195 20.7086 13.6695 22.0586 12.0195 22.0586C11.1995 22.0586 10.4395 21.7186 9.89953 21.1786C9.35953 20.6386 9.01953 19.8786 9.01953 19.0586" stroke-width="1.5" stroke-miterlimit="10"/>
    </symbol>

    <symbol id="square-aim" viewBox="0 0 34 34" fill="none" xmlns="http://www.w3.org/2000/svg">
        <path d="M1 9.21622V1H8.78378M1 25.2162V33H8.78378M26.9459 1H33V9.21622M33 25.2162V33H26.9459" stroke="black" stroke-width="1.23871" stroke-linecap="round" stroke-linejoin="round"/>
        <path d="M17 12.3555V21.6458" stroke="#C8047D" stroke-width="1.5" stroke-linecap="round" stroke-linejoin="round"/>
        <path d="M21.2891 17L11.9987 17" stroke="#C8047D" stroke-width="1.5" stroke-linecap="round" stroke-linejoin="round"/>
    </symbol>

    <symbol id="rocket" viewBox="0 0 75 75" fill="none" xmlns="http://www.w3.org/2000/svg">
        <g clip-path="url(#clip0_923_12202)">
            <mask id="mask0_923_12202" style="mask-type:luminance" maskUnits="userSpaceOnUse" x="0" y="0" width="75" height="75">
                <path d="M75 0H0V75H75V0Z" fill="white"/>
            </mask>
            <g mask="url(#mask0_923_12202)">
                <path d="M2.08203 35.4154L18.7487 20.832L52.082 22.9154L54.1654 56.2487L39.582 72.9154C39.582 72.9154 39.5841 60.4174 27.082 47.9154C14.5799 35.4133 2.08203 35.4154 2.08203 35.4154Z" fill="#E81899"/>
                <path d="M2.02738 72.9162C2.02738 72.9162 1.95238 56.2933 8.24613 49.9996C14.5399 43.7058 31.2503 44.1392 31.2503 44.1392C31.2503 44.1392 31.2482 60.4162 24.9982 66.6662C18.7482 72.9162 2.02738 72.9162 2.02738 72.9162Z" fill="#FFAC33"/>
                <path d="M18.7474 64.5846C23.3498 64.5846 27.0807 60.8537 27.0807 56.2513C27.0807 51.6489 23.3498 47.918 18.7474 47.918C14.145 47.918 10.4141 51.6489 10.4141 56.2513C10.4141 60.8537 14.145 64.5846 18.7474 64.5846Z" fill="#FFCC4D"/>
                <path d="M74.9985 0C74.9985 0 54.1652 0 29.1652 20.8333C16.6652 31.25 16.6652 50 20.8318 54.1667C24.9985 58.3333 43.7485 58.3333 54.1652 45.8333C74.9985 20.8333 74.9985 0 74.9985 0Z" fill="black"/>
                <path d="M16.6641 58.3315C16.6641 58.3315 16.6641 49.9982 18.7474 47.9148C20.8307 45.8315 45.8328 25.0003 47.9141 27.0815C49.9953 29.1628 29.162 54.1648 27.0786 56.2482C24.9953 58.3315 16.6641 58.3315 16.6641 58.3315Z" fill="#E81899"/>
                <path d="M62.0137 30.0882L63.1001 22.9435C63.2182 22.1672 62.9988 21.412 62.539 20.834C62.4346 20.7021 62.3976 20.5281 62.4419 20.3657C62.4852 20.2022 62.6044 20.0704 62.7615 20.0081C63.4481 19.7371 64.0167 19.1939 64.3015 18.4619L66.933 11.7316C67.3243 10.7328 67.0859 9.59797 66.3276 8.83957C65.5692 8.08123 64.4333 7.84394 63.4355 8.23415L56.7053 10.8657C55.9743 11.1516 55.4301 11.719 55.159 12.4056C55.0968 12.5628 54.9639 12.6809 54.8015 12.7252C54.638 12.7685 54.465 12.7326 54.3331 12.6282C53.7551 12.1683 53 11.9489 52.2237 12.0671L45.079 13.1535C44.019 13.3148 43.1551 14.0879 42.8767 15.1237C42.6003 16.1594 42.9621 17.2616 43.7985 17.9314L49.4424 22.4446C50.0551 22.9351 50.8188 23.1228 51.5487 23.013C51.7153 22.9878 51.8851 23.0437 52.0043 23.1628C52.1235 23.2821 52.1783 23.4508 52.1541 23.6185C52.0444 24.3484 52.2321 25.112 52.7226 25.7248L57.2358 31.3687C57.9044 32.2061 59.0067 32.5679 60.0435 32.2905C61.0792 32.0121 61.8524 31.1482 62.0137 30.0882ZM57.4425 12.778L64.1812 10.1443C64.4227 10.0504 64.6969 10.1073 64.8794 10.2898C65.0619 10.4723 65.1188 10.7465 65.025 10.988L62.3913 17.7268C62.308 17.9387 62.1234 18.0959 61.8998 18.1423C61.6762 18.1887 61.4452 18.1202 61.2828 17.9578L57.2105 13.8854C57.0491 13.724 56.9794 13.492 57.0259 13.2684C57.0723 13.0448 57.2294 12.8602 57.4415 12.7769L57.4425 12.778ZM51.3619 20.9658C51.1447 21.0376 50.9063 20.9932 50.7281 20.8509L45.079 16.3324C44.8775 16.171 44.7889 15.9053 44.8553 15.6553C44.9218 15.4053 45.1306 15.2196 45.3869 15.1806L52.539 14.0932C52.7648 14.0594 52.9926 14.1396 53.1444 14.3105C53.2974 14.4803 53.3533 14.7155 53.2942 14.937L53.2921 14.9454L51.806 20.4923L51.8039 20.5007C51.7449 20.7222 51.5782 20.8973 51.3619 20.968V20.9658ZM54.7899 21.2126C54.5546 21.2748 54.3036 21.2095 54.1306 21.0365C53.9587 20.8646 53.8912 20.6135 53.9535 20.3784L55.0946 16.1172C55.1569 15.882 55.3415 15.6975 55.5767 15.6352C55.8119 15.573 56.0629 15.6384 56.2359 15.8114L59.3547 18.9302C59.5267 19.1021 59.5952 19.3521 59.5319 19.5884C59.4686 19.8246 59.2851 20.0081 59.0499 20.0704L54.7899 21.2126ZM59.5129 30.3129C59.263 30.3793 58.9971 30.2928 58.8347 30.0903L54.3162 24.4412C54.1739 24.2629 54.1296 24.0246 54.2013 23.8073C54.2731 23.59 54.4481 23.4234 54.6685 23.3653L54.677 23.3632L60.2238 21.8771L60.2323 21.875C60.4537 21.816 60.689 21.8719 60.8587 22.0248C61.0286 22.1778 61.1098 22.4045 61.076 22.6302L59.9886 29.7823C59.9496 30.0387 59.7629 30.2464 59.514 30.3139L59.5129 30.3129Z" fill="#E81899"/>
            </g>
        </g>
        <defs>
            <clipPath id="clip0_923_12202">
                <rect width="75" height="75" fill="white"/>
            </clipPath>
        </defs>
    </symbol>

    <symbol id="laptop" viewBox="0 0 96 96" fill="none" xmlns="http://www.w3.org/2000/svg">
        <g clip-path="url(#clip0_3052_3805)">
            <path d="M90.484 77.5412C89.3834 75 88.1194 72.2427 85.2063 72.2427H82.5671C85.4809 72.2427 87.8448 69.8703 87.8448 66.9438V21.8927C87.8448 18.9662 85.4809 16.5937 82.5671 16.5937L13.9562 16.5938C11.0428 16.5938 8.67841 18.9662 8.67841 21.8927L8.67841 66.9438C8.67841 69.8703 11.0428 72.2427 13.9562 72.2427H11.3173C8.40395 72.2427 6.91825 74.8921 6.0395 77.5412L0.761719 90.459C0.761719 93.3884 3.12617 95.7604 6.0395 95.7604H90.484C93.3971 95.7604 95.7617 93.3884 95.7617 90.4612L90.484 77.5412Z" fill="#CCD6DD"/>
            <path d="M0.785156 90.6797L0.80099 90.8296L1.2496 92.6561C2.08349 94.4819 3.9096 95.7592 6.04182 95.7592H90.4864C93.326 95.7592 95.6245 93.503 95.7433 90.6797H0.785156Z" fill="#9AAAB4"/>
            <path d="M82.568 64.291C82.568 65.7555 81.3886 66.9404 79.9295 66.9404H16.5959C15.1393 66.9404 13.957 65.7555 13.957 64.291L13.957 24.544C13.957 23.0794 15.1393 21.8945 16.5959 21.8945L79.9295 21.8945C81.3886 21.8945 82.568 23.082 82.568 24.544V64.291Z" fill="black"/>
            <path d="M87.595 82.6772L85.5896 76.9371C84.9587 75.7236 83.9137 74.7285 82.4546 74.7285H14.2445C12.7878 74.7285 11.8536 75.8053 11.194 77.4626L9.37834 82.6794C8.80047 84.2521 10.5606 85.329 12.0173 85.329H32.0148C32.0148 85.329 34.4874 85.2051 34.9255 83.7244C35.4321 82.0144 36.0206 79.439 36.1473 78.9848C36.3425 78.2886 37.1711 77.5836 38.4061 77.5836H61.0425C62.362 77.5836 63.0111 78.2515 63.1827 79.0776C63.2935 79.6157 64.006 82.0886 64.3385 83.7801C64.6315 85.2867 67.5606 85.3261 67.5606 85.3261H84.9617C86.4156 85.3261 88.1731 84.0836 87.595 82.6772Z" fill="#AEBBC1"/>
            <path d="M59.8057 88.1405H39.2726C38.283 88.1405 37.8529 87.2358 37.9954 86.3593C38.1379 85.4857 38.9427 81.6278 39.006 81.1795C39.0667 80.7283 39.7291 80.1895 40.3889 80.1895H58.9006C59.6844 80.1895 60.1937 80.6199 60.352 81.4801C60.5077 82.3433 61.149 85.8108 61.1991 86.602C61.2492 87.3961 60.7531 88.1405 59.8057 88.1405Z" fill="#9AAAB4"/>
            <path d="M65.3256 53.9782L59.2211 45.6842C58.5579 44.783 57.5759 44.2431 56.5301 44.1241C56.292 44.0965 56.0795 43.9583 55.9605 43.75C55.8393 43.5417 55.8265 43.2887 55.9222 43.0677C56.3409 42.1027 56.3665 40.9825 55.9158 39.958L51.7859 30.5248C51.1737 29.1241 49.79 28.2207 48.2617 28.2207C46.7335 28.2207 45.3497 29.1262 44.7375 30.5248L40.6076 39.958C40.1591 40.9825 40.1825 42.1027 40.6012 43.0677C40.6969 43.2887 40.682 43.5417 40.5629 43.75C40.4418 43.9583 40.2314 44.0965 39.9933 44.1241C38.9476 44.2431 37.9655 44.783 37.3024 45.6842L31.1978 53.9782C30.2923 55.2089 30.2009 56.8583 30.9639 58.1825C31.7292 59.5046 33.2043 60.2507 34.7219 60.0827L44.9565 58.9435C46.0681 58.8202 47.0268 58.2399 47.6517 57.3939C47.7941 57.2005 48.0215 57.0857 48.2617 57.0857C48.5019 57.0857 48.7272 57.2005 48.8717 57.3939C49.4966 58.2399 50.4552 58.8202 51.567 58.9435L61.8015 60.0827C63.3191 60.2528 64.7942 59.5067 65.5595 58.1825C66.3226 56.8583 66.2311 55.2089 65.3256 53.9782ZM43.2773 41.142L47.4136 31.6981C47.5624 31.3602 47.8961 31.1412 48.2639 31.1412C48.6315 31.1412 48.9652 31.3602 49.114 31.6981L53.2504 41.142C53.3801 41.4395 53.3524 41.7839 53.1739 42.0559C52.9953 42.328 52.6935 42.4917 52.3662 42.4917H44.1594C43.8342 42.4917 43.5302 42.328 43.3517 42.0559C43.1731 41.7839 43.1455 41.4395 43.2752 41.142H43.2773ZM45.4007 55.5192C45.2541 55.8104 44.9692 56.006 44.6461 56.042L34.401 57.1814C34.0354 57.2218 33.6783 57.0432 33.4934 56.7244C33.3084 56.4056 33.3318 56.0081 33.5507 55.7105L39.6617 47.4081C39.8552 47.1466 40.1655 46.9978 40.4907 47.017C40.8159 47.034 41.1093 47.2146 41.2729 47.4973L41.2793 47.508L45.371 54.5946L45.3774 54.6052C45.541 54.8879 45.5495 55.2322 45.4028 55.5213L45.4007 55.5192ZM49.1034 52.3138C48.9292 52.6136 48.6103 52.8006 48.2617 52.8006C47.9153 52.8006 47.5943 52.6157 47.42 52.316L44.2763 46.8725C44.102 46.5727 44.102 46.2008 44.2763 45.9011C44.4506 45.6013 44.7694 45.4143 45.118 45.4143H51.4033C51.7498 45.4143 52.0707 45.5971 52.245 45.8989C52.4193 46.2008 52.4193 46.5706 52.245 46.8703L49.1034 52.3138ZM63.0322 56.7244C62.8473 57.0432 62.4923 57.2239 62.1246 57.1835L51.8794 56.0442C51.5563 56.0081 51.2715 55.8125 51.1248 55.5213C50.9782 55.2301 50.9867 54.8858 51.1503 54.6052L51.1567 54.5946L55.2484 47.508L55.2548 47.4973C55.4185 47.2146 55.7118 47.034 56.037 47.017C56.3622 47 56.6726 47.1466 56.866 47.4081L62.9769 55.7105C63.1959 56.0081 63.2171 56.4056 63.0343 56.7244H63.0322Z" fill="#E81899"/>
        </g>
        <defs>
            <clipPath id="clip0_3052_3805">
                <rect width="95" height="95" fill="white" transform="translate(0.761719 0.759766)"/>
            </clipPath>
        </defs>
    </symbol>

    <symbol id="star" viewBox="0 0 24 24" fill="none" xmlns="http://www.w3.org/2000/svg">
        <path d="M13.7289 3.51063L15.4889 7.03063C15.7289 7.52063 16.3689 7.99063 16.9089 8.08063L20.0989 8.61062C22.1389 8.95062 22.6189 10.4306 21.1489 11.8906L18.6689 14.3706C18.2489 14.7906 18.0189 15.6006 18.1489 16.1806L18.8589 19.2506C19.4189 21.6806 18.1289 22.6206 15.9789 21.3506L12.9889 19.5806C12.4489 19.2606 11.5589 19.2606 11.0089 19.5806L8.01893 21.3506C5.87893 22.6206 4.57893 21.6706 5.13893 19.2506L5.84893 16.1806C5.97893 15.6006 5.74893 14.7906 5.32893 14.3706L2.84893 11.8906C1.38893 10.4306 1.85893 8.95062 3.89893 8.61062L7.08893 8.08063C7.61893 7.99063 8.25893 7.52063 8.49893 7.03063L10.2589 3.51063C11.2189 1.60063 12.7789 1.60063 13.7289 3.51063Z" stroke-width="1.5" stroke-linecap="round" stroke-linejoin="round"/>
    </symbol>

    <symbol id="book" viewBox="0 0 24 24" fill="none" xmlns="http://www.w3.org/2000/svg">
        <path d="M22 16.7397V4.6697C22 3.4697 21.02 2.5797 19.83 2.6797H19.77C17.67 2.8597 14.48 3.9297 12.7 5.0497L12.53 5.1597C12.24 5.3397 11.76 5.3397 11.47 5.1597L11.22 5.0097C9.44 3.8997 6.26 2.8397 4.16 2.6697C2.97 2.5697 2 3.4697 2 4.6597V16.7397C2 17.6997 2.78 18.5997 3.74 18.7197L4.03 18.7597C6.2 19.0497 9.55 20.1497 11.47 21.1997L11.51 21.2197C11.78 21.3697 12.21 21.3697 12.47 21.2197C14.39 20.1597 17.75 19.0497 19.93 18.7597L20.26 18.7197C21.22 18.5997 22 17.6997 22 16.7397Z" stroke-width="1.5" stroke-linecap="round" stroke-linejoin="round"/>
        <path d="M12 5.49023V20.4902" stroke-width="1.5" stroke-linecap="round" stroke-linejoin="round"/>
        <path d="M7.75 8.49023H5.5" stroke-width="1.5" stroke-linecap="round" stroke-linejoin="round"/>
        <path d="M8.5 11.4902H5.5" stroke-width="1.5" stroke-linecap="round" stroke-linejoin="round"/>
    </symbol>

    <symbol id="shape:clock" viewBox="0 0 16 16" xmlns="http://www.w3.org/2000/svg">
        <path fill-rule="evenodd" clip-rule="evenodd" d="M7.99807 8C3.58068 7.99896 3.86202e-07 4.41763 0 1.39877e-06L16 0C16 4.41763 12.4194 7.99896 8.00192 8C12.4194 8.00104 16 11.5824 16 16H6.99382e-07C6.99382e-07 11.5824 3.58068 8.00104 7.99807 8Z" />
    </symbol>

    <symbol id="bag" viewBox="0 0 24 24" fill="none" xmlns="http://www.w3.org/2000/svg">
        <path d="M8.0008 22H16.0008C20.0208 22 20.7408 20.39 20.9508 18.43L21.7008 10.43C21.9708 7.99 21.2708 6 17.0008 6H7.0008C2.7308 6 2.0308 7.99 2.3008 10.43L3.0508 18.43C3.2608 20.39 3.9808 22 8.0008 22Z" stroke-width="1.5" stroke-miterlimit="10" stroke-linecap="round" stroke-linejoin="round"/>
        <path d="M8 6V5.2C8 3.43 8 2 11.2 2H12.8C16 2 16 3.43 16 5.2V6" stroke-width="1.5" stroke-miterlimit="10" stroke-linecap="round" stroke-linejoin="round"/>
        <path d="M14 13V14C14 14.01 14 14.01 14 14.02C14 15.11 13.99 16 12 16C10.02 16 10 15.12 10 14.03V13C10 12 10 12 11 12H13C14 12 14 12 14 13Z" stroke-width="1.5" stroke-miterlimit="10" stroke-linecap="round" stroke-linejoin="round"/>
        <path d="M21.65 11C19.34 12.68 16.7 13.68 14 14.02" stroke-width="1.5" stroke-miterlimit="10" stroke-linecap="round" stroke-linejoin="round"/>
        <path d="M2.62109 11.2695C4.87109 12.8095 7.41109 13.7395 10.0011 14.0295"  stroke-width="1.5" stroke-miterlimit="10" stroke-linecap="round" stroke-linejoin="round"/>
    </symbol>

    <symbol id="cross" viewBox="0 0 10 10" fill="none" xmlns="http://www.w3.org/2000/svg">
        <path d="M0.757812 9.24219L9.24309 0.756905" stroke-width="1.5" stroke-linecap="round" stroke-linejoin="round"/>
        <path d="M9.2431 9.24309L0.757812 0.757812" stroke-width="1.5" stroke-linecap="round" stroke-linejoin="round"/>
    </symbol>

    <symbol id="cross-circle" viewBox="0 0 24 24" xmlns="http://www.w3.org/2000/svg">
        <path d="M12 2C6.49 2 2 6.49 2 12C2 17.51 6.49 22 12 22C17.51 22 22 17.51 22 12C22 6.49 17.51 2 12 2ZM15.36 14.3C15.65 14.59 15.65 15.07 15.36 15.36C15.21 15.51 15.02 15.58 14.83 15.58C14.64 15.58 14.45 15.51 14.3 15.36L12 13.06L9.7 15.36C9.55 15.51 9.36 15.58 9.17 15.58C8.98 15.58 8.79 15.51 8.64 15.36C8.35 15.07 8.35 14.59 8.64 14.3L10.94 12L8.64 9.7C8.35 9.41 8.35 8.93 8.64 8.64C8.93 8.35 9.41 8.35 9.7 8.64L12 10.94L14.3 8.64C14.59 8.35 15.07 8.35 15.36 8.64C15.65 8.93 15.65 9.41 15.36 9.7L13.06 12L15.36 14.3Z" />
    </symbol>

    <symbol id="magnifier" viewBox="0 0 20 20" fill="none" xmlns="http://www.w3.org/2000/svg">
        <path d="M9.58464 17.4993C13.9569 17.4993 17.5013 13.9549 17.5013 9.58268C17.5013 5.21043 13.9569 1.66602 9.58464 1.66602C5.21238 1.66602 1.66797 5.21043 1.66797 9.58268C1.66797 13.9549 5.21238 17.4993 9.58464 17.4993Z" stroke-width="1.25" stroke-linecap="round" stroke-linejoin="round"/>
        <path d="M18.3346 18.3327L16.668 16.666" stroke-width="1.25" stroke-linecap="round" stroke-linejoin="round"/>
    </symbol>

    <symbol id="file" viewBox="0 0 21 20" fill="none" xmlns="http://www.w3.org/2000/svg">
        <path d="M10.7734 10.124L8.7151 12.1823C7.57344 13.324 7.57344 15.1656 8.7151 16.3073C9.85677 17.449 11.6984 17.449 12.8401 16.3073L16.0818 13.0656C18.3568 10.7906 18.3568 7.09063 16.0818 4.81563C13.8068 2.54063 10.1068 2.54063 7.83177 4.81563L4.29844 8.34896C2.34844 10.299 2.34844 13.4656 4.29844 15.424" stroke-width="1.25" stroke-linecap="round" stroke-linejoin="round"/>
    </symbol>

    <symbol id="plus" viewBox="0 0 36 36" fill="none" xmlns="http://www.w3.org/2000/svg">
        <path d="M9 18H27" stroke-width="2.25" stroke-linecap="round" stroke-linejoin="round"/>
        <path d="M18 27V9" stroke-width="2.25" stroke-linecap="round" stroke-linejoin="round"/>
    </symbol>
</svg>