<svg width="11" height="11" viewBox="0 0 11 11" fill="none" xmlns="http://www.w3.org/2000/svg">
<path d="M7.04471 9.6755C7.15469 9.78321 7.29467 9.84196 7.45964 9.84196C7.7896 9.84196 8.05456 9.58737 8.05456 9.26422C8.05456 9.10265 7.98457 8.95577 7.86958 8.84316L4.3701 5.49421L7.86958 2.15506C7.98457 2.04245 8.05456 1.89067 8.05456 1.73399C8.05456 1.41085 7.7896 1.15625 7.45964 1.15625C7.29467 1.15625 7.15469 1.215 7.04471 1.32272L3.15528 5.04377C3.0153 5.17107 2.95031 5.32774 2.94531 5.49911C2.94531 5.67047 3.0153 5.81736 3.15528 5.94955L7.04471 9.6755Z" fill="#4F4F4F"/>
</svg>
