<svg width="193" height="156" viewBox="0 0 193 156" fill="none" xmlns="http://www.w3.org/2000/svg">
<path d="M0 154.37L42.38 36.5215H63.8145L106.113 154.37H86.227L75.7135 124.786H30.7255L19.9675 154.37H0ZM35.2895 107.182H70.8235L53.138 55.837L35.2895 107.182Z" fill="#22282B"/>
<path d="M146.741 156C141.362 156 136.526 155.022 132.234 153.066C127.996 151.056 124.654 148.204 122.209 144.509C119.819 140.76 118.623 136.223 118.623 130.898C118.623 121.607 121.965 114.598 128.648 109.871C135.385 105.144 146.116 102.672 160.84 102.455L173.391 102.129V96.424C173.391 91.9687 172.06 88.4913 169.398 85.992C166.79 83.4383 162.715 82.1887 157.173 82.243C153.098 82.2973 149.349 83.2753 145.926 85.177C142.557 87.0243 140.329 90.1485 139.243 94.5495H122.372C122.698 88.7902 124.355 83.9817 127.344 80.124C130.386 76.212 134.543 73.3052 139.813 71.4035C145.084 69.4475 151.169 68.4695 158.069 68.4695C166.111 68.4695 172.658 69.529 177.711 71.648C182.764 73.767 186.486 76.8368 188.876 80.8575C191.267 84.8238 192.462 89.6323 192.462 95.283V154.37H175.755L174.206 139.211C171.164 145.568 167.306 149.969 162.633 152.414C158.015 154.805 152.717 156 146.741 156ZM153.179 142.553C155.624 142.553 158.042 142.118 160.433 141.249C162.823 140.325 164.997 139.103 166.953 137.581C168.909 136.006 170.457 134.267 171.598 132.365C172.794 130.464 173.391 128.481 173.391 126.416V113.131L163.041 113.294C157.933 113.349 153.478 113.892 149.675 114.924C145.871 115.957 142.883 117.614 140.71 119.896C138.591 122.124 137.531 125.112 137.531 128.861C137.531 133.153 139.025 136.522 142.014 138.967C145.002 141.358 148.724 142.553 153.179 142.553Z" fill="#22282B"/>
</svg>
