<svg width="279" height="158" viewBox="0 0 279 158" fill="none" xmlns="http://www.w3.org/2000/svg">
<path d="M36.3409 155H0.460938L57.2709 0.900391H107.411L164.221 155H126.731L114.311 120.73H48.9909L36.3409 155ZM69.0009 65.9904L60.2609 89.9104H103.041L94.3009 65.9904L83.0309 31.2604H80.7309L69.0009 65.9904Z" fill="#22282B"/>
<path d="M206.291 157.3C185.821 157.3 169.951 146.49 169.951 125.56C169.951 107.62 182.831 96.5804 206.751 92.9004L246.311 86.9204V83.2404C246.311 69.6704 238.951 67.1404 225.381 67.1404C211.351 67.1404 205.831 71.0504 205.831 82.7804V85.3104H172.941V82.7804C172.941 55.1804 194.331 37.0104 226.991 37.0104C261.031 37.0104 278.971 55.6404 278.971 86.4604V155H247.001V139.36H245.621C239.411 147.87 227.681 157.3 206.291 157.3ZM202.841 122.8C202.841 129.01 207.671 131.08 217.791 131.08C231.821 131.08 246.311 127.4 246.311 109.46L213.191 114.52C206.061 115.67 202.841 117.97 202.841 122.8Z" fill="#22282B"/>
</svg>
