<svg width="43" height="13" viewBox="0 0 43 13" fill="none" xmlns="http://www.w3.org/2000/svg">
<path d="M24.1619 10.0217C23.9532 10.3187 23.6763 10.5394 23.3312 10.6839C22.986 10.8204 22.6007 10.8886 22.1753 10.8886C21.8382 10.8886 21.5292 10.8485 21.2482 10.7682C20.9753 10.6879 20.7345 10.5675 20.5258 10.407C20.3171 10.2384 20.1526 10.0338 20.0322 9.79296C19.9118 9.54413 19.8516 9.2632 19.8516 8.95016C19.8516 8.60501 19.9198 8.31204 20.0563 8.07124C20.1927 7.82241 20.3773 7.62175 20.6101 7.46924C20.8509 7.31673 21.1318 7.20436 21.4529 7.13212C21.774 7.05185 22.1111 7.01172 22.4643 7.01172H24.0897C24.0897 6.54617 23.9853 6.18498 23.7766 5.92812C23.5679 5.67127 23.2027 5.53883 22.681 5.5308C22.376 5.5308 22.1111 5.58298 21.8864 5.68732C21.6696 5.79167 21.5252 5.96424 21.4529 6.20504H20.0442C20.0924 5.86792 20.2008 5.58298 20.3693 5.3502C20.5459 5.11743 20.7546 4.92479 20.9954 4.77229C21.2442 4.61978 21.5171 4.51142 21.8141 4.44721C22.1191 4.38299 22.4241 4.35089 22.7292 4.35089C23.1225 4.35089 23.4877 4.40306 23.8248 4.50741C24.1619 4.61175 24.4549 4.78834 24.7037 5.03716C24.9846 5.32612 25.1733 5.67127 25.2696 6.0726C25.3659 6.47393 25.4141 6.91139 25.4141 7.38496V10.8043H24.2221L24.1619 10.0217ZM24.0897 7.98696H22.7653C22.5325 7.98696 22.2997 8.00703 22.067 8.04716C21.8342 8.07927 21.6335 8.16355 21.465 8.3C21.3044 8.42843 21.2242 8.61705 21.2242 8.86588C21.2242 9.17089 21.3325 9.40366 21.5492 9.5642C21.774 9.7167 22.0469 9.79296 22.368 9.79296C22.6168 9.79296 22.8455 9.76085 23.0542 9.69664C23.271 9.63242 23.4556 9.52808 23.6081 9.3836C23.7606 9.23109 23.877 9.04246 23.9572 8.81772C24.0455 8.58494 24.0897 8.30803 24.0897 7.98696Z" fill="#0B101B"/>
<path d="M27.6704 1.82249C27.9193 1.82249 28.1239 1.89874 28.2845 2.05125C28.453 2.20376 28.5373 2.41245 28.5373 2.67733C28.5373 2.93418 28.453 3.13886 28.2845 3.29137C28.1239 3.44387 27.9193 3.52013 27.6704 3.52013C27.4056 3.52013 27.1928 3.44387 27.0323 3.29137C26.8718 3.13886 26.7915 2.93418 26.7915 2.67733C26.7915 2.41245 26.8718 2.20376 27.0323 2.05125C27.1928 1.89874 27.4056 1.82249 27.6704 1.82249ZM26.9721 10.8043V4.45925H28.3447V10.8043H26.9721Z" fill="#0B101B"/>
<path d="M39.2534 4.35089C39.759 4.35089 40.2045 4.43115 40.5898 4.59169C40.9751 4.75222 41.3002 4.97696 41.565 5.26592C41.8379 5.54686 42.0426 5.88799 42.1791 6.28932C42.3155 6.69066 42.3837 7.13613 42.3837 7.62576C42.3837 8.12341 42.3155 8.5729 42.1791 8.97424C42.0506 9.36754 41.854 9.70867 41.5891 9.99763C41.3242 10.2866 40.9951 10.5073 40.6018 10.6598C40.2166 10.8123 39.7671 10.8886 39.2534 10.8886C38.7477 10.8886 38.3022 10.8123 37.9169 10.6598C37.5316 10.4993 37.2066 10.2786 36.9417 9.99763C36.6848 9.70867 36.4882 9.36353 36.3517 8.9622C36.2233 8.56086 36.1591 8.11539 36.1591 7.62576C36.1591 7.13613 36.2233 6.69066 36.3517 6.28932C36.4882 5.88799 36.6888 5.54686 36.9537 5.26592C37.2186 4.97696 37.5437 4.75222 37.929 4.59169C38.3142 4.43115 38.7557 4.35089 39.2534 4.35089ZM39.2534 9.69664C39.5664 9.69664 39.8313 9.64446 40.048 9.54012C40.2727 9.42774 40.4533 9.27925 40.5898 9.09464C40.7343 8.91002 40.8386 8.6933 40.9028 8.44448C40.9751 8.19565 41.0112 7.92676 41.0112 7.6378C41.0112 7.34884 40.9751 7.07995 40.9028 6.83112C40.8386 6.57427 40.7343 6.35354 40.5898 6.16892C40.4533 5.98431 40.2727 5.83983 40.048 5.73548C39.8313 5.63114 39.5664 5.57896 39.2534 5.57896C38.9483 5.57896 38.6875 5.63114 38.4708 5.73548C38.254 5.83983 38.0734 5.98431 37.929 6.16892C37.7845 6.35354 37.6761 6.57427 37.6039 6.83112C37.5397 7.07995 37.5076 7.34884 37.5076 7.6378C37.5076 7.92676 37.5397 8.19565 37.6039 8.44448C37.6761 8.6933 37.7805 8.91002 37.9169 9.09464C38.0614 9.27925 38.242 9.42774 38.4587 9.54012C38.6835 9.64446 38.9483 9.69664 39.2534 9.69664Z" fill="#0B101B"/>
<path d="M32.2809 7.04784H31.2936V2.5438H29.9331V10.8043H31.2936V8.2398H32.3652L34.0387 10.8043H35.628L33.4608 7.48128L35.4594 4.45924H33.9183L32.2809 7.04784Z" fill="#0B101B"/>
<path d="M18.9235 4.44122L17.2983 4.44122V2.5438H16.8783L14.9032 5.22727V5.57428H15.9175V8.71474C15.9175 9.45606 16.0845 9.98965 16.4185 10.3155C16.7606 10.6414 17.3268 10.8043 18.117 10.8043H18.8746V9.60677H18.2392C17.8726 9.60677 17.6241 9.51716 17.4938 9.33794C17.3635 9.15872 17.2983 8.88581 17.2983 8.51922V5.57428H18.9235V4.44122Z" fill="#0B101B"/>
<path d="M13.1037 10.205L10.9161 7.23283C10.6785 6.90986 10.3266 6.71639 9.95179 6.67373C9.86648 6.66383 9.79031 6.61432 9.74765 6.53967C9.70423 6.46502 9.69966 6.37438 9.73394 6.29516C9.884 5.94934 9.89314 5.54792 9.73165 5.18078L8.25165 1.8003C8.03228 1.29834 7.5364 0.974609 6.98873 0.974609C6.44106 0.974609 5.94519 1.2991 5.72582 1.8003L4.24581 5.18078C4.08509 5.54792 4.09347 5.94934 4.24353 6.29516C4.2778 6.37438 4.27247 6.46502 4.22982 6.53967C4.1864 6.61432 4.11099 6.66383 4.02568 6.67373C3.65092 6.71639 3.29901 6.90986 3.06135 7.23283L0.87372 10.205C0.549231 10.6461 0.516477 11.2371 0.789931 11.7117C1.06415 12.1855 1.59277 12.4528 2.13663 12.3927L5.80427 11.9844C6.20265 11.9402 6.54618 11.7323 6.77012 11.4291C6.82116 11.3598 6.90266 11.3186 6.98873 11.3186C7.07481 11.3186 7.15555 11.3598 7.20734 11.4291C7.43129 11.7323 7.77482 11.9402 8.17319 11.9844L11.8408 12.3927C12.3847 12.4536 12.9133 12.1862 13.1875 11.7117C13.461 11.2371 13.4282 10.6461 13.1037 10.205ZM5.20252 5.60505L6.68481 2.22077C6.73813 2.09966 6.85772 2.0212 6.98949 2.0212C7.12127 2.0212 7.24086 2.09966 7.29418 2.22077L8.77647 5.60505C8.82293 5.71169 8.81303 5.83509 8.74905 5.93258C8.68506 6.03008 8.5769 6.08874 8.4596 6.08874L5.51863 6.08874C5.40209 6.08874 5.29317 6.03008 5.22918 5.93258C5.1652 5.83509 5.15529 5.71169 5.20176 5.60505H5.20252ZM5.96347 10.7573C5.91091 10.8616 5.80884 10.9317 5.69306 10.9446L2.02162 11.3529C1.8906 11.3674 1.76263 11.3034 1.69637 11.1892C1.6301 11.0749 1.63848 10.9325 1.71693 10.8258L3.90685 7.85057C3.97617 7.75688 4.08738 7.70356 4.20392 7.71042C4.32046 7.71651 4.42558 7.78126 4.48423 7.88256L4.48651 7.88637L5.95281 10.4259L5.95509 10.4297C6.01374 10.531 6.01679 10.6544 5.96423 10.758L5.96347 10.7573ZM7.29037 9.6086C7.22791 9.716 7.11366 9.78303 6.98873 9.78303C6.86458 9.78303 6.74956 9.71677 6.6871 9.60937L5.56053 7.65862C5.49807 7.55122 5.49807 7.41792 5.56053 7.31052C5.62299 7.20312 5.73724 7.13609 5.86216 7.13609L8.11454 7.13609C8.2387 7.13609 8.35372 7.2016 8.41618 7.30976C8.47864 7.41792 8.47864 7.55046 8.41618 7.65786L7.29037 9.6086ZM12.2819 11.1892C12.2156 11.3034 12.0884 11.3682 11.9566 11.3537L8.28516 10.9454C8.16938 10.9325 8.06732 10.8624 8.01476 10.758C7.9622 10.6537 7.96525 10.5303 8.0239 10.4297L8.02618 10.4259L9.49248 7.88637L9.49476 7.88256C9.55342 7.78126 9.65853 7.71651 9.77507 7.71042C9.89161 7.70433 10.0028 7.75688 10.0721 7.85057L12.2621 10.8258C12.3405 10.9325 12.3481 11.0749 12.2826 11.1892H12.2819Z" fill="#E81899"/>
</svg>
