<svg width="43" height="13" viewBox="0 0 43 13" fill="none" xmlns="http://www.w3.org/2000/svg">
<path d="M24.4556 9.93249C24.2451 10.232 23.9659 10.4546 23.6178 10.6003C23.2697 10.7379 22.8812 10.8067 22.4521 10.8067C22.1122 10.8067 21.8005 10.7662 21.5172 10.6853C21.242 10.6044 20.9991 10.4829 20.7887 10.321C20.5782 10.151 20.4123 9.94463 20.2908 9.70179C20.1694 9.45085 20.1087 9.16753 20.1087 8.85183C20.1087 8.50376 20.1775 8.2083 20.3151 7.96545C20.4527 7.71452 20.6389 7.51215 20.8737 7.35835C21.1165 7.20455 21.3998 7.09122 21.7236 7.01837C22.0474 6.93742 22.3874 6.89694 22.7435 6.89694H24.3827C24.3827 6.42745 24.2775 6.06318 24.067 5.80415C23.8566 5.54512 23.4883 5.41155 22.9621 5.40346C22.6545 5.40346 22.3874 5.45607 22.1607 5.56131C21.9422 5.66654 21.7965 5.84058 21.7236 6.08342H20.303C20.3515 5.74344 20.4608 5.45608 20.6308 5.22133C20.8089 4.98658 21.0194 4.7923 21.2622 4.6385C21.5131 4.4847 21.7884 4.37542 22.0879 4.31066C22.3955 4.24591 22.7031 4.21353 23.0107 4.21353C23.4073 4.21353 23.7756 4.26614 24.1156 4.37137C24.4556 4.47661 24.7511 4.65469 25.002 4.90563C25.2853 5.19704 25.4755 5.54512 25.5727 5.94986C25.6698 6.35459 25.7184 6.79576 25.7184 7.27335V10.7217H24.5163L24.4556 9.93249ZM24.3827 7.88046H23.0471C22.8124 7.88046 22.5776 7.9007 22.3429 7.94117C22.1081 7.97355 21.9057 8.05855 21.7357 8.19616C21.5739 8.32567 21.4929 8.5159 21.4929 8.76684C21.4929 9.07444 21.6022 9.30919 21.8207 9.47108C22.0474 9.62489 22.3226 9.70179 22.6464 9.70179C22.8973 9.70179 23.1281 9.66941 23.3385 9.60465C23.5571 9.53989 23.7433 9.43466 23.8971 9.28895C24.0509 9.13515 24.1682 8.94492 24.2492 8.71827C24.3382 8.48352 24.3827 8.20425 24.3827 7.88046Z" fill="#FAFAFA"/>
<path d="M27.9939 1.66367C28.2448 1.66367 28.4512 1.74057 28.6131 1.89437C28.7831 2.04817 28.8681 2.25864 28.8681 2.52577C28.8681 2.7848 28.7831 2.99122 28.6131 3.14502C28.4512 3.29882 28.2448 3.37572 27.9939 3.37572C27.7268 3.37572 27.5123 3.29882 27.3504 3.14502C27.1885 2.99122 27.1075 2.7848 27.1075 2.52577C27.1075 2.25864 27.1885 2.04817 27.3504 1.89437C27.5123 1.74057 27.7268 1.66367 27.9939 1.66367ZM27.2896 10.7217V4.32281H28.6739V10.7217H27.2896Z" fill="#FAFAFA"/>
<path d="M39.6751 4.21353C40.1851 4.21353 40.6344 4.29447 41.0229 4.45637C41.4115 4.61827 41.7393 4.84492 42.0064 5.13633C42.2816 5.41965 42.4881 5.76368 42.6257 6.16842C42.7633 6.57315 42.8321 7.02241 42.8321 7.5162C42.8321 8.01807 42.7633 8.47138 42.6257 8.87612C42.4962 9.27276 42.2978 9.61679 42.0307 9.9082C41.7636 10.1996 41.4317 10.4222 41.035 10.576C40.6465 10.7298 40.1932 10.8067 39.6751 10.8067C39.1652 10.8067 38.7159 10.7298 38.3273 10.576C37.9388 10.4141 37.611 10.1915 37.3438 9.9082C37.0848 9.61679 36.8865 9.26871 36.7489 8.86398C36.6194 8.45924 36.5546 8.00998 36.5546 7.5162C36.5546 7.02241 36.6194 6.57315 36.7489 6.16842C36.8865 5.76368 37.0888 5.41965 37.356 5.13633C37.6231 4.84492 37.9509 4.61827 38.3395 4.45637C38.728 4.29447 39.1733 4.21353 39.6751 4.21353ZM39.6751 9.60465C39.9908 9.60465 40.2579 9.55203 40.4765 9.4468C40.7032 9.33347 40.8853 9.18372 41.0229 8.99754C41.1686 8.81136 41.2738 8.5928 41.3386 8.34186C41.4115 8.09092 41.4479 7.81975 41.4479 7.52834C41.4479 7.23693 41.4115 6.96575 41.3386 6.71481C41.2738 6.45578 41.1686 6.23317 41.0229 6.04699C40.8853 5.86081 40.7032 5.71511 40.4765 5.60988C40.2579 5.50464 39.9908 5.45203 39.6751 5.45203C39.3675 5.45203 39.1044 5.50464 38.8859 5.60988C38.6673 5.71511 38.4852 5.86081 38.3395 6.04699C38.1938 6.23317 38.0845 6.45578 38.0116 6.71481C37.9469 6.96575 37.9145 7.23693 37.9145 7.52834C37.9145 7.81975 37.9469 8.09092 38.0116 8.34186C38.0845 8.5928 38.1897 8.81136 38.3273 8.99754C38.4731 9.18372 38.6552 9.33347 38.8737 9.4468C39.1004 9.55203 39.3675 9.60465 39.6751 9.60465Z" fill="#FAFAFA"/>
<path d="M32.6435 6.93337H31.6478V2.3911H30.2757V10.7217H31.6478V8.13544H32.7285L34.4162 10.7217H36.019L33.8334 7.37049L35.849 4.3228H34.2948L32.6435 6.93337Z" fill="#FAFAFA"/>
<path d="M19.1727 4.30462L17.5337 4.30462V2.3911H17.1102L15.1183 5.09735V5.4473H16.1412V8.61441C16.1412 9.36203 16.3096 9.90015 16.6464 10.2288C16.9915 10.5574 17.5625 10.7217 18.3594 10.7217H19.1234V9.51402H18.4826C18.1129 9.51402 17.8623 9.42365 17.7309 9.24291C17.5994 9.06216 17.5337 8.78694 17.5337 8.41724V5.4473H19.1727V4.30462Z" fill="#FAFAFA"/>
<path d="M13.3036 10.1174L11.0974 7.11993C10.8577 6.79422 10.5028 6.5991 10.1249 6.55608C10.0388 6.5461 9.96201 6.49617 9.919 6.42089C9.87521 6.3456 9.8706 6.25419 9.90517 6.1743C10.0565 5.82555 10.0657 5.42072 9.90286 5.05046L8.4103 1.6413C8.18906 1.13507 7.68898 0.808594 7.13666 0.808594C6.58434 0.808594 6.08426 1.13584 5.86302 1.6413L4.37046 5.05046C4.20837 5.42072 4.21682 5.82555 4.36816 6.1743C4.40272 6.25419 4.39735 6.3456 4.35433 6.42089C4.31054 6.49617 4.23449 6.5461 4.14846 6.55608C3.77051 6.5991 3.41562 6.79422 3.17595 7.11993L0.969746 10.1174C0.642503 10.5621 0.609471 11.1582 0.885247 11.6368C1.16179 12.1146 1.6949 12.3842 2.24338 12.3236L5.94215 11.9118C6.3439 11.8673 6.69035 11.6575 6.9162 11.3518C6.96766 11.2819 7.04986 11.2404 7.13666 11.2404C7.22347 11.2404 7.30489 11.2819 7.35713 11.3518C7.58297 11.6575 7.92942 11.8673 8.33117 11.9118L12.0299 12.3236C12.5784 12.385 13.1115 12.1154 13.3881 11.6368C13.6639 11.1582 13.6308 10.5621 13.3036 10.1174ZM5.33529 5.47833L6.83016 2.06533C6.88393 1.94319 7.00453 1.86407 7.13743 1.86407C7.27032 1.86407 7.39093 1.94319 7.4447 2.06533L8.93957 5.47833C8.98643 5.58588 8.97644 5.71032 8.91192 5.80865C8.84739 5.90698 8.73831 5.96613 8.62001 5.96613L5.65408 5.96613C5.53655 5.96613 5.4267 5.90698 5.36218 5.80865C5.29765 5.71032 5.28766 5.58588 5.33452 5.47833H5.33529ZM6.1027 10.6743C6.04969 10.7795 5.94676 10.8502 5.82999 10.8632L2.12738 11.275C1.99526 11.2896 1.86621 11.2251 1.79937 11.1098C1.73254 10.9946 1.74099 10.851 1.82012 10.7434L4.02862 7.74292C4.09852 7.64843 4.21068 7.59466 4.32821 7.60157C4.44574 7.60772 4.55175 7.67301 4.6109 7.77518L4.6132 7.77902L6.09194 10.3401L6.09425 10.344C6.1534 10.4461 6.15647 10.5706 6.10346 10.675L6.1027 10.6743ZM7.44086 9.51587C7.37787 9.62418 7.26264 9.69178 7.13666 9.69178C7.01145 9.69178 6.89545 9.62495 6.83246 9.51664L5.69633 7.54934C5.63334 7.44102 5.63334 7.30659 5.69633 7.19828C5.75932 7.08997 5.87455 7.02237 6.00053 7.02237L8.27203 7.02237C8.39724 7.02237 8.51323 7.08843 8.57622 7.19751C8.63921 7.30659 8.63921 7.44026 8.57622 7.54857L7.44086 9.51587ZM12.4747 11.1098C12.4079 11.2251 12.2796 11.2904 12.1467 11.2758L8.4441 10.864C8.32733 10.851 8.2244 10.7803 8.17139 10.675C8.11839 10.5698 8.12146 10.4454 8.18061 10.344L8.18292 10.3401L9.66166 7.77902L9.66396 7.77518C9.72311 7.67301 9.82912 7.60772 9.94665 7.60157C10.0642 7.59543 10.1763 7.64843 10.2462 7.74292L12.4547 10.7434C12.5339 10.851 12.5415 10.9946 12.4755 11.1098H12.4747Z" fill="#FAFAFA"/>
</svg>
