<svg width="96" height="96" viewBox="0 0 96 96" fill="none" xmlns="http://www.w3.org/2000/svg">
<circle cx="48" cy="48" r="48" fill="#E81899"/>
<path d="M75.3023 60.3899L65.535 47.3843C64.4739 45.9711 62.9027 45.1245 61.2294 44.9379C60.8485 44.8946 60.5085 44.6779 60.318 44.3513C60.1242 44.0246 60.1038 43.628 60.2568 43.2814C60.9268 41.7682 60.9676 40.0116 60.2466 38.4051L53.6387 23.613C52.6592 21.4165 50.4452 20 48 20C45.5548 20 43.3408 21.4199 42.3613 23.613L35.7534 38.4051C35.0358 40.0116 35.0732 41.7682 35.7432 43.2814C35.8962 43.628 35.8724 44.0246 35.682 44.3513C35.4881 44.6779 35.1514 44.8946 34.7705 44.9379C33.0973 45.1245 31.5261 45.9711 30.465 47.3843L20.6977 60.3899C19.2489 62.3198 19.1027 64.9062 20.3236 66.9827C21.5479 69.0559 23.9081 70.2258 26.3364 69.9624L42.7116 68.1759C44.4903 67.9826 46.0241 67.0727 47.0239 65.7461C47.2518 65.4428 47.6157 65.2628 48 65.2628C48.3843 65.2628 48.7448 65.4428 48.9761 65.7461C49.9759 67.0727 51.5097 67.9826 53.2884 68.1759L69.6636 69.9624C72.0919 70.2291 74.4521 69.0592 75.6764 66.9827C76.8973 64.9062 76.7511 62.3198 75.3023 60.3899ZM40.0249 40.2616L46.643 25.4529C46.8811 24.9229 47.415 24.5796 48.0034 24.5796C48.5917 24.5796 49.1257 24.9229 49.3638 25.4529L55.9819 40.2616C56.1893 40.7282 56.1451 41.2682 55.8594 41.6948C55.5738 42.1215 55.0909 42.3781 54.5671 42.3781H41.4363C40.9159 42.3781 40.4296 42.1215 40.144 41.6948C39.8583 41.2682 39.8141 40.7282 40.0215 40.2616H40.0249ZM43.4224 62.8064C43.1877 63.263 42.732 63.5696 42.2151 63.6263L25.8228 65.4128C25.2379 65.4762 24.6665 65.1962 24.3706 64.6962C24.0748 64.1963 24.1122 63.573 24.4625 63.1064L34.24 50.0875C34.5495 49.6775 35.046 49.4442 35.5664 49.4742C36.0867 49.5008 36.556 49.7841 36.8179 50.2274L36.8281 50.2441L43.3748 61.3565L43.385 61.3732C43.6469 61.8165 43.6605 62.3564 43.4258 62.8097L43.4224 62.8064ZM49.3467 57.7801C49.0679 58.2501 48.5577 58.5434 48 58.5434C47.4457 58.5434 46.9321 58.2534 46.6532 57.7835L41.6233 49.2475C41.3445 48.7776 41.3445 48.1943 41.6233 47.7243C41.9022 47.2544 42.4123 46.9611 42.9701 46.9611H53.0265C53.5809 46.9611 54.0944 47.2477 54.3733 47.721C54.6521 48.1943 54.6521 48.7742 54.3733 49.2442L49.3467 57.7801ZM71.6328 64.6962C71.3369 65.1962 70.7689 65.4795 70.1806 65.4162L53.7883 63.6296C53.2714 63.573 52.8157 63.2663 52.581 62.8097C52.3463 62.3531 52.3599 61.8131 52.6218 61.3732L52.632 61.3565L59.1787 50.2441L59.1889 50.2274C59.4508 49.7841 59.9201 49.5008 60.4404 49.4742C60.9608 49.4475 61.4573 49.6775 61.7668 50.0875L71.5443 63.1064C71.8946 63.573 71.9286 64.1963 71.6362 64.6962H71.6328Z" fill="#FAFAFA"/>
</svg>
