<svg width="112" height="112" viewBox="0 0 112 112" fill="none" xmlns="http://www.w3.org/2000/svg">
<path d="M54.3174 15.9939C53.3972 16.5352 52.5853 17.0043 52.5131 17.0404C52.4409 17.0674 52.2785 17.1667 52.1522 17.2478C52.0259 17.329 51.7012 17.5185 51.4305 17.6719C50.8081 18.0147 51.5929 17.5636 44.3488 21.7495C42.2648 22.9584 41.9581 23.1388 41.3717 23.4726C41.2003 23.5718 40.9207 23.7252 40.7673 23.8244C40.4245 24.0139 35.3906 26.9187 34.9485 27.1804C34.7861 27.2796 34.5155 27.4239 34.3621 27.5232C32.8917 28.3621 29.1839 30.5092 28.7869 30.7348C28.5163 30.8881 27.4969 31.4835 26.5316 32.0429C24.7273 33.0893 24.4116 33.2698 23.8703 33.5765C23.6989 33.6757 23.4192 33.8291 23.2659 33.9283C23.1035 34.0185 22.6344 34.2892 22.2194 34.5237C21.8134 34.7583 21.4796 34.9928 21.4796 35.056C21.4796 35.1101 21.6059 35.3537 21.7503 35.6063C21.8946 35.8499 22.0209 36.1205 22.0209 36.2017C22.0209 36.4814 21.7232 36.6347 21.1188 36.6618L20.5324 36.6889L20.5053 56.7253C20.4873 72.6931 20.5144 76.7887 20.5956 76.8609C20.6587 76.906 21.6511 77.4834 22.7877 78.142C25.0521 79.45 25.2957 79.5854 25.7648 79.856C26.1166 80.0545 26.0625 80.0274 28.1103 81.2092C28.9042 81.6693 30.2033 82.4181 30.9972 82.8782C31.791 83.3382 33.0901 84.087 33.884 84.5471C35.7965 85.6567 35.8597 85.6928 36.2296 85.9003C36.6265 86.1258 36.5994 86.1168 39.7479 87.9301C43.1399 89.8877 43.2752 89.9689 43.9248 90.3298C44.1052 90.438 44.3037 90.5553 44.3488 90.5914C44.4029 90.6275 44.6645 90.7809 44.9352 90.9252C45.2058 91.0786 46.4688 91.8003 47.7318 92.531C48.9948 93.2708 50.9434 94.3984 52.062 95.0389C53.1807 95.6795 54.2181 96.2749 54.3625 96.3651C55.5262 97.0507 56.0946 97.3574 56.1938 97.3574C56.2569 97.3574 56.708 97.1319 57.1861 96.8522C58.1334 96.3019 58.4672 96.1035 58.9634 95.8238C59.1348 95.7246 59.4234 95.5622 59.5948 95.4629C60.1903 95.1201 60.497 94.9487 61.8953 94.1368C67.9125 90.6455 68.4899 90.3117 69.0222 90.0231C69.2928 89.8787 69.5634 89.7254 69.6085 89.6893C69.6627 89.6442 71.0159 88.8593 72.6307 87.9301C74.2455 87.0009 75.698 86.1619 75.8603 86.0717C76.0137 85.9725 76.2843 85.8281 76.4467 85.7289C78.0706 84.7907 82.8789 82.0211 84.2682 81.2092C86.0545 80.1718 86.3702 79.9913 86.9295 79.6756C87.4257 79.3869 87.7144 79.2245 89.8164 78.0157C90.9079 77.3842 91.8281 76.8158 91.8642 76.7617C91.9003 76.6985 91.9364 67.4336 91.9364 56.1659C91.9364 39.9185 91.9093 35.6604 91.8281 35.5431C91.7199 35.4168 91.1335 35.056 90.2223 34.5508C89.7713 34.2982 89.7622 34.2982 87.7866 33.1525C85.2606 31.691 80.1725 28.7501 79.6222 28.4343C78.9186 28.0284 75.7611 26.206 74.029 25.2047C73.0547 24.6363 71.9451 23.9958 69.7709 22.7419C69.6085 22.6426 69.3289 22.4893 69.1575 22.39C68.6703 22.1104 68.4448 21.9841 65.6391 20.3602C62.4907 18.5469 62.5178 18.5559 62.1208 18.3304C61.7419 18.1139 61.7961 18.15 58.7739 16.3998C57.4207 15.624 56.2479 14.9925 56.1577 15.0015C56.0585 15.0015 55.2375 15.4526 54.3174 15.9939ZM57.5921 18.4296C59.0626 19.2777 60.8939 20.3331 61.9404 20.9466C62.3373 21.1812 62.8425 21.4698 63.0681 21.5961C63.4199 21.7946 65.8827 23.22 66.6315 23.653C66.7849 23.7432 68.2193 24.5732 69.8341 25.5024C71.4489 26.4316 72.8923 27.2615 73.0367 27.3518C73.5599 27.6585 76.8346 29.5439 77.2316 29.7695C77.4571 29.8958 78.2059 30.3288 78.9005 30.7348C79.5952 31.1407 80.8582 31.8715 81.6971 32.3586C82.5452 32.8367 83.3661 33.3149 83.5285 33.4051C84.3404 33.8832 84.5118 33.9734 84.7193 34.0907C85.9372 34.7493 88.9052 36.5355 88.9323 36.6077C88.9503 36.6708 87.8407 37.3655 86.4604 38.1593C84.4938 39.287 80.1635 41.7859 77.818 43.1391C77.6736 43.2203 77.3308 43.4188 77.0692 43.5812C76.8076 43.7345 76.582 43.8608 76.564 43.8608C76.546 43.8608 76.2031 44.0593 75.7882 44.3029L75.0394 44.7539L74.7146 44.5825C74.5342 44.4923 74.029 44.2127 73.5779 43.951C73.1359 43.6894 72.6487 43.4098 72.4954 43.3195C70.8806 42.3813 67.5066 40.4508 67.3983 40.4056C67.3261 40.3696 67.0014 40.1801 66.6856 39.9816C66.3789 39.7832 66.0992 39.6208 66.0722 39.6208C66.0451 39.6208 65.9188 39.5486 65.7925 39.4584C65.6572 39.3592 65.3234 39.1697 65.0528 39.0164C64.5476 38.7367 60.0188 36.1295 58.4672 35.2274C56.1216 33.8471 56.3021 33.9283 55.8871 34.1178C55.6976 34.199 55.1744 34.4876 54.7233 34.7493C54.2813 35.0109 53.7941 35.2905 53.6408 35.3808C52.495 36.0483 48.2821 38.4841 47.8491 38.7277C47.6596 38.8359 47.4702 38.9532 47.416 38.9893C47.3709 39.0254 47.1003 39.1787 46.8296 39.3231C46.4417 39.5396 42.8332 41.6145 41.4619 42.4174C40.5057 42.9767 38.2233 44.2848 37.8263 44.5104C37.5016 44.6908 37.3121 44.7539 37.2399 44.6908C37.1768 44.6457 36.9783 44.5194 36.7979 44.4111C36.6084 44.3029 36.3017 44.1405 36.1213 44.0322C35.9318 43.924 35.7424 43.8067 35.6883 43.7706C35.6432 43.7345 35.3725 43.5812 35.1019 43.4368C34.8312 43.2835 33.9562 42.7873 33.1623 42.3272C30.2394 40.6222 27.8307 39.2329 27.4337 39.0073C27.2082 38.8901 26.7842 38.6465 26.4865 38.4661C25.7377 38.033 25.5483 37.9158 24.4387 37.2752C23.9064 36.9685 23.4463 36.6889 23.4192 36.6437C23.3922 36.6077 23.9695 36.2288 24.7093 35.8048C26.4685 34.7944 30.1131 32.6924 30.4559 32.4939C30.6093 32.4037 31.764 31.7361 33.027 31.0054C35.986 29.2913 35.8597 29.3635 36.2296 29.156C36.401 29.0568 36.6806 28.9034 36.843 28.8042C36.9964 28.714 38.0428 28.1096 39.1615 27.469C40.2801 26.8195 42.2288 25.6918 43.4917 24.9611C44.7547 24.2304 46.0177 23.5087 46.2884 23.3553C46.559 23.211 46.8296 23.0576 46.8747 23.0215C46.9289 22.9854 47.1093 22.8681 47.2807 22.7689C47.4521 22.6697 48.7782 21.9119 50.2126 21.0819C51.6561 20.252 52.9732 19.4942 53.1446 19.3949C53.316 19.2957 53.5054 19.1784 53.5505 19.1423C53.6047 19.1062 53.8663 18.9529 54.1369 18.8085C54.4076 18.6552 54.9579 18.3484 55.3548 18.1139C55.7518 17.8884 56.1306 17.6989 56.1938 17.6989C56.2569 17.6989 56.8884 18.0327 57.5921 18.4296ZM58.3679 36.2468C59.5407 36.9324 60.6233 37.5549 60.7676 37.6361C60.921 37.7263 61.6878 38.1684 62.4817 38.6284C63.2756 39.0885 64.1506 39.5847 64.4213 39.7381C64.6919 39.8824 65.0437 40.0989 65.2061 40.2162C65.3595 40.3335 65.5128 40.4327 65.5399 40.4327C65.585 40.4327 66.5683 40.992 71.2594 43.6894C71.4128 43.7887 71.6835 43.933 71.8458 44.0322C73.4336 44.9434 73.8486 45.214 73.8486 45.3042C73.8486 45.3674 73.3614 45.7012 72.766 46.053C71.6744 46.6845 67.7501 48.9579 66.7217 49.5443C66.3067 49.7788 66.2616 49.8059 63.2485 51.547C61.8321 52.368 60.4338 53.1799 60.1361 53.3513C59.8384 53.5227 59.4144 53.7753 59.1889 53.8926C58.9634 54.0189 58.2416 54.4338 57.5831 54.8127C56.9245 55.1916 56.3291 55.5254 56.266 55.5525C56.2028 55.5796 55.7878 55.3901 55.3458 55.1285C54.4888 54.6323 54.1369 54.4338 53.6408 54.1452C53.1897 53.8835 52.9732 53.7663 50.6637 52.4311C49.527 51.7725 48.3452 51.0869 48.0475 50.9245C47.7498 50.7531 47.4702 50.5817 47.416 50.5456C47.3709 50.5005 47.1003 50.3472 46.8296 50.2028C46.4147 49.9773 45.4133 49.3999 43.176 48.1009C42.3821 47.6408 42.0122 47.4243 40.3433 46.477C39.3509 45.9087 38.521 45.3945 38.4939 45.3313C38.4578 45.2411 38.972 44.9073 40.4245 44.1044C40.6951 43.9601 41.0289 43.7616 41.1642 43.6624C41.2905 43.5721 41.4258 43.5 41.4529 43.5C41.48 43.5 41.7145 43.3737 41.9762 43.2203C42.2378 43.0579 42.5806 42.8595 42.7249 42.7783C42.8783 42.688 44.1774 41.9393 45.6118 41.1093C47.0552 40.2794 48.3633 39.5216 48.5257 39.4313C48.679 39.3321 48.9587 39.1787 49.1301 39.0795C50.4472 38.3217 53.4513 36.5806 54.7684 35.8048C55.4901 35.3808 56.1126 35.0289 56.1577 35.0289C56.2028 35.0199 57.1952 35.5702 58.3679 36.2468ZM23.5816 37.8707C24.1951 38.2315 24.5469 38.439 25.0701 38.7277C25.2506 38.8359 25.449 38.9532 25.4941 38.9893C25.5483 39.0254 25.8099 39.1787 26.0805 39.3231C26.4775 39.5396 29.4635 41.2627 30.8167 42.0566C30.9701 42.1468 31.9985 42.7422 33.1172 43.3827C34.2358 44.0322 35.5349 44.781 36.004 45.0516L36.861 45.5568L36.8881 56.3734C36.9062 66.5405 36.9152 67.2081 37.0685 67.3344C37.1497 67.4156 37.6279 67.7042 38.124 67.9929C38.6202 68.2816 39.1615 68.5883 39.3239 68.6786C39.4772 68.7778 39.7569 68.9312 39.9283 69.0304C40.4967 69.3552 40.8214 69.5446 41.6424 70.0227C42.0934 70.2844 42.6347 70.6001 42.8602 70.7264C43.0858 70.8437 43.4917 71.0782 43.7624 71.2406C44.033 71.403 44.6645 71.7729 45.1607 72.0525C45.6569 72.3412 46.8387 73.0178 47.7769 73.5681C49.5721 74.6056 49.8789 74.777 50.3931 75.0747C50.5645 75.1739 50.8532 75.3363 51.0246 75.4355C51.5478 75.7332 51.8455 75.9047 53.6859 76.9692C54.6511 77.5285 55.4992 78.0337 55.5623 78.0878C55.6525 78.178 55.6796 79.7838 55.6796 86.198C55.6796 90.6004 55.6525 94.2451 55.6255 94.2992C55.5894 94.3533 55.5262 94.3623 55.4631 94.3082C55.3819 94.236 51.4666 91.9627 49.8608 91.0425C49.7074 90.9613 48.5076 90.2666 47.1905 89.5088C45.8734 88.742 43.5008 87.3708 41.913 86.4596C40.3252 85.5395 38.9089 84.7275 38.7555 84.6373C38.6112 84.5471 37.1858 83.7262 35.5981 82.815C34.0103 81.8948 32.3233 80.9205 31.8542 80.6499C31.3851 80.3792 30.8167 80.0545 30.5912 79.9282C30.3657 79.8019 29.8244 79.4861 29.3733 79.2245C28.5614 78.7554 28.2366 78.566 27.6863 78.2412C27.524 78.151 26.8383 77.7631 26.1707 77.3751C25.5032 76.9872 24.4838 76.4008 23.9154 76.067L22.878 75.4716L22.8509 56.5088C22.8419 42.9316 22.8599 37.5459 22.9321 37.5459C22.9862 37.5459 23.2749 37.6902 23.5816 37.8707ZM89.5908 56.4727V75.3904L89.3924 75.5167C89.1217 75.6791 85.7928 77.6187 83.5916 78.8907C82.6534 79.432 81.7423 79.9552 81.5889 80.0455C81.4265 80.1447 81.1559 80.289 81.0025 80.3883C77.0782 82.6346 75.7972 83.3743 75.2018 83.7352C74.8048 83.9697 74.2996 84.2674 74.0741 84.3847C73.8486 84.511 73.3073 84.8268 72.8562 85.0884C72.4142 85.35 71.8188 85.6838 71.5481 85.8372C71.2775 85.9815 71.0159 86.1349 70.9617 86.1709C70.9166 86.207 70.7272 86.3243 70.5558 86.4235C70.3844 86.5228 68.9229 87.3618 67.3081 88.291C64.295 90.0321 63.9973 90.2035 63.5011 90.4922C62.8786 90.844 59.7211 92.6663 58.5664 93.3429C56.8072 94.3533 56.7712 94.3714 56.717 94.3172C56.6358 94.236 56.6539 78.2953 56.7351 78.178C56.7892 78.0878 58.2326 77.2218 59.3693 76.5903C59.5948 76.464 60.1451 76.1482 60.5872 75.8866C61.0383 75.625 61.6246 75.2912 61.8953 75.1378C62.1659 74.9935 62.4997 74.795 62.635 74.6958C62.7613 74.6056 62.8967 74.5334 62.9237 74.5334C62.9508 74.5334 63.1853 74.4071 63.447 74.2447C63.7086 74.0914 65.2242 73.2163 66.8119 72.2961C68.3997 71.385 69.8251 70.564 69.9694 70.4738C70.1228 70.3836 70.8896 69.9415 71.6835 69.4815C72.4773 69.0214 73.2622 68.5703 73.4246 68.4801C73.5779 68.3809 73.8486 68.2365 74.011 68.1373C74.1643 68.0471 74.462 67.8757 74.6605 67.7674C74.859 67.6501 75.1116 67.4787 75.2288 67.3795L75.4273 67.1991V56.4546C75.4273 50.5456 75.4634 45.6651 75.4995 45.611C75.5536 45.5298 76.8617 44.7539 78.0435 44.1044C78.3141 43.9601 78.5848 43.8067 78.6299 43.7706C78.684 43.7345 78.8735 43.6172 79.0629 43.509C79.4599 43.2835 79.9199 43.0218 80.3259 42.7873C80.4793 42.6971 81.5528 42.0836 82.6895 41.4251C83.8352 40.7665 84.9448 40.117 85.1704 39.9816C85.3959 39.8463 85.7568 39.6298 85.9823 39.5035C86.2078 39.3862 87.0558 38.8901 87.8768 38.421C88.6977 37.9428 89.4194 37.5549 89.4826 37.5549C89.5638 37.5459 89.5908 41.389 89.5908 56.4727ZM39.5043 47.0724C41.1281 48.0106 41.2725 48.0918 42.0934 48.57C42.3911 48.7504 42.8151 48.994 43.0407 49.1112C43.4376 49.3368 47.0101 51.4027 49.1301 52.6386C49.7255 52.9814 50.4382 53.3874 50.7088 53.5407C50.9795 53.6851 51.2501 53.8384 51.2952 53.8745C51.3493 53.9106 51.5388 54.0279 51.7282 54.1361C52.0981 54.3436 52.5401 54.5962 52.9912 54.8578C53.1446 54.9481 53.7851 55.3179 54.4076 55.6788C55.03 56.0306 55.5623 56.3554 55.5984 56.3915C55.6886 56.4727 55.6976 76.8068 55.6074 76.888C55.5623 76.9241 55.012 76.6444 54.3625 76.2745C52.8018 75.3724 52.6574 75.2912 52.2695 75.0657C52.0801 74.9574 51.8906 74.8401 51.8365 74.8041C51.7914 74.768 51.5207 74.6146 51.2501 74.4703C50.6727 74.1545 47.0642 72.0796 45.5666 71.1955C44.9983 70.8617 44.3488 70.4828 44.1232 70.3655C42.6618 69.5446 38.0789 66.8833 37.9256 66.757C37.8354 66.6848 37.8083 64.5197 37.8083 56.4907C37.8083 50.9065 37.8354 46.2966 37.8714 46.2695C37.9526 46.1793 37.8805 46.1432 39.5043 47.0724ZM74.5252 56.4727V66.739L73.6952 67.2261C71.8819 68.2906 70.213 69.2469 69.7439 69.5085C69.4732 69.6529 69.1485 69.8513 69.0222 69.9325C68.8959 70.0137 68.5711 70.2032 68.3004 70.3565C68.0298 70.5099 67.6599 70.7084 67.4885 70.8076C63.871 72.9005 62.5538 73.6583 62.4817 73.7125C62.4366 73.7576 62.1659 73.9109 61.8953 74.0553C61.6246 74.2086 60.7496 74.7048 59.9557 75.1649C59.1618 75.625 58.2868 76.1212 58.0161 76.2745C57.7455 76.4279 57.3666 76.6444 57.1771 76.7617C56.9877 76.879 56.7982 76.9511 56.7531 76.9241C56.699 76.888 56.6629 73.1171 56.6629 66.6939C56.6629 57.1132 56.6719 56.5088 56.8253 56.3825C56.9065 56.3103 57.8086 55.769 58.828 55.1826C61.3179 53.7482 60.8849 54.0008 64.7821 51.7545C66.3969 50.8253 67.8584 49.9863 68.0298 49.8871C68.2012 49.7879 68.3907 49.6706 68.4358 49.6345C68.4899 49.5984 68.7515 49.445 69.0222 49.3007C69.2928 49.1473 70.1679 48.6512 70.9617 48.1911C74.1012 46.3778 74.3899 46.2064 74.462 46.2064C74.4981 46.2064 74.5252 50.8253 74.5252 56.4727Z" fill="black"/>
<g opacity="0.1">
<g filter="url(#filter0_f_707_2022)">
<ellipse cx="17.1472" cy="28.2411" rx="17.1472" ry="28.2411" transform="matrix(-0.0370296 0.999314 0.999314 0.0370296 33.6953 15.125)" fill="url(#paint0_linear_707_2022)"/>
</g>
<g filter="url(#filter1_f_707_2022)">
<ellipse cx="12.5467" cy="20.6642" rx="12.5467" ry="20.6642" transform="matrix(-0.0370296 0.999314 0.999314 0.0370296 29.9297 25.4922)" fill="url(#paint1_linear_707_2022)"/>
</g>
</g>
<defs>
<filter id="filter0_f_707_2022" x="19.2785" y="2.36253" width="84.0054" height="61.8882" filterUnits="userSpaceOnUse" color-interpolation-filters="sRGB">
<feFlood flood-opacity="0" result="BackgroundImageFix"/>
<feBlend mode="normal" in="SourceGraphic" in2="BackgroundImageFix" result="shape"/>
<feGaussianBlur stdDeviation="6.88807" result="effect1_foregroundBlur_707_2022"/>
</filter>
<filter id="filter1_f_707_2022" x="22.5729" y="19.3463" width="55.0886" height="38.8992" filterUnits="userSpaceOnUse" color-interpolation-filters="sRGB">
<feFlood flood-opacity="0" result="BackgroundImageFix"/>
<feBlend mode="normal" in="SourceGraphic" in2="BackgroundImageFix" result="shape"/>
<feGaussianBlur stdDeviation="3.44403" result="effect1_foregroundBlur_707_2022"/>
</filter>
<linearGradient id="paint0_linear_707_2022" x1="17.1472" y1="0" x2="17.1472" y2="56.4822" gradientUnits="userSpaceOnUse">
<stop stop-color="#FF7BCA"/>
<stop offset="1" stop-color="#FFC56F" stop-opacity="0.46"/>
</linearGradient>
<linearGradient id="paint1_linear_707_2022" x1="12.5467" y1="0" x2="12.5467" y2="41.3284" gradientUnits="userSpaceOnUse">
<stop stop-color="#F22FB0"/>
<stop offset="1" stop-color="#F58A25" stop-opacity="0"/>
<stop offset="1" stop-color="#7061A3"/>
</linearGradient>
</defs>
</svg>
