<svg width="112" height="112" viewBox="0 0 112 112" fill="none" xmlns="http://www.w3.org/2000/svg">
<path d="M40.2343 26.7126L24.9531 30.3876L18.8969 38.8251C15.5781 43.4751 12.5969 47.6376 12.2969 48.0876L11.7344 48.9126V55.9813V63.0501L12.2969 63.8751C12.5969 64.3251 15.5781 68.4875 18.8969 73.1375L24.9531 81.575L40.4218 85.2875L55.8905 89L70.1405 85.6063C77.978 83.75 84.9905 82.0625 85.703 81.8938L87.0155 81.5563L93.6154 72.3688L100.215 63.2001V55.9813V48.7626L93.6154 39.5939C87.6155 31.2501 86.9592 30.3876 86.3592 30.2376C83.4155 29.4689 56.0405 22.9814 55.8155 23.0001C55.6468 23.0189 48.6343 24.6876 40.2343 26.7126ZM70.6092 28.9064C79.7592 31.1001 85.4405 32.5251 85.6467 32.7126C86.153 33.2001 97.4779 49.1188 97.4779 49.3438C97.4779 49.5688 86.378 65.1126 85.7217 65.8251C85.3842 66.1813 82.9842 66.8001 70.6092 69.725L55.8905 73.2125L41.2093 69.7063C32.9781 67.7188 26.4156 66.0501 26.2843 65.9001C25.4218 65.0188 14.3781 49.3438 14.4906 49.1563C14.9031 48.4626 26.0781 32.9564 26.3218 32.7126C26.5281 32.5439 31.3093 31.3064 38.6406 29.5626C48.3905 27.2564 52.5343 26.2439 55.7968 25.4376C55.853 25.4189 62.5093 26.9939 70.6092 28.9064ZM20.0594 58.9626L25.6093 66.7063L25.5718 72.4625L25.5156 78.2188L19.8531 70.3063L14.1719 62.3938V56.6188C14.1719 53.2438 14.2469 50.9188 14.3406 51.0126C14.4344 51.1251 17.0031 54.6876 20.0594 58.9626ZM92.1342 70.3063L86.453 78.2188L86.3967 72.4625L86.3592 66.7063L92.0217 58.7938L97.7029 50.8813L97.7592 56.6376L97.7967 62.3751L92.1342 70.3063ZM41.4156 70.7188L55.4218 74.075V80.2438V86.3938L55.0093 86.3C54.7655 86.225 50.2843 85.1563 45.0155 83.9C39.7656 82.6438 33.4656 81.1438 31.0468 80.5625L26.6406 79.4938L26.5843 73.3438L26.5468 67.1938L26.9593 67.2688C27.2031 67.325 33.6906 68.8625 41.4156 70.7188ZM85.4217 73.3063C85.4217 76.6625 85.3655 79.4375 85.2905 79.475C85.1967 79.5313 78.8967 81.05 71.2655 82.8875C63.6343 84.7063 57.203 86.2438 56.978 86.3L56.5468 86.3938V80.2438V74.075L70.7592 70.6625C78.5592 68.7875 85.0655 67.25 85.1967 67.25C85.3655 67.2313 85.4217 68.5625 85.4217 73.3063Z" fill="#22282B"/>
<path d="M43.3279 31.9055C36.7279 33.4805 31.3092 34.793 31.2905 34.793C31.2717 34.793 28.928 38.0555 26.0592 42.0305C21.4467 48.4805 20.8842 49.3243 21.0905 49.643C21.4842 50.2805 30.8967 63.368 31.1405 63.6305C31.3842 63.893 55.1592 69.668 56.0029 69.668C56.5279 69.668 79.8341 64.1555 80.4528 63.8742C80.7528 63.743 89.7153 51.4993 90.8591 49.6805C91.0841 49.3055 90.7278 48.743 85.9091 42.0493C83.0591 38.0743 80.5841 34.7743 80.3966 34.718C80.2278 34.6618 76.3279 33.7243 71.7341 32.6368C67.1404 31.5493 61.8154 30.2743 59.9029 29.8056C57.9904 29.3556 56.1717 28.9806 55.8717 28.9993C55.5717 28.9993 49.9279 30.3118 43.3279 31.9055ZM55.4217 31.7743C55.4217 33.3493 55.4029 33.443 55.0092 33.5368C51.1467 34.5118 32.4905 38.918 32.2842 38.918C32.0405 38.918 31.9842 38.6368 31.9842 37.268V35.618L38.5092 34.0618C42.0904 33.1993 47.2092 31.9618 49.8904 31.3243C52.5717 30.6681 54.9154 30.1431 55.1029 30.1243C55.3842 30.1056 55.4217 30.3118 55.4217 31.7743ZM68.3591 32.8243C74.6029 34.3243 79.7778 35.543 79.8528 35.543C79.9278 35.543 79.9841 36.293 79.9841 37.2305C79.9841 38.5618 79.9278 38.918 79.7216 38.918C79.5716 38.918 74.3404 37.6993 68.0966 36.1993C61.8341 34.6993 56.6779 33.4805 56.6404 33.4805C56.5842 33.4805 56.5467 32.7118 56.5467 31.793C56.5467 30.6306 56.6217 30.1056 56.7717 30.1056C56.8842 30.1056 62.0966 31.3243 68.3591 32.8243ZM68.2841 37.2493C74.7716 38.7868 80.1341 40.118 80.2091 40.193C80.2841 40.268 82.1403 42.8555 84.3528 45.9305L88.3653 51.5368L84.2591 57.2742L80.1341 63.0117L68.0779 65.8992L56.0217 68.7867L43.9279 65.8992L31.8342 63.0117L27.7655 57.3305C25.328 53.9368 23.7342 51.5555 23.7905 51.3868C23.8467 51.2555 25.6842 48.6305 27.8592 45.593L31.8342 40.0618L34.7592 39.368C36.3904 38.993 41.6592 37.7368 46.5154 36.5555C51.3717 35.393 55.5904 34.4368 55.9092 34.4368C56.2279 34.418 61.7966 35.693 68.2841 37.2493ZM27.0905 45.0305C24.9155 48.068 23.0405 50.5243 22.9467 50.5055C22.853 50.468 22.6092 50.1868 22.4217 49.868L22.0467 49.2868L26.5092 43.0805L30.953 36.8555L31.0092 38.168L31.0655 39.4993L27.0905 45.0305ZM85.4591 43.043C87.7653 46.2868 89.7341 49.0618 89.8091 49.1743C89.9403 49.3993 89.2278 50.543 88.9653 50.543C88.8903 50.543 87.0528 48.068 84.8778 45.0305L80.9216 39.518V38.1493C80.9216 37.3805 80.9966 36.8555 81.0716 36.9493C81.1653 37.0618 83.1341 39.7993 85.4591 43.043Z" fill="#22282B"/>
<path d="M59.3968 44.5068L51.8594 46.7005L47.9219 51.2568L43.9844 55.813V57.1255C43.9844 58.7005 44.0969 58.7755 45.7281 58.3255C49.3656 57.313 59.8468 54.238 60.0343 54.1443C60.1468 54.0693 62.0031 52.0068 64.1218 49.5318L68.0031 45.0505L67.9468 43.7193C67.8906 42.4443 67.8718 42.388 67.4218 42.3505C67.1593 42.3318 63.5593 43.3068 59.3968 44.5068ZM65.8093 43.8318C65.7343 43.963 64.3281 45.613 62.6781 47.5068L59.7156 50.9193L58.9281 50.4693C54.9156 48.1443 53.8094 47.488 53.6781 47.3755C53.6031 47.2818 54.4469 46.963 55.5531 46.6255C56.6593 46.3068 59.4343 45.5005 61.7031 44.8443C63.9718 44.188 65.8468 43.6255 65.8843 43.6255C65.9218 43.6068 65.8843 43.7193 65.8093 43.8318ZM67.0468 44.4318C67.0468 44.6193 62.2843 50.3193 60.3718 52.4005C60.3343 52.438 60.2968 52.3068 60.2968 52.1005C60.2968 51.8943 60.9906 50.938 61.8343 49.963C65.2656 45.988 66.8781 44.1693 66.9531 44.1693C67.0093 44.1693 67.0468 44.2818 67.0468 44.4318ZM55.6094 49.663C56.7906 50.338 57.9343 51.013 58.1218 51.163C58.4968 51.4255 58.4968 51.4443 58.1218 51.538C57.9343 51.5943 55.2344 52.3818 52.1406 53.263C49.0469 54.1443 46.4031 54.913 46.2719 54.9505C45.8969 55.0818 46.1031 54.8193 49.2906 51.1443L52.2719 47.7318L52.8531 48.088C53.1906 48.2755 54.4281 48.988 55.6094 49.663ZM59.3218 52.8318L59.2656 53.4318L52.6094 55.363C44.1344 57.8005 44.9219 57.6505 44.9219 56.938C44.9219 56.413 44.9969 56.338 46.0094 56.0568C50.1156 54.838 59.0968 52.2505 59.2281 52.2505C59.3218 52.2318 59.3593 52.4943 59.3218 52.8318Z" fill="#E81899"/>
<g opacity="0.1">
<g filter="url(#filter0_f_707_1976)">
<ellipse cx="17.1472" cy="28.2411" rx="17.1472" ry="28.2411" transform="matrix(-0.0370296 0.999314 0.999314 0.0370296 32.6875 31.125)" fill="url(#paint0_linear_707_1976)"/>
</g>
<g filter="url(#filter1_f_707_1976)">
<ellipse cx="12.5467" cy="20.6642" rx="12.5467" ry="20.6642" transform="matrix(-0.0370296 0.999314 0.999314 0.0370296 28.9219 41.4922)" fill="url(#paint1_linear_707_1976)"/>
</g>
</g>
<defs>
<filter id="filter0_f_707_1976" x="18.2707" y="18.3625" width="84.0054" height="61.8882" filterUnits="userSpaceOnUse" color-interpolation-filters="sRGB">
<feFlood flood-opacity="0" result="BackgroundImageFix"/>
<feBlend mode="normal" in="SourceGraphic" in2="BackgroundImageFix" result="shape"/>
<feGaussianBlur stdDeviation="6.88807" result="effect1_foregroundBlur_707_1976"/>
</filter>
<filter id="filter1_f_707_1976" x="21.5651" y="35.3463" width="55.0886" height="38.8992" filterUnits="userSpaceOnUse" color-interpolation-filters="sRGB">
<feFlood flood-opacity="0" result="BackgroundImageFix"/>
<feBlend mode="normal" in="SourceGraphic" in2="BackgroundImageFix" result="shape"/>
<feGaussianBlur stdDeviation="3.44403" result="effect1_foregroundBlur_707_1976"/>
</filter>
<linearGradient id="paint0_linear_707_1976" x1="17.1472" y1="0" x2="17.1472" y2="56.4822" gradientUnits="userSpaceOnUse">
<stop stop-color="#FF7BCA"/>
<stop offset="1" stop-color="#FFC56F" stop-opacity="0.46"/>
</linearGradient>
<linearGradient id="paint1_linear_707_1976" x1="12.5467" y1="0" x2="12.5467" y2="41.3284" gradientUnits="userSpaceOnUse">
<stop stop-color="#F22FB0"/>
<stop offset="1" stop-color="#F58A25" stop-opacity="0"/>
<stop offset="1" stop-color="#7061A3"/>
</linearGradient>
</defs>
</svg>
