<svg width="112" height="112" viewBox="0 0 112 112" fill="none" xmlns="http://www.w3.org/2000/svg">
<path d="M32.6356 12.5719L27.6394 15.4544V32.8772V50.3L25.3975 51.517L23.1556 52.734V64.1998C23.1556 71.3739 23.4118 75.6015 23.7961 75.6015C25.0132 75.6015 24.4367 76.9466 22.8353 77.6512C21.6183 78.1636 20.9137 79.4447 19.8248 82.7115C19.0561 85.1456 18.5437 87.1953 18.7358 87.3234C18.928 87.5156 33.9808 96.3551 46.4073 103.529C48.4571 104.746 50.4428 105.707 50.7631 105.707C51.5958 105.707 65.3675 98.0205 65.8158 97.3159C66.008 96.9956 65.8799 95.7145 65.4956 94.4975C65.1753 93.2805 65.0472 92.2556 65.1753 92.2556C65.3675 92.2556 69.1467 94.4335 73.6945 97.0597C78.1783 99.6859 82.3419 101.864 82.9824 101.864C83.5589 101.864 86.1851 100.647 88.8114 99.1735L93.6155 96.4191V69.0679V41.7807L85.4805 36.9766C77.8581 32.4928 70.2356 28.0731 47.9447 15.2622C43.1406 12.5079 38.7849 10.1378 38.3365 10.0097C37.9522 9.88161 35.3259 11.0346 32.6356 12.5719ZM50.1866 19.6179C56.6561 23.333 67.225 29.4823 73.7586 33.3255C80.2921 37.1047 86.5695 40.6918 87.7225 41.2683C88.8114 41.8448 89.7722 42.5494 89.7722 42.8056C89.7722 43.4461 84.1995 46.777 83.1105 46.777C82.6621 46.777 77.0894 43.8305 70.8121 40.1794C64.5347 36.5283 53.1331 29.9947 45.5746 25.7031C38.0162 21.3474 31.5467 17.5681 31.2264 17.3119C30.7781 16.8635 36.8632 12.8281 38.0162 12.8281C38.2724 12.8281 43.7811 15.9027 50.1866 19.6179ZM70.4278 41.1402L82.7262 48.2502V73.4236C82.7262 87.3234 82.47 98.661 82.2138 98.661C81.9576 98.661 77.4097 96.0989 72.1572 93.0243C66.8407 89.8856 60.0509 85.9783 56.9763 84.1847C53.7736 82.4553 51.3395 80.5977 51.3395 80.0853C51.3395 79.5728 53.1971 78.0996 55.439 76.8185L59.5385 74.4485L69.0826 80.0853C74.271 83.1599 78.7548 85.5939 79.0751 85.4018C79.3313 85.2737 79.5235 77.2669 79.5235 67.6587V50.1718L69.4669 44.3429C63.8942 41.2042 53.5814 35.2472 46.5355 31.2117L33.7246 23.8455L33.5324 36.208L33.4043 48.5705L31.8029 49.5954L30.2016 50.6202V34.3504V18.0806L44.1654 26.0874C51.7879 30.5071 63.638 37.2969 70.4278 41.1402ZM36.0305 26.2795C37.1195 26.9201 37.2476 27.7528 37.2476 36.7845V46.5848L35.6462 47.2894L34.0448 48.0581V36.8485C34.0448 30.6993 34.237 25.639 34.4292 25.639C34.6213 25.639 35.3259 25.9593 36.0305 26.2795ZM58.7058 39.4107L77.9221 50.5562L78.1143 64.7763C78.2424 76.0498 78.1143 78.8682 77.4737 78.612C77.0254 78.4198 72.9259 76.1139 68.314 73.4877L59.9869 68.6836L59.7947 61.0611L59.6026 53.5027L51.0193 48.5064C42.436 43.5742 42.3719 43.5102 40.4503 44.5351L38.5287 45.5599V36.8485C38.5287 32.1085 38.7208 28.2012 39.0411 28.2012C39.2973 28.2012 48.1368 33.2615 58.7058 39.4107ZM91.0533 69.4522V94.6897L87.7225 96.6113C85.8649 97.7002 84.1354 98.4048 83.8792 98.2767C83.623 98.0846 83.3667 86.811 83.3667 73.1674V48.3783L86.7616 46.3286C88.5552 45.1756 90.2846 44.2788 90.6049 44.2148C90.8611 44.2148 91.0533 55.5524 91.0533 69.4522ZM49.8022 49.147C53.8377 51.4529 57.2966 53.6308 57.4888 53.887C57.6169 54.1432 56.3998 55.1681 54.7344 56.1289C53.005 57.0897 49.6101 59.0754 47.0479 60.6127L42.436 63.3671L34.4292 58.7551C30.0094 56.257 26.4864 54.1432 26.5505 54.0792C26.8067 53.7589 42.0516 44.8553 42.2438 44.8553C42.3719 44.8553 45.7668 46.777 49.8022 49.147ZM35.8384 60.8049L41.7314 64.1998V73.4236C41.7314 78.4839 41.6033 82.6474 41.4752 82.6474C41.347 82.6474 37.76 80.5977 33.4684 78.0996L25.7178 73.5517V64.2638V54.9759L27.8316 56.257C28.9205 56.8976 32.5716 59.0114 35.8384 60.8049ZM59.0261 57.2178C59.0261 58.2427 57.6169 59.9081 54.6063 62.5984C50.8271 65.9933 50.1866 66.9541 49.8022 69.3241C48.1368 80.0212 48.2009 79.829 45.5106 81.3023L42.9484 82.7755L43.1406 73.3595L43.3327 63.9435L50.3787 59.8441C54.286 57.6022 57.809 55.7446 58.2574 55.7446C58.6417 55.7446 59.0261 56.3851 59.0261 57.2178ZM59.0261 67.2103V73.4877L54.4141 76.1779C51.916 77.6512 49.7382 78.7401 49.6741 78.612C49.546 78.4839 49.8663 75.7936 50.4428 72.6549C51.3395 67.0182 51.4036 66.8901 54.7344 63.9435C56.592 62.2781 58.2574 60.8689 58.5777 60.8689C58.8339 60.8689 59.0261 63.6873 59.0261 67.2103ZM69.6591 75.4093C77.4737 79.9572 78.2424 80.5977 78.2424 82.1991C78.2424 83.2239 77.9862 83.9285 77.6659 83.8004C77.2816 83.6723 73.118 81.3023 68.378 78.4839C61.3961 74.3204 59.7307 73.1033 59.6666 71.8863C59.6666 71.1176 59.9869 70.4771 60.4353 70.4771C60.8196 70.4771 64.9831 72.719 69.6591 75.4093ZM31.5467 78.2277C33.02 79.2526 33.4043 80.0212 33.4043 81.9428C33.4043 84.2488 33.5965 84.441 37.6319 86.6829C40.0019 87.964 42.1157 89.0529 42.3719 89.0529C43.589 89.0529 51.3395 84.2488 51.3395 83.4801C51.3395 83.0318 51.5317 82.6474 51.7239 82.6474C52.0441 82.6474 59.6666 87.0031 60.179 87.4515C60.3072 87.5796 57.745 89.1169 54.5423 90.9745L48.7774 94.3053L46.023 92.704C44.5498 91.8713 39.1692 88.7967 34.0448 85.8502C28.9205 82.9677 24.6288 80.4696 24.5648 80.4055C24.3726 80.2134 28.8564 77.0107 29.4329 76.9466C29.561 76.8825 30.5219 77.459 31.5467 78.2277ZM38.2084 82.0709C40.9627 83.6083 41.7314 84.3769 41.7314 85.5939C41.7314 87.5796 41.1549 87.5156 37.2476 85.3377C34.6213 83.9285 34.0448 83.288 34.0448 81.8147C34.0448 80.8539 34.173 80.0853 34.3651 80.0853C34.5573 80.0853 36.2867 80.982 38.2084 82.0709ZM50.0584 81.9428C50.0584 83.5442 49.546 84.1207 46.5355 85.7221L43.0125 87.6437V85.8502C43.0125 84.3129 43.589 83.7364 46.4073 82.0709C48.2009 80.982 49.8022 80.0853 49.9303 80.0853C49.9944 80.0853 50.0584 80.918 50.0584 81.9428ZM34.6854 87.3875C39.8097 90.334 44.87 93.2805 46.023 93.921C47.5603 94.8178 48.2649 95.9067 48.9695 98.3408C49.482 100.07 49.6741 101.608 49.4179 101.736C48.5852 102.056 21.8745 86.2345 21.8745 85.4018C21.8745 85.0175 22.1948 83.8645 22.515 82.9677C23.3478 80.8539 22.9634 80.6618 34.6854 87.3875ZM62.1647 92.5118C62.6131 94.2413 62.6772 95.9067 62.421 96.1629C61.0758 97.444 51.6598 102.44 51.2755 101.992C50.5068 101.159 49.2898 95.2021 49.8663 94.9459C50.1225 94.8818 52.6847 93.3445 55.5031 91.6791C58.3215 89.9496 60.8196 88.7326 61.0118 88.9888C61.268 89.181 61.7804 90.7824 62.1647 92.5118Z" fill="black"/>
<path d="M73.75 87.3859C73.75 89.948 73.9422 90.3324 76.056 91.5494C77.273 92.318 78.5541 92.8945 78.9384 92.8945C79.2587 92.8945 79.5149 91.6134 79.5149 90.0121C79.5149 87.3218 79.3868 87.0656 76.9527 85.8485C75.6076 85.1439 74.2624 84.5675 74.0703 84.5675C73.8781 84.5675 73.75 85.8485 73.75 87.3859ZM77.0168 87.1296C77.7854 87.578 78.2338 88.4748 78.2338 89.7559C78.2338 91.6134 78.2338 91.6134 76.6324 90.5886C75.6716 89.948 75.0311 88.9232 75.0311 88.0264C75.0311 86.2969 75.2233 86.2329 77.0168 87.1296Z" fill="black"/>
<g opacity="0.1">
<g filter="url(#filter0_f_707_1984)">
<ellipse cx="17.1472" cy="28.2411" rx="17.1472" ry="28.2411" transform="matrix(-0.0370296 0.999314 0.999314 0.0370296 23.6953 43.125)" fill="url(#paint0_linear_707_1984)"/>
</g>
<g filter="url(#filter1_f_707_1984)">
<ellipse cx="12.5467" cy="20.6642" rx="12.5467" ry="20.6642" transform="matrix(-0.0370296 0.999314 0.999314 0.0370296 19.9297 53.4922)" fill="url(#paint1_linear_707_1984)"/>
</g>
</g>
<defs>
<filter id="filter0_f_707_1984" x="9.27855" y="30.3625" width="84.0054" height="61.8882" filterUnits="userSpaceOnUse" color-interpolation-filters="sRGB">
<feFlood flood-opacity="0" result="BackgroundImageFix"/>
<feBlend mode="normal" in="SourceGraphic" in2="BackgroundImageFix" result="shape"/>
<feGaussianBlur stdDeviation="6.88807" result="effect1_foregroundBlur_707_1984"/>
</filter>
<filter id="filter1_f_707_1984" x="12.5729" y="47.3463" width="55.0886" height="38.8992" filterUnits="userSpaceOnUse" color-interpolation-filters="sRGB">
<feFlood flood-opacity="0" result="BackgroundImageFix"/>
<feBlend mode="normal" in="SourceGraphic" in2="BackgroundImageFix" result="shape"/>
<feGaussianBlur stdDeviation="3.44403" result="effect1_foregroundBlur_707_1984"/>
</filter>
<linearGradient id="paint0_linear_707_1984" x1="17.1472" y1="0" x2="17.1472" y2="56.4822" gradientUnits="userSpaceOnUse">
<stop stop-color="#6321B6"/>
<stop offset="1" stop-color="#FFC56F" stop-opacity="0.46"/>
</linearGradient>
<linearGradient id="paint1_linear_707_1984" x1="12.5467" y1="0" x2="12.5467" y2="41.3284" gradientUnits="userSpaceOnUse">
<stop stop-color="#6321B6"/>
<stop offset="1" stop-color="#F58A25" stop-opacity="0"/>
<stop offset="1" stop-color="#7061A3"/>
</linearGradient>
</defs>
</svg>
