<svg width="112" height="112" viewBox="0 0 112 112" fill="none" xmlns="http://www.w3.org/2000/svg">
<path d="M67.1034 17.1355C63.3066 17.2461 56.3641 17.4673 51.4983 17.6147C49.434 17.6761 44.6788 17.8236 40.9311 17.9219L34.1116 18.1185L32.8828 18.8312C30.8431 20.023 27.3535 22.0505 25.326 23.2055C24.2816 23.8076 23.3846 24.3605 23.3355 24.4342C23.2863 24.4957 23.2372 29.2632 23.2372 35.0137V45.4704L23.5566 46.0725C23.7287 46.4042 24.4291 47.6207 25.1049 48.788C25.7807 49.9553 26.2967 50.9506 26.2599 51.0243C26.223 51.0857 25.8421 51.3315 25.412 51.5649C24.9943 51.7984 23.6304 52.5848 22.377 53.3098C21.1237 54.0347 19.4281 55.0177 18.5925 55.4846C17.7693 55.9639 17.0689 56.3939 17.032 56.4431C16.9829 56.5291 19.3298 60.6454 24.6134 69.775C25.1172 70.6474 26.1862 72.5028 26.9848 73.8913C27.7835 75.2797 28.8034 77.0491 29.258 77.8232C29.7004 78.5973 30.5359 80.035 31.1011 81.018C32.2807 83.0577 33.3252 84.8885 34.7751 87.3829C35.3403 88.3413 35.8441 89.1277 35.9055 89.1277C36.0038 89.1277 37.122 88.501 41.7298 85.8347C44.8017 84.053 45.2563 83.8195 45.3546 83.9178C45.4037 83.9792 45.7724 84.5813 46.1656 85.2571C48.2421 88.8819 50.9085 93.4897 50.9454 93.5389C50.9945 93.5758 51.8178 93.1334 53.4029 92.1996C53.9435 91.8801 54.6316 91.4746 54.9388 91.3149C55.246 91.1428 56.3764 90.4916 57.4577 89.8649C58.539 89.2383 62.6307 86.8791 66.5504 84.6182C70.4701 82.3573 74.5127 80.0227 75.5203 79.4329C76.5401 78.8431 78.1375 77.9092 79.0837 77.3686C90.2898 70.9054 90.0809 71.0283 90.0809 70.8562C90.0809 70.7702 89.8352 70.3033 89.5526 69.8118C88.1764 67.5263 86.5176 64.5896 86.5176 64.4668C86.5176 64.393 87.3285 63.8647 88.3361 63.2872C94.0743 59.9941 94.9468 59.4781 95.0942 59.2938C95.2048 59.1463 95.2417 56.7871 95.2417 48.4931V37.889L94.8485 37.4712C94.529 37.1395 90.4864 33.6253 86.5667 30.2708C86.2964 30.0373 85.2151 29.1035 84.1707 28.1942C83.1262 27.2849 81.1234 25.5401 79.698 24.3114C78.285 23.0826 75.8029 20.9323 74.1932 19.5438L71.2565 17.0003L70.6913 17.0249C70.3718 17.0249 68.7622 17.0863 67.1034 17.1355ZM68.369 19.5438C68.4181 19.5807 68.2461 19.7404 68.0004 19.8879C67.7423 20.0353 66.7348 20.6128 65.7518 21.1781C64.7688 21.7433 63.3311 22.5788 62.5447 23.0335C60.8245 24.041 61.66 23.9427 52.4813 24.1885C42.5408 24.4711 37.8838 24.6063 34.2713 24.7414C30.1673 24.9012 27.378 24.9012 27.4641 24.7537C27.5132 24.6923 27.8818 24.4465 28.3119 24.2131C28.7297 23.9796 30.3762 23.0335 31.9613 22.1119L34.8488 20.4408H36.2004C36.9377 20.4408 38.9897 20.3794 40.7468 20.3179C42.5039 20.2442 45.9075 20.1336 48.3036 20.0722C61.488 19.7036 65.6166 19.5807 66.0589 19.5438C67.0665 19.4578 68.2953 19.4578 68.369 19.5438ZM78.2481 26.1791C82.4381 29.8162 87.3408 34.0553 89.1348 35.6158C91.6414 37.7784 92.3664 38.4788 92.2558 38.5894C92.1698 38.6631 90.2652 39.7813 88.0289 41.0837C85.4731 42.546 83.8758 43.3938 83.7897 43.3446C83.6423 43.2463 80.5704 40.6045 74.9059 35.6773C73.6157 34.5591 70.1998 31.6101 67.3123 29.1035C64.4247 26.6091 62.0778 24.5203 62.1024 24.4588C62.1147 24.4097 63.2697 23.697 64.6705 22.8983C66.0589 22.0873 67.9144 21.0183 68.7745 20.5145C69.6469 20.0108 70.421 19.593 70.4947 19.593C70.5684 19.5807 74.0581 22.5543 78.2481 26.1791ZM58.8708 25.0732C58.8708 25.1346 58.0844 25.6261 57.1137 26.1668C55.5163 27.0883 51.3017 29.509 48.6108 31.0695C48.0087 31.4135 46.2393 32.4457 44.6788 33.3427C35.5738 38.5894 36.139 38.2453 36.139 38.5771C36.139 38.8106 40.501 46.4902 40.9557 47.0677C41.2014 47.3872 41.0786 47.4364 44.6788 45.3598C53.7715 40.1007 56.8556 38.3436 57.0277 38.2945C57.1874 38.2576 57.4454 38.614 58.109 39.7567C58.5759 40.5923 59.35 41.9316 59.8169 42.7426C60.2961 43.5535 61.1071 44.9666 61.6355 45.8759C62.1638 46.7851 63.1222 48.4439 63.7612 49.5621C64.4124 50.6802 65.7149 52.9411 66.6733 54.5999C67.6195 56.2588 70.6299 61.4563 73.3454 66.1624C76.0609 70.8685 78.3095 74.7882 78.3464 74.8865C78.4201 75.0954 74.6233 77.2949 74.4759 77.1229C74.4021 77.0368 72.9276 74.4933 68.7008 67.1331C67.3737 64.8354 65.4814 61.5546 65.334 61.3212C65.2603 61.2106 65.076 61.1123 64.9285 61.1123C64.7073 61.1123 61.3283 62.9677 60.8736 63.3486C60.5787 63.5821 60.7139 63.9384 61.6478 65.5726C62.6062 67.2192 63.7243 69.1483 65.3217 71.9253C67.0419 74.9111 68.5533 77.5283 69.2291 78.6834C69.5977 79.3223 69.8803 79.8875 69.8558 79.9367C69.782 80.0473 67.1648 81.5095 67.0174 81.5095C66.9559 81.5095 65.5552 79.1749 63.9086 76.3119C57.3103 64.8723 57.642 65.4129 57.3471 65.4129C57.1014 65.4252 53.3046 67.6861 53.1694 67.9073C53.0711 68.067 53.0834 68.2022 53.2308 68.4602C53.3291 68.6445 54.1893 70.119 55.1231 71.7409C56.057 73.3629 57.5192 75.9064 58.3793 77.3932C59.2394 78.88 60.4804 81.0303 61.144 82.173C61.7952 83.3034 62.2867 84.2864 62.2253 84.3356C61.9181 84.6428 59.4483 85.9452 59.3623 85.8592C59.264 85.7609 58.8462 85.036 56.1061 80.2807C55.6146 79.4329 54.9019 78.1919 54.5087 77.516C53.8698 76.4225 53.2063 75.2552 50.8594 71.2003C50.4907 70.5613 50.0975 69.9716 49.9747 69.9101C49.8149 69.7995 49.5815 69.8733 48.8811 70.2542C47.4926 71.0037 45.7478 72.0604 45.5881 72.2447C45.4406 72.4168 45.6618 72.8468 47.6892 76.3487C48.1807 77.1966 49.2006 78.966 49.9624 80.2807C50.7242 81.5955 51.7441 83.3649 52.2356 84.2127C54.3613 87.8989 54.6931 88.4887 54.6931 88.5993C54.6931 88.7591 52.1127 90.2459 51.9038 90.209C51.8055 90.1844 51.4123 89.6192 51.0191 88.9434C50.1958 87.5057 49.8149 86.8545 44.3102 77.3317C42.0247 73.3752 39.7638 69.4555 39.2723 68.6076C38.7808 67.7598 38.0681 66.5188 37.6749 65.843C36.8885 64.4913 35.6475 62.3288 34.2467 59.9081C33.7552 59.048 32.932 57.6227 32.4282 56.7502C31.9244 55.8656 30.9783 54.2436 30.3393 53.1255C29.6881 52.0073 28.7665 50.4099 28.275 49.5621C27.7958 48.7143 27.0094 47.3626 26.5425 46.5394L25.6947 45.0649V35.5298V25.9948L26.9603 25.921C27.6484 25.8842 30.155 25.7859 32.5142 25.7244C40.6239 25.491 49.7166 25.2206 52.297 25.1223C55.8481 24.9872 58.8708 24.9749 58.8708 25.0732ZM69.266 32.0525C73.714 35.8984 78.0515 39.6584 78.8993 40.4079C79.7595 41.1452 81.0988 42.3125 81.8852 42.9883L83.3228 44.217L83.286 53.8627L83.2614 63.4961L81.8483 64.307C81.0742 64.7617 79.354 65.7447 78.0392 66.5065C76.4296 67.4403 75.594 67.8581 75.4834 67.7844C75.3851 67.7352 74.8813 66.9366 74.3653 66.0273C73.8369 65.118 71.5392 61.1369 69.2537 57.1803C66.9682 53.2238 64.695 49.2918 64.2035 48.4194C62.127 44.8437 60.1241 41.3664 58.7602 38.9949C57.8141 37.3729 57.5683 37.0289 57.3349 37.0289C57.2488 37.0289 56.3887 37.4958 55.418 38.0487C44.7525 44.2293 41.6192 46.011 41.4963 45.9619C41.4226 45.925 40.9065 45.1386 40.3536 44.2048C37.2572 38.9212 37.2203 38.8474 37.3923 38.6877C37.4783 38.6017 38.8545 37.7907 40.4396 36.8814C44.9491 34.2888 55.7006 28.0836 59.7923 25.6999C60.4682 25.3067 61.058 24.9995 61.0948 25.024C61.144 25.0363 64.8179 28.1942 69.266 32.0525ZM92.7842 48.7388V57.9913L90.3635 59.4043C89.0242 60.1662 87.82 60.8665 87.6849 60.9403C87.5497 61.0017 86.7633 61.4686 85.94 61.9478C85.1168 62.4393 84.4164 62.8325 84.3795 62.8325C84.3427 62.8325 84.3058 58.6671 84.3058 53.5801V44.3276L88.459 41.9193C90.7322 40.5923 92.6367 39.4987 92.6982 39.4987C92.7473 39.4864 92.7842 43.6518 92.7842 48.7388ZM29.5898 53.7152C29.9953 54.4402 30.7448 55.7181 31.224 56.5659C31.7155 57.4138 32.6371 59.0111 33.2883 60.1293C36.6674 65.9904 38.019 68.325 39.0266 70.0821C39.518 70.93 40.3413 72.3676 40.8697 73.2769C41.9018 75.0586 43.02 76.9877 44.3839 79.3715C44.8508 80.1824 45.2317 80.9074 45.2317 80.9688C45.2317 81.104 42.6513 82.6153 42.4302 82.6153C42.3564 82.6153 41.9387 81.9887 41.5086 81.2269C40.5748 79.5926 34.6645 69.3326 33.3743 67.1331C32.8828 66.2853 32.3545 65.376 32.207 65.1057C32.0596 64.8354 30.6957 62.4885 29.1966 59.8835C27.6975 57.2786 26.3336 54.9194 26.1739 54.6368C25.9773 54.2928 25.9158 54.0839 26.0018 53.9979C26.1493 53.8627 28.6682 52.3882 28.7665 52.3882C28.8034 52.3882 29.172 52.978 29.5898 53.7152ZM25.6701 55.669C26.0141 56.271 26.6777 57.4383 27.1692 58.2862C27.6607 59.134 28.5699 60.7068 29.1966 61.7881C29.8232 62.8694 30.6465 64.307 31.0397 64.9828C31.4329 65.6587 32.2807 67.1209 32.9197 68.239C33.5709 69.3572 34.7997 71.4829 35.6475 72.9697C36.5076 74.4565 38.1541 77.3195 39.3214 79.3223C40.4765 81.3252 41.4226 83.0454 41.4226 83.1314C41.4226 83.2174 41.2137 83.4017 40.9557 83.5492C40.7099 83.6844 39.6778 84.2864 38.6579 84.8639C37.6504 85.4537 36.7902 85.933 36.7411 85.933C36.6919 85.933 36.3847 85.4537 36.0407 84.8639C35.2789 83.5246 32.207 78.2041 30.9414 76.0047C30.4253 75.12 29.5775 73.6455 29.0614 72.7485C27.8573 70.6842 26.5179 68.3619 25.3752 66.359C24.8714 65.4989 24.0604 64.0981 23.5566 63.2257C21.5415 59.7238 20.7674 58.3968 20.5339 58.0159C20.3988 57.7947 20.2882 57.5244 20.2882 57.4261C20.2882 57.3155 21.05 56.7994 22.1682 56.1727C23.188 55.5829 24.2079 54.9809 24.4045 54.858C24.6134 54.7228 24.8345 54.6122 24.9206 54.6122C24.9943 54.5999 25.3383 55.0792 25.6701 55.669ZM65.2726 63.1029C65.5552 63.5944 66.2064 64.7125 66.7102 65.5972C67.214 66.4696 68.0495 67.9073 68.5533 68.792C69.0571 69.6644 69.8435 71.0283 70.2981 71.8024C70.7528 72.5765 71.6743 74.1861 72.3624 75.378C73.0505 76.5576 73.6157 77.5898 73.6157 77.6635C73.6157 77.8478 71.0599 79.3223 70.8265 79.2732C70.7282 79.2486 69.9172 77.9953 69.0448 76.4716C68.1601 74.948 66.9191 72.7977 66.2678 71.6795C65.6289 70.5613 64.6828 68.9271 64.179 68.0547C61.8689 64.049 61.7829 63.8893 61.9549 63.791C62.0532 63.7295 62.6799 63.3609 63.3557 62.9554C64.0315 62.5622 64.6213 62.2305 64.6705 62.2182C64.7196 62.2182 64.9899 62.6237 65.2726 63.1029ZM84.1338 65.1794C84.3427 65.5481 85.0431 66.7645 85.6943 67.895C86.3455 69.0254 86.8862 69.9961 86.8862 70.0453C86.8862 70.1067 85.8418 70.7334 84.5761 71.4706C83.3105 72.1956 81.6763 73.1417 80.9268 73.5841C80.1895 74.0141 79.4891 74.3705 79.3908 74.3827C79.2925 74.3827 79.1451 74.2844 79.0714 74.1616C78.4693 73.2032 76.0732 68.964 76.0732 68.8657C76.0732 68.8042 76.7736 68.3373 77.646 67.8335C82.1678 65.1917 83.5194 64.4299 83.63 64.4668C83.7037 64.4913 83.9249 64.8108 84.1338 65.1794ZM57.9124 67.8335C58.2933 68.4971 59.006 69.7258 59.4852 70.5736C59.9767 71.4215 60.9105 73.0188 61.5495 74.137C62.1884 75.2552 63.1345 76.8771 63.6383 77.7618C66.1204 82.0255 66.1327 82.0501 65.8992 82.2221C65.5797 82.4679 63.3311 83.7212 63.2083 83.7212C63.1591 83.7212 62.7905 83.156 62.3973 82.4556C62.0164 81.7675 61.3529 80.6248 60.9474 79.9121C60.5296 79.2117 59.6818 77.7372 59.0551 76.6559C58.4407 75.5746 57.384 73.7438 56.7205 72.6011C56.057 71.446 55.246 70.0453 54.9142 69.4801C54.5948 68.9148 54.3244 68.3865 54.3244 68.3127C54.3244 68.1653 56.8434 66.6662 57.1014 66.6539C57.1751 66.6417 57.5437 67.1823 57.9124 67.8335ZM50.2819 72.085C50.6013 72.6379 51.2526 73.7807 51.7441 74.6285C52.2356 75.4763 53.1571 77.0614 53.7838 78.155C54.4227 79.2609 55.4795 81.0794 56.1307 82.2099C58.3424 86.0558 58.5022 86.3384 58.5022 86.4245C58.5022 86.5228 55.6883 88.1938 55.6269 88.1324C55.5409 88.0218 54.9511 87.0511 54.6316 86.4859C54.3244 85.9207 51.7932 81.534 49.7781 78.069C47.7629 74.6039 46.6693 72.6502 46.7185 72.6011C46.9274 72.4045 49.4955 70.9914 49.5938 71.0283C49.6675 71.0528 49.9747 71.5198 50.2819 72.085Z" fill="black"/>
<g opacity="0.1">
<g filter="url(#filter0_f_707_2647)">
<ellipse cx="17.1472" cy="28.2411" rx="17.1472" ry="28.2411" transform="matrix(-0.0370296 0.999314 0.999314 0.0370296 38.6953 48.125)" fill="url(#paint0_linear_707_2647)"/>
</g>
<g filter="url(#filter1_f_707_2647)">
<ellipse cx="12.5467" cy="20.6642" rx="12.5467" ry="20.6642" transform="matrix(-0.0370296 0.999314 0.999314 0.0370296 34.9297 58.4922)" fill="url(#paint1_linear_707_2647)"/>
</g>
</g>
<defs>
<filter id="filter0_f_707_2647" x="24.2785" y="35.3625" width="84.0054" height="61.8882" filterUnits="userSpaceOnUse" color-interpolation-filters="sRGB">
<feFlood flood-opacity="0" result="BackgroundImageFix"/>
<feBlend mode="normal" in="SourceGraphic" in2="BackgroundImageFix" result="shape"/>
<feGaussianBlur stdDeviation="6.88807" result="effect1_foregroundBlur_707_2647"/>
</filter>
<filter id="filter1_f_707_2647" x="27.5729" y="52.3463" width="55.0886" height="38.8992" filterUnits="userSpaceOnUse" color-interpolation-filters="sRGB">
<feFlood flood-opacity="0" result="BackgroundImageFix"/>
<feBlend mode="normal" in="SourceGraphic" in2="BackgroundImageFix" result="shape"/>
<feGaussianBlur stdDeviation="3.44403" result="effect1_foregroundBlur_707_2647"/>
</filter>
<linearGradient id="paint0_linear_707_2647" x1="17.1472" y1="0" x2="17.1472" y2="56.4822" gradientUnits="userSpaceOnUse">
<stop stop-color="#E57BFF"/>
</linearGradient>
<linearGradient id="paint1_linear_707_2647" x1="12.5467" y1="0" x2="12.5467" y2="41.3284" gradientUnits="userSpaceOnUse">
<stop offset="1" stop-color="#7061A3"/>
</linearGradient>
</defs>
</svg>
