<svg width="116" height="111" viewBox="0 0 116 111" fill="none" xmlns="http://www.w3.org/2000/svg">
<path d="M57.7526 7.27539L56.9331 7.72095L53.6288 9.52597L52.7636 9.99755V10.9862L52.7344 64.9448V65.9042L53.5637 66.3856L90.1714 87.5807L91.0039 88.062L91.8365 87.5807L95.1669 85.6586L95.9994 85.1805V84.2178L96.0287 43.7952V43.3497L95.8043 42.9626L84.1481 22.7725L83.927 22.3887L83.54 22.1611L58.5625 7.74047L57.7526 7.27539ZM57.7234 9.66256L81.8748 23.6051L79.3738 25.0458L55.2744 10.9992L57.7234 9.66256ZM54.8451 11.7148L78.9607 25.7678V38.9884C78.9607 39.0615 78.9799 39.1334 79.0164 39.1968C79.0529 39.2602 79.1055 39.3128 79.1689 39.3494L90.6169 45.9547L90.5876 85.4179L54.8158 64.7041L54.8451 11.7148ZM82.5545 24.1742L93.7944 43.6424L91.1861 45.1482L79.9462 25.68L82.5545 24.1742ZM79.7933 27.0818L89.8949 44.579L79.7933 38.7477V27.0818ZM61.0277 35.6873C60.923 35.6955 60.8253 35.743 60.7541 35.8202C60.683 35.8974 60.6436 35.9986 60.6439 36.1036V39.9478C60.6438 40.0209 60.663 40.0928 60.6996 40.1562C60.7361 40.2196 60.7887 40.2722 60.8521 40.3088L84.1644 53.7667C84.2275 53.8031 84.299 53.8223 84.3718 53.8225C84.4447 53.8226 84.5163 53.8036 84.5795 53.7674C84.6427 53.7312 84.6953 53.679 84.732 53.6161C84.7687 53.5532 84.7883 53.4818 84.7888 53.409V49.5615C84.7883 49.4889 84.7689 49.4177 84.7324 49.3549C84.6959 49.2922 84.6436 49.2401 84.5807 49.2038L61.2684 35.7426C61.1956 35.7002 61.1117 35.681 61.0277 35.6873ZM61.4765 36.8256L83.9562 49.8022V52.687L61.4765 39.7071V36.8256ZM93.9473 44.5172L93.918 83.9771L91.4202 85.4179L91.4495 45.958L93.9473 44.5172ZM61.0277 45.301C60.923 45.3092 60.8253 45.3567 60.7541 45.4339C60.683 45.5111 60.6436 45.6123 60.6439 45.7173V49.5615C60.6438 49.6347 60.663 49.7066 60.6996 49.7699C60.7361 49.8333 60.7887 49.8859 60.8521 49.9225L79.1689 60.4989C79.2322 60.5355 79.304 60.5547 79.3772 60.5547C79.4503 60.5546 79.5221 60.5354 79.5854 60.4988C79.6487 60.4622 79.7012 60.4096 79.7377 60.3462C79.7742 60.2829 79.7934 60.211 79.7933 60.1379V56.2905C79.7928 56.2179 79.7734 56.1467 79.7369 56.0839C79.7004 56.0212 79.6481 55.969 79.5852 55.9327L61.2684 45.3563C61.1956 45.314 61.1117 45.2947 61.0277 45.301ZM61.4765 46.4361L78.9607 56.5312V59.4159L61.4765 49.3209V46.4361ZM61.0277 54.9148C60.923 54.923 60.8253 54.9704 60.7541 55.0476C60.683 55.1248 60.6436 55.2261 60.6439 55.3311V59.1753C60.6438 59.2484 60.663 59.3203 60.6996 59.3837C60.7361 59.4471 60.7887 59.4997 60.8521 59.5363L84.1644 72.9942C84.2275 73.0306 84.299 73.0498 84.3718 73.0499C84.4447 73.05 84.5163 73.0311 84.5795 72.9949C84.6427 72.9586 84.6953 72.9065 84.732 72.8436C84.7687 72.7807 84.7883 72.7093 84.7888 72.6364V68.789C84.7883 68.7164 84.7689 68.6452 84.7324 68.5824C84.6959 68.5197 84.6436 68.4675 84.5807 68.4312L61.2684 54.9701C61.1956 54.9277 61.1117 54.9084 61.0277 54.9148ZM61.4765 56.0531L83.9562 69.0297V71.9144L61.4765 58.9346V56.0531Z" fill="#BBBBBB"/>
<path d="M43.0495 12.875L38.7578 15.45V69.525L76.5245 90.9833L80.387 88.8375V48.0667L68.3703 27.4667L43.0495 12.875Z" fill="white"/>
<path d="M43.1589 11.5664L42.3393 12.012L39.035 13.817L38.1699 14.2886V15.2773L38.1406 69.2358V70.1952L38.97 70.6766L75.5776 91.8717L76.4102 92.353L77.2428 91.8717L80.5731 89.9496L81.4057 89.4715V88.5088L81.435 48.0862V47.6407L81.2105 47.2537L69.5544 27.0635L69.3332 26.6797L68.9462 26.4521L43.9687 12.0315L43.1589 11.5664ZM43.1296 13.9536L67.281 27.8961L64.78 29.3369L40.6807 15.2903L43.1296 13.9536ZM40.2514 16.0058L64.367 30.0589V43.2794C64.3669 43.3525 64.3861 43.4244 64.4227 43.4878C64.4592 43.5512 64.5118 43.6038 64.5751 43.6404L76.0232 50.2458L75.9939 89.7089L40.2221 68.9951L40.2514 16.0058ZM67.9608 28.4652L79.2006 47.9334L76.5923 49.4392L65.3524 29.9711L67.9608 28.4652ZM65.1996 31.3728L75.3012 48.87L65.1996 43.0387V31.3728ZM46.4339 39.9783C46.3293 39.9865 46.2316 40.034 46.1604 40.1112C46.0892 40.1884 46.0499 40.2896 46.0502 40.3946V44.2388C46.0501 44.312 46.0693 44.3838 46.1058 44.4472C46.1424 44.5106 46.195 44.5632 46.2583 44.5998L69.5706 58.0577C69.6337 58.0941 69.7053 58.1134 69.7781 58.1135C69.8509 58.1136 69.9225 58.0946 69.9857 58.0584C70.0489 58.0222 70.1015 57.97 70.1383 57.9071C70.175 57.8442 70.1946 57.7728 70.1951 57.7V53.8525C70.1946 53.7799 70.1751 53.7087 70.1386 53.646C70.1021 53.5832 70.0498 53.5311 69.9869 53.4948L46.6746 40.0336C46.6018 39.9913 46.5179 39.972 46.4339 39.9783ZM46.8827 41.1166L69.3625 54.0932V56.978L46.8827 43.9981V41.1166ZM79.3535 48.8083L79.3242 88.2682L76.8265 89.7089L76.8557 50.249L79.3535 48.8083ZM46.4339 49.592C46.3293 49.6003 46.2316 49.6477 46.1604 49.7249C46.0892 49.8021 46.0499 49.9033 46.0502 50.0083V53.8525C46.0501 53.9257 46.0693 53.9976 46.1058 54.061C46.1424 54.1243 46.195 54.177 46.2583 54.2135L64.5751 64.7899C64.6385 64.8265 64.7103 64.8457 64.7834 64.8457C64.8565 64.8457 64.9283 64.8264 64.9916 64.7898C65.0549 64.7532 65.1075 64.7006 65.144 64.6372C65.1805 64.5739 65.1997 64.5021 65.1996 64.4289V60.5815C65.1991 60.5089 65.1796 60.4377 65.1431 60.3749C65.1066 60.3122 65.0543 60.2601 64.9914 60.2237L46.6746 49.6473C46.6018 49.605 46.5179 49.5857 46.4339 49.592ZM46.8827 50.7271L64.367 60.8222V63.7069L46.8827 53.6119V50.7271ZM46.4339 59.2058C46.3293 59.214 46.2316 59.2615 46.1604 59.3387C46.0892 59.4158 46.0499 59.5171 46.0502 59.6221V63.4663C46.0501 63.5394 46.0693 63.6113 46.1058 63.6747C46.1424 63.7381 46.195 63.7907 46.2583 63.8273L69.5706 77.2852C69.6337 77.3216 69.7053 77.3408 69.7781 77.341C69.8509 77.3411 69.9225 77.3221 69.9857 77.2859C70.0489 77.2497 70.1015 77.1975 70.1383 77.1346C70.175 77.0717 70.1946 77.0003 70.1951 76.9275V73.08C70.1946 73.0074 70.1751 72.9362 70.1386 72.8734C70.1021 72.8107 70.0498 72.7586 69.9869 72.7223L46.6746 59.2611C46.6018 59.2187 46.5179 59.1995 46.4339 59.2058ZM46.8827 60.3441L69.3625 73.3207V76.2054L46.8827 63.2256V60.3441Z" fill="#22282B"/>
<path d="M28.4557 19.7422L24.1641 22.3172V76.3922L61.9307 97.8505L65.7932 95.7047V54.9339L53.7766 34.3339L28.4557 19.7422Z" fill="white"/>
<path d="M28.5651 18.4316L27.7456 18.8772L24.4413 20.6822L23.5761 21.1538V22.1425L23.5469 76.1011V77.0605L24.3762 77.5418L60.9839 98.7369L61.8164 99.2182L62.649 98.7369L65.9794 96.8148L66.8119 96.3367V95.374L66.8412 54.9515V54.5059L66.6168 54.1189L54.9606 33.9288L54.7395 33.545L54.3525 33.3173L29.375 18.8967L28.5651 18.4316ZM28.5359 20.8188L52.6873 34.7613L50.1863 36.2021L26.0869 22.1555L28.5359 20.8188ZM25.6576 22.871L49.7732 36.9241V50.1446C49.7732 50.2178 49.7924 50.2897 49.8289 50.353C49.8654 50.4164 49.918 50.469 49.9814 50.5056L61.4294 57.111L61.4001 96.5741L25.6283 75.8604L25.6576 22.871ZM53.367 35.3305L64.6069 54.7986L61.9986 56.3044L50.7587 36.8363L53.367 35.3305ZM50.6058 38.238L60.7074 55.7353L50.6058 49.9039V38.238ZM31.8402 46.8435C31.7355 46.8518 31.6378 46.8992 31.5666 46.9764C31.4955 47.0536 31.4561 47.1548 31.4564 47.2598V51.104C31.4563 51.1772 31.4755 51.2491 31.5121 51.3125C31.5486 51.3758 31.6012 51.4285 31.6646 51.465L54.9769 64.923C55.04 64.9594 55.1115 64.9786 55.1843 64.9787C55.2572 64.9788 55.3288 64.9598 55.392 64.9236C55.4552 64.8874 55.5078 64.8353 55.5445 64.7724C55.5812 64.7095 55.6008 64.6381 55.6013 64.5652V60.7178C55.6008 60.6452 55.5814 60.574 55.5449 60.5112C55.5084 60.4484 55.4561 60.3963 55.3932 60.36L32.0809 46.8988C32.0081 46.8565 31.9242 46.8372 31.8402 46.8435ZM32.289 47.9818L54.7687 60.9584V63.8432L32.289 50.8634V47.9818ZM64.7597 55.6735L64.7305 95.1334L62.2327 96.5741L62.262 57.1142L64.7597 55.6735ZM31.8402 56.4573C31.7355 56.4655 31.6378 56.513 31.5666 56.5902C31.4955 56.6673 31.4561 56.7686 31.4564 56.8736V60.7178C31.4563 60.7909 31.4755 60.8628 31.5121 60.9262C31.5486 60.9896 31.6012 61.0422 31.6646 61.0788L49.9814 71.6552C50.0447 71.6917 50.1165 71.7109 50.1897 71.7109C50.2628 71.7109 50.3346 71.6916 50.3979 71.655C50.4612 71.6184 50.5137 71.5658 50.5502 71.5025C50.5867 71.4391 50.6059 71.3673 50.6058 71.2942V67.4467C50.6053 67.3741 50.5859 67.3029 50.5494 67.2402C50.5128 67.1774 50.4606 67.1253 50.3977 67.089L32.0809 56.5126C32.0081 56.4702 31.9242 56.451 31.8402 56.4573ZM32.289 57.5923L49.7732 67.6874V70.5722L32.289 60.4771V57.5923ZM31.8402 66.071C31.7355 66.0792 31.6378 66.1267 31.5666 66.2039C31.4955 66.2811 31.4561 66.3823 31.4564 66.4873V70.3315C31.4563 70.4047 31.4755 70.4765 31.5121 70.5399C31.5486 70.6033 31.6012 70.6559 31.6646 70.6925L54.9769 84.1504C55.04 84.1869 55.1115 84.2061 55.1843 84.2062C55.2572 84.2063 55.3288 84.1873 55.392 84.1511C55.4552 84.1149 55.5078 84.0627 55.5445 83.9998C55.5812 83.937 55.6008 83.8655 55.6013 83.7927V79.9452C55.6008 79.8726 55.5814 79.8014 55.5449 79.7387C55.5084 79.6759 55.4561 79.6238 55.3932 79.5875L32.0809 66.1263C32.0081 66.084 31.9242 66.0647 31.8402 66.071ZM32.289 67.2093L54.7687 80.1859V83.0707L32.289 70.0908V67.2093Z" fill="#6321B6"/>
<g clip-path="url(#clip0_707_2740)">
<path d="M21.6669 24.2289L21.667 24.2289C21.1027 23.3166 20.2902 22.4569 19.2155 21.654L19.2134 21.6525C18.284 20.95 17.3693 20.4821 16.4694 20.2346C16.0572 20.1213 15.7355 19.7488 15.7355 19.288C15.7355 18.8373 16.0446 18.4653 16.4535 18.3485L16.4535 18.3485C17.3486 18.0929 18.2159 17.6767 19.056 17.0952C20.0206 16.4236 20.8236 15.62 21.4681 14.6838C22.0426 13.8432 22.4281 13.0248 22.6356 12.2285C22.7426 11.818 23.1108 11.4953 23.5687 11.4953C24.0321 11.4953 24.4015 11.8252 24.5054 12.2392M21.6669 24.2289L21.8473 14.9439C22.4462 14.0678 22.8573 13.2013 23.0806 12.3444C23.1391 12.1199 23.3367 11.9551 23.5687 11.9551C23.8033 11.9551 24.0023 12.1236 24.0594 12.3511C24.1883 12.8648 24.3897 13.3906 24.6637 13.9285M21.6669 24.2289L21.6684 24.2313C22.1564 25.01 22.476 25.7283 22.6406 26.3876M21.6669 24.2289L26.3284 15.5378M24.5054 12.2392L24.0612 12.3507L24.5054 12.2392C24.5054 12.2392 24.5054 12.2392 24.5054 12.2392ZM24.5054 12.2392C24.6246 12.7146 24.8126 13.2075 25.0726 13.7182M25.0726 13.7182C25.0723 13.7176 25.072 13.7171 25.0718 13.7166L24.6637 13.9285M25.0726 13.7182C25.3983 14.345 25.816 14.9517 26.3284 15.5378M25.0726 13.7182C25.0729 13.7187 25.0731 13.7192 25.0734 13.7198L24.6637 13.9285M24.6637 13.9285L26.3284 15.5378M26.3284 15.5378C26.8544 16.1122 27.4421 16.6325 28.0919 17.0985C28.939 17.6988 29.7903 18.1137 30.646 18.3515C31.0548 18.4651 31.3694 18.8353 31.3694 19.2892C31.3694 19.7511 31.0451 20.1205 30.6361 20.2326L30.636 20.2326C30.1009 20.3794 29.5411 20.6184 28.9565 20.9551C28.2465 21.3715 27.5848 21.8677 26.9711 22.4445L26.9676 22.4479L26.9675 22.4479C26.3554 23.0111 25.8592 23.5995 25.4748 24.212C24.9864 24.9916 24.6664 25.7153 24.502 26.3846L24.502 26.3847C24.401 26.796 24.0352 27.1292 23.5711 27.1292C23.1078 27.1292 22.7428 26.7971 22.6406 26.3876M22.6406 26.3876L23.0867 26.2762L22.6406 26.3876C22.6406 26.3876 22.6406 26.3876 22.6406 26.3876Z" fill="#6321B6" stroke="white" stroke-width="0.919643"/>
</g>
<g opacity="0.2">
<g opacity="0.4" filter="url(#filter0_f_707_2740)">
<ellipse cx="15.554" cy="13.3685" rx="15.554" ry="13.3685" transform="matrix(0.0718336 0.997417 -0.975421 -0.22035 59.875 40.7793)" fill="#77FFEF"/>
</g>
<g opacity="0.3" filter="url(#filter1_f_707_2740)">
<ellipse cx="15.554" cy="13.3685" rx="15.554" ry="13.3685" transform="matrix(0.0718336 0.997417 -0.975421 -0.22035 54.5703 29.1094)" fill="#77FFEF"/>
</g>
<g opacity="0.4" filter="url(#filter2_f_707_2740)">
<ellipse cx="15.554" cy="13.3685" rx="15.554" ry="13.3685" transform="matrix(0.0718336 0.997417 -0.975421 -0.22035 44.2656 43.0996)" fill="#FFD977"/>
</g>
<g opacity="0.4" filter="url(#filter3_f_707_2740)">
<ellipse cx="15.554" cy="13.3685" rx="15.554" ry="13.3685" transform="matrix(0.0718336 0.997417 -0.975421 -0.22035 55.9219 63.1895)" fill="#D7A5FF"/>
</g>
</g>
<defs>
<filter id="filter0_f_707_2740" x="16.1711" y="18.8567" width="63.564" height="68.98" filterUnits="userSpaceOnUse" color-interpolation-filters="sRGB">
<feFlood flood-opacity="0" result="BackgroundImageFix"/>
<feBlend mode="normal" in="SourceGraphic" in2="BackgroundImageFix" result="shape"/>
<feGaussianBlur stdDeviation="9.34804" result="effect1_foregroundBlur_707_2740"/>
</filter>
<filter id="filter1_f_707_2740" x="10.8664" y="7.18674" width="63.564" height="68.98" filterUnits="userSpaceOnUse" color-interpolation-filters="sRGB">
<feFlood flood-opacity="0" result="BackgroundImageFix"/>
<feBlend mode="normal" in="SourceGraphic" in2="BackgroundImageFix" result="shape"/>
<feGaussianBlur stdDeviation="9.34804" result="effect1_foregroundBlur_707_2740"/>
</filter>
<filter id="filter2_f_707_2740" x="0.561735" y="21.177" width="63.564" height="68.98" filterUnits="userSpaceOnUse" color-interpolation-filters="sRGB">
<feFlood flood-opacity="0" result="BackgroundImageFix"/>
<feBlend mode="normal" in="SourceGraphic" in2="BackgroundImageFix" result="shape"/>
<feGaussianBlur stdDeviation="9.34804" result="effect1_foregroundBlur_707_2740"/>
</filter>
<filter id="filter3_f_707_2740" x="12.218" y="41.2668" width="63.564" height="68.98" filterUnits="userSpaceOnUse" color-interpolation-filters="sRGB">
<feFlood flood-opacity="0" result="BackgroundImageFix"/>
<feBlend mode="normal" in="SourceGraphic" in2="BackgroundImageFix" result="shape"/>
<feGaussianBlur stdDeviation="9.34804" result="effect1_foregroundBlur_707_2740"/>
</filter>
<clipPath id="clip0_707_2740">
<rect width="16.5536" height="18.3929" fill="white" transform="translate(15.2734 10.1152)"/>
</clipPath>
</defs>
</svg>
