<svg width="127" height="112" viewBox="0 0 127 112" fill="none" xmlns="http://www.w3.org/2000/svg">
<path d="M54.3732 18.4257C51.2106 20.2521 46.8786 22.7688 46.4665 22.9916C46.255 23.1141 45.275 23.682 44.295 24.2499C43.315 24.8179 42.0677 25.5306 41.5109 25.8424C39.963 26.711 40.1189 26.2211 40.1189 30.1187C40.1189 31.9673 40.0855 33.493 40.0521 33.493C40.0075 33.493 38.9942 32.925 37.7914 32.2346C34.1054 30.0965 34.1499 30.1187 33.8604 30.2746C33.6265 30.3971 29.0161 33.0587 27.3123 34.0498C25.4859 35.1189 22.223 37.0009 21.9669 37.1345C21.811 37.2125 20.8867 37.747 19.9067 38.315L18.1249 39.3506V48.6939V58.0372L18.9935 58.5494C19.4613 58.8167 19.851 59.0951 19.851 59.1619C19.8399 59.2176 19.4835 59.4849 19.0381 59.7299C14.1604 62.5362 12.3118 63.6164 12.167 63.7501C12.0334 63.8726 12.0111 64.8525 12 70.61C12 74.296 12.0111 77.4142 12.0334 77.5478C12.0668 77.7149 12.8464 78.216 14.9288 79.4298C16.499 80.3319 19.194 81.8909 20.909 82.882C22.6239 83.8843 24.8289 85.1538 25.8089 85.7218C26.7889 86.2897 28.2143 87.1138 28.9827 87.5593C29.7511 87.9936 31.2211 88.8511 32.2456 89.4413L34.1165 90.5215L36.5331 89.1406C37.8583 88.3722 39.7291 87.3031 40.6757 86.7574C41.6223 86.2006 43.2593 85.2652 44.295 84.6638C45.3418 84.0625 46.667 83.2941 47.2461 82.96C47.8252 82.6259 48.9388 81.98 49.7295 81.5346C50.509 81.078 51.8119 80.3319 52.6249 79.853C55.4423 78.2271 56.1884 77.8151 56.3109 77.8151C56.3778 77.8151 56.6116 77.9264 56.8232 78.0601C57.2464 78.3162 57.3689 78.383 60.7209 80.3207C61.9793 81.0446 63.2822 81.7907 63.6163 81.9912C65.5317 83.0936 67.3469 84.1516 68.6053 84.8754C70.4873 85.9556 73.405 87.6483 75.532 88.8733C78.472 90.5772 78.3495 90.5215 78.6613 90.3544C79.0065 90.1763 79.2515 90.0426 83.7728 87.4256C85.8887 86.2006 88.94 84.4411 90.5659 83.5057C92.1918 82.5591 95.0872 80.8887 97.0026 79.775L100.477 77.7594L100.455 70.7547L100.421 63.7389L99.8646 63.416C99.1519 62.9928 95.1763 60.6987 93.7731 59.9081C93.1718 59.5628 92.6818 59.2288 92.6818 59.1619C92.6818 59.0951 93.0715 58.8167 93.5504 58.5494L94.4079 58.0372V48.6939V39.3506L92.6261 38.315C91.6461 37.7359 90.7664 37.2459 90.6773 37.2013C90.5882 37.1679 90.243 36.9675 89.92 36.7559C89.5971 36.5555 89.3186 36.3884 89.2964 36.3884C89.263 36.3884 87.3475 35.2971 85.2205 34.0498C82.2583 32.3237 78.8172 30.3414 78.6168 30.2524C78.3606 30.141 78.2381 30.1967 73.4607 32.9696C72.9596 33.2591 72.5253 33.493 72.4919 33.493C72.4473 33.493 72.4139 31.9673 72.4139 30.0965C72.4139 26.711 72.4139 26.711 72.1689 26.5329C72.0241 26.4326 70.866 25.7533 69.5742 25.0072C68.2935 24.2722 66.9126 23.4815 66.5117 23.2477C66.1108 23.0138 64.4626 22.0561 62.8368 21.1207C61.2109 20.1964 59.0839 18.9603 58.0927 18.3812C57.1128 17.8132 56.2775 17.3455 56.2553 17.3455C56.233 17.3566 55.3866 17.8355 54.3732 18.4257ZM57.3355 20.8645C57.948 21.2098 58.7164 21.6552 59.0505 21.8557C59.3845 22.045 60.6652 22.7911 61.8902 23.4927C66.4672 26.1208 67.1465 26.5217 68.1599 27.1119C68.7167 27.446 69.1844 27.7467 69.1844 27.7913C69.1844 27.8915 69.0953 27.9472 66.456 29.4617C64.162 30.7758 63.7499 31.0208 61.9459 32.0676C61.3668 32.4016 60.0638 33.1589 59.0505 33.738C58.0371 34.3171 57.0348 34.9073 56.8232 35.0409C56.6116 35.1634 56.3666 35.2748 56.2887 35.2748C56.2107 35.2748 55.665 34.9964 55.0637 34.6512C54.4735 34.3059 53.8053 33.9162 53.5937 33.7937C53.0926 33.5153 49.1615 31.2435 48.3597 30.7758C48.0256 30.5753 46.7561 29.8403 45.5534 29.1499C44.3395 28.4483 43.3484 27.8469 43.3484 27.8024C43.3484 27.7133 44.0611 27.2901 46.912 25.642C47.7361 25.1631 49.2395 24.2945 50.2529 23.7154C52.5246 22.4125 56.1773 20.2855 56.2219 20.2521C56.233 20.2409 56.7341 20.5193 57.3355 20.8645ZM43.4598 29.1165C43.7939 29.3058 45.2082 30.1187 48.2483 31.8782C48.5824 32.0787 49.8631 32.8137 51.0881 33.5153C52.3131 34.2168 53.8387 35.0966 54.4846 35.4752L55.6539 36.1545L55.6873 37.8472C55.7096 39.4731 55.7096 39.5288 55.498 39.4731C55.3755 39.4509 54.2062 38.805 52.9033 38.0477C51.6003 37.3016 49.284 35.9541 47.7472 35.0743C44.8407 33.4039 43.6491 32.7135 43.0477 32.346L42.6802 32.1344V30.4974C42.6802 29.5953 42.7136 28.8158 42.7582 28.7824C42.7916 28.7378 42.8807 28.749 42.9475 28.8047C43.0143 28.8603 43.2482 29.0051 43.4598 29.1165ZM69.8526 32.7469C69.8526 36.3661 69.8414 36.7002 69.6633 36.8561C69.5519 36.9564 68.2712 37.7136 66.8235 38.5488L64.1731 40.0634H60.4982H56.8232L56.8455 38.1034L56.8789 36.1545L58.0482 35.4752C58.6941 35.1077 59.3734 34.718 59.5516 34.6066C59.7409 34.5064 60.7432 33.9273 61.7788 33.326C62.8256 32.7246 63.9504 32.0676 64.2845 31.8782C64.6186 31.6889 65.9549 30.9205 67.2356 30.1744C68.5274 29.4283 69.641 28.8158 69.7189 28.8158C69.8192 28.8158 69.8526 29.6733 69.8526 32.7469ZM36.2324 34.228C37.3571 34.885 39.1055 35.8873 40.1189 36.4664C45.442 39.5288 47.0234 40.4643 47.0234 40.5756C47.0234 40.6424 46.8118 40.8095 46.5556 40.9543C46.2884 41.0879 45.7984 41.3774 45.4643 41.5667C45.1302 41.7672 43.8718 42.491 42.6802 43.1815C41.4887 43.8719 40.1857 44.6181 39.7848 44.8519C35.954 47.0792 34.6733 47.8141 34.406 47.9478C34.072 48.1148 34.8069 48.5157 26.6441 43.794C25.1407 42.9254 23.3032 41.8674 22.5571 41.4442C21.811 41.0211 21.2096 40.6202 21.2208 40.5645C21.243 40.4977 21.8333 40.119 22.5348 39.7181C23.2364 39.3172 24.6619 38.4931 25.6975 37.8918C26.7443 37.2904 27.7466 36.7114 27.9248 36.6111C30.4081 35.1857 33.2924 33.5153 33.6599 33.2814C33.8715 33.1589 34.0831 33.0475 34.1165 33.0475C34.161 33.0475 35.1076 33.5821 36.2324 34.228ZM79.5856 33.7046C80.2092 34.0609 80.8885 34.4618 81.1001 34.5732C81.501 34.8071 82.7149 35.5086 85.1092 36.8895C85.8776 37.335 86.6794 37.8027 86.891 37.9252C87.3253 38.1702 88.3053 38.7381 89.3743 39.3506C89.753 39.5734 90.332 39.9186 90.6661 40.1079C91.0002 40.2972 91.2898 40.4977 91.3009 40.5645C91.3343 40.6647 90.7552 41.0211 88.6282 42.2238C88.1048 42.5133 84.7974 44.4287 80.599 46.8564C79.6858 47.391 78.8061 47.8921 78.6724 47.9589C78.3829 48.1148 78.3606 48.1037 74.4741 45.8542C70.8548 43.7606 69.1955 42.8029 67.3803 41.7561C66.3447 41.1658 65.5095 40.6313 65.5095 40.5756C65.5095 40.5088 66.701 39.7738 68.1599 38.9386C73.9061 35.6311 76.6234 34.0609 77.4252 33.5709C77.8818 33.2925 78.3049 33.0587 78.3606 33.0587C78.4163 33.0475 78.9731 33.3371 79.5856 33.7046ZM45.7984 35.1077C47.3574 36.0098 48.8942 36.8895 49.1949 37.0677C49.5067 37.2459 51.0769 38.1591 52.7028 39.1056L55.6539 40.8095L55.6873 46.0212C55.7096 50.7096 55.6985 51.2218 55.5425 51.155C55.4423 51.1216 54.7296 50.7207 53.9501 50.2641C53.1705 49.8187 52.3576 49.3398 52.146 49.2173C51.9344 49.0948 51.4444 48.8164 51.0658 48.5937C50.676 48.371 50.0524 48.0146 49.6738 47.7919C49.284 47.5692 48.9054 47.3464 48.8386 47.2796C48.7272 47.1905 48.6938 46.3553 48.6938 43.8051C48.6938 41.2772 48.6604 40.3974 48.5602 40.2638C48.4822 40.1636 47.2684 39.4286 45.8541 38.6156C44.4509 37.8027 43.1591 37.0343 42.9921 36.9229L42.6802 36.7114V35.1189C42.6802 33.6378 42.7136 33.326 42.8918 33.4262C42.9252 33.4484 44.2393 34.2057 45.7984 35.1077ZM63.8167 44.1058L63.839 47.0903L63.5718 47.3353C63.427 47.4689 63.1152 47.6805 62.8702 47.803C62.6363 47.9255 62.2688 48.126 62.0572 48.2596C61.1552 48.8164 56.968 51.1996 56.9012 51.1996C56.8566 51.1996 56.8232 48.9166 56.8232 46.1326V41.0656L60.3088 41.0879L63.7833 41.1213L63.8167 44.1058ZM22.9135 42.814C24.0828 43.4822 26.0316 44.6069 27.2566 45.3196C28.4816 46.0212 30.3413 47.0903 31.377 47.6917C32.4238 48.293 33.3592 48.8498 33.4706 48.95C33.6376 49.0948 33.6599 49.3287 33.6599 50.7207C33.6599 52.0125 33.6265 52.3132 33.504 52.3132C33.4149 52.3132 32.7356 51.9568 31.9783 51.5225C31.2211 51.0771 29.7734 50.2418 28.76 49.6628C27.7466 49.0837 26.4437 48.3264 25.8646 47.9923C25.2855 47.6582 23.9826 46.9121 22.9692 46.3219C21.9558 45.7428 20.9981 45.1749 20.831 45.0524L20.5192 44.8408V43.2483C20.5192 41.7672 20.5526 41.4554 20.7308 41.5556C20.7642 41.5779 21.7553 42.1458 22.9135 42.814ZM47.6693 49.1282L47.6358 56.5783L46.1325 57.447C45.3084 57.937 44.5845 58.3156 44.5177 58.2933C44.4063 58.2599 44.295 57.937 43.1814 54.7075C42.8918 53.85 42.6023 53.0816 42.5355 53.0148C42.4575 52.9034 41.4775 52.87 38.571 52.8477L34.7179 52.8143V50.8766V48.9389L36.444 47.9478C37.3905 47.391 38.3705 46.8342 38.6155 46.6894C38.8605 46.5558 39.3616 46.2662 39.7291 46.0546C40.8539 45.4087 45.8986 42.4799 46.912 41.9008C47.2461 41.7004 47.5579 41.5779 47.6136 41.6224C47.6581 41.6558 47.6804 45.0412 47.6693 49.1282ZM66.9349 42.6581C67.2801 42.8697 68.5942 43.6269 69.8526 44.3508C71.111 45.0746 72.4139 45.8208 72.748 46.0212C76.1223 47.9701 77.0911 48.538 77.4586 48.7496L77.8706 48.9946V50.7096V52.4357L77.6256 52.302C77.2804 52.1239 73.6277 50.0191 70.9662 48.4712C70.1978 48.0257 69.396 47.558 69.1844 47.4467C68.9728 47.3242 67.9149 46.7228 66.8458 46.0992L64.897 44.9744L64.8636 43.3931C64.8524 42.5133 64.8636 41.7338 64.8858 41.6558C64.9415 41.5222 65.064 41.5779 66.9349 42.6581ZM92.0136 49.0169V56.5227L90.4657 57.4247C89.6082 57.9258 88.8621 58.3267 88.8064 58.3267C88.7507 58.3267 88.5168 57.7922 88.2941 57.124C87.2585 54.1395 87.1025 53.6829 86.9132 53.3154L86.7239 52.9257L82.8262 52.87L78.9286 52.8143L78.8952 50.9212C78.8729 49.2062 78.884 49.0169 79.0622 48.9055C79.1736 48.8387 80.6213 48.0035 82.2694 47.0569C85.2205 45.3531 87.3587 44.1169 90.3432 42.3908C91.1673 41.912 91.88 41.5222 91.9357 41.5111C91.9802 41.5111 92.0136 44.8853 92.0136 49.0169ZM22.4792 47.2128C24.3946 48.3153 25.3969 48.8944 25.9203 49.195C26.4214 49.4846 29.9516 51.5225 30.6531 51.9234C30.9872 52.1239 31.7668 52.5693 32.3792 52.9145C32.9917 53.2598 33.5263 53.605 33.5708 53.6829C33.6822 53.8611 33.6822 63.8614 33.5708 63.9394C33.4817 63.9951 32.4461 63.4048 26.6441 60.0528C25.3857 59.329 23.5148 58.2488 22.468 57.6474L20.5749 56.5561L20.5415 51.5114C20.5192 46.8898 20.5303 46.1883 20.664 46.1883C20.6974 46.1883 21.5103 46.6448 22.4792 47.2128ZM66.6453 47.146C67.4583 47.6137 68.3046 48.1037 68.5162 48.2262C68.7278 48.3376 70.0085 49.0837 71.356 49.8632C72.7034 50.6427 74.0509 51.4223 74.3405 51.5782C74.63 51.7452 75.532 52.2686 76.345 52.7364L77.815 53.605L77.8484 58.8056C77.8595 61.6676 77.8484 64.0062 77.815 64.0062C77.7593 64.0062 77.1022 63.6387 75.532 62.7255C74.463 62.1019 71.1444 60.1976 70.7991 59.9972C69.8414 59.4515 67.3024 57.9815 66.1553 57.3022L64.8413 56.5338V51.3555C64.8413 46.901 64.8636 46.1771 64.9972 46.2217C65.0863 46.2551 65.8324 46.6671 66.6453 47.146ZM49.2729 48.7385C49.4733 48.8498 50.4979 49.4289 51.5335 50.0303C52.5803 50.6427 53.9278 51.4111 54.5403 51.7675L55.6539 52.4023L55.6873 54.1395C55.6985 55.0972 55.6985 55.8768 55.6762 55.8768C55.6316 55.8768 50.7317 53.0704 49.3063 52.2352L48.7495 51.9123L48.7161 50.3643C48.6938 48.9166 48.7161 48.5269 48.8497 48.5269C48.8831 48.5269 49.0724 48.616 49.2729 48.7385ZM63.8167 50.0414C63.8279 50.8321 63.8167 51.5893 63.7833 51.723C63.7499 51.8789 63.4047 52.1461 62.7588 52.5136C62.2131 52.8143 61.4781 53.2375 61.1107 53.4491C58.8166 54.7854 56.9012 55.8768 56.8566 55.8768C56.8344 55.8768 56.8344 55.0972 56.8455 54.1395L56.8789 52.4023L57.3243 52.1573C57.8143 51.8789 60.9547 50.0637 62.5584 49.1282C63.1152 48.8164 63.6163 48.5603 63.672 48.5714C63.7388 48.5937 63.7945 49.195 63.8167 50.0414ZM51.7451 54.8077C53.2819 55.6874 54.8855 56.6229 55.3198 56.8679C55.743 57.124 56.1662 57.3245 56.2553 57.3245C56.3444 57.3245 57.7698 56.5449 59.4291 55.5761C63.4715 53.2486 63.594 53.1818 63.7277 53.2598C63.7945 53.3043 63.839 54.0504 63.839 55.1975C63.839 57.2688 63.7945 57.1574 64.6408 57.6029C64.897 57.7365 65.1308 57.9035 65.142 57.9592C65.1754 58.0483 64.4292 58.516 62.28 59.7522C62.0684 59.8747 61.5895 60.1419 61.222 60.3535C60.8545 60.5651 59.7075 61.2333 58.6607 61.8346C57.625 62.4248 56.723 62.9594 56.6673 63.0151C56.4223 63.2378 55.9991 63.0707 54.4735 62.191C53.5937 61.6787 51.6337 60.5428 50.1192 59.6742C48.5936 58.7944 47.3574 58.0372 47.3574 57.9926C47.3574 57.937 47.6247 57.7476 47.9588 57.5583C48.2929 57.369 48.5936 57.1352 48.627 57.0349C48.6604 56.9347 48.6938 56.0327 48.6938 55.0304C48.6938 53.7386 48.7272 53.2041 48.8163 53.2041C48.8942 53.2041 50.2083 53.9279 51.7451 54.8077ZM41.9118 54.1729C42.4352 55.5315 43.4598 58.6497 43.4375 58.8279C43.4152 58.9615 43.0589 59.2399 42.4018 59.6074C41.8562 59.9192 40.5532 60.6765 39.5064 61.2778C35.7981 63.416 34.7624 64.0062 34.7179 64.0062C34.6844 64.0062 34.6622 61.7233 34.6622 58.9392V53.8722H38.2258H41.7893L41.9118 54.1729ZM86.2005 54.1729C86.5457 55.075 87.7819 58.7499 87.7819 58.8835C87.7819 58.9392 87.1916 59.3178 86.4789 59.7299C85.7551 60.1419 84.2405 61.0217 83.1047 61.6787C81.9688 62.3358 80.8663 62.9705 80.6547 63.0819C80.4431 63.2044 79.9865 63.4605 79.6413 63.6498C79.2961 63.8503 78.9843 63.9728 78.9508 63.9282C78.8506 63.8391 78.8506 54.0393 78.9508 53.9502C78.9843 53.9057 80.6101 53.8722 82.5478 53.8722H86.0891L86.2005 54.1729ZM46.6336 58.8167C46.8229 58.9392 47.9031 59.574 50.9767 61.3335C51.166 61.4449 51.6337 61.7233 52.0346 61.946C52.4356 62.1798 53.1594 62.5919 53.6494 62.8703C54.1394 63.1487 54.6851 63.4716 54.8521 63.5941C55.2307 63.8503 55.3755 63.7389 53.0369 65.0864C52.0903 65.6321 50.4644 66.5786 49.4176 67.18C48.382 67.7814 46.8452 68.6611 46.0211 69.1288C45.197 69.6077 44.3618 70.0866 44.1614 70.1979C43.972 70.3204 43.4709 70.61 43.0477 70.8438C42.6357 71.0777 42.0121 71.434 41.678 71.6345C41.3439 71.8349 40.0855 72.5588 38.8939 73.2492C35.4528 75.2315 35.1856 75.3874 34.7513 75.6658C34.5174 75.7994 34.2613 75.9219 34.1722 75.9219C34.0831 75.9219 33.6933 75.7437 33.3036 75.521C32.9249 75.2983 32.4238 75.0199 32.2122 74.8974C32.0006 74.7749 30.72 74.0288 29.3725 73.2492C28.025 72.4697 26.7443 71.7236 26.5327 71.6122C25.9982 71.3004 24.1941 70.2647 22.5237 69.2959C21.7553 68.8504 20.9535 68.3827 20.7419 68.2714C20.5303 68.1489 19.7285 67.6811 18.9601 67.2357C18.1917 66.7902 17.0336 66.1221 16.3765 65.7434C15.7195 65.3759 15.1961 65.0084 15.2072 64.9528C15.2518 64.8303 15.7752 64.5185 19.0715 62.6142C20.2631 61.9237 21.8667 61.0105 22.6239 60.5651C23.3812 60.1308 24.0382 59.7744 24.0828 59.7744C24.1385 59.7744 24.4837 59.9526 24.8512 60.1753L25.5305 60.5762V62.8035V65.0307L25.8534 65.3203C26.0205 65.4873 26.4882 65.7991 26.878 66.0218C27.2677 66.2334 28.2589 66.8014 29.0718 67.2691C34.7847 70.5877 33.9829 70.2202 34.6956 69.8527C35.9762 69.1845 42.413 65.4093 42.5466 65.2534C42.6468 65.1198 42.6802 64.4628 42.6802 62.8369V60.5985L43.3818 60.1976C43.7604 59.986 44.3952 59.6185 44.7961 59.3847C46.2104 58.5606 46.255 58.5494 46.6336 58.8167ZM68.0374 59.5628C68.906 60.064 69.6744 60.5317 69.7412 60.6096C69.7969 60.6765 69.8637 61.7233 69.8748 63.0151L69.9083 65.2868L73.6612 67.4584C75.7213 68.65 77.6256 69.7525 77.904 69.8972C78.4831 70.2091 78.1936 70.3204 80.9331 68.7391C81.9799 68.1377 82.9822 67.5586 83.1603 67.4584C83.3496 67.347 83.7951 67.0909 84.1626 66.8793C84.5301 66.6677 85.2094 66.278 85.666 66.0107C87.0023 65.2534 86.891 65.5207 86.891 62.9928C86.891 60.4871 86.8353 60.6431 87.9155 60.0751L88.5057 59.7522L90.5659 60.9437C91.7018 61.6008 92.9491 62.3246 93.35 62.5585C93.7509 62.7923 94.7977 63.4048 95.6774 63.9171C96.5683 64.4182 97.3033 64.8859 97.3256 64.9528C97.3367 65.0084 96.6685 65.465 95.8222 65.9439C94.987 66.4339 92.8934 67.6366 91.1784 68.6277C88.2273 70.3204 85.6214 71.8349 80.6881 74.6858C79.5077 75.3651 78.4831 75.9219 78.4163 75.9219C78.2938 75.9219 77.659 75.5767 75.12 74.1067C72.5253 72.6033 70.7101 71.5565 70.0196 71.1556C69.6521 70.944 69.2067 70.6768 69.0174 70.5654C68.8392 70.454 68.6165 70.3204 68.5274 70.2759C68.3937 70.2202 67.0351 69.4295 64.2845 67.8482C62.4359 66.7791 58.9948 64.7969 58.2375 64.3625C57.2018 63.7835 57.1796 63.8503 58.772 62.9371C59.3845 62.5919 60.1641 62.1464 60.4982 61.946C60.8322 61.7567 61.9347 61.1108 62.9481 60.5317C63.9615 59.9415 65.0863 59.2844 65.4538 59.0728C65.8213 58.8501 66.1888 58.6719 66.2779 58.6608C66.3669 58.6608 67.1576 59.0728 68.0374 59.5628ZM29.1498 62.6698C30.1297 63.2378 31.299 63.906 31.7445 64.1621C32.1788 64.4071 32.7802 64.7746 33.0808 64.9528L33.6042 65.2868L33.6376 66.935C33.6599 68.3716 33.6488 68.572 33.4929 68.572C33.3926 68.572 32.3458 68.0152 31.1765 67.3359C29.9961 66.6566 28.6598 65.8771 28.2032 65.6209C27.7466 65.3537 27.1786 65.0084 26.9559 64.8525L26.5327 64.563V63.0707C26.5327 61.211 26.555 61.1442 27.0227 61.4337C27.2121 61.5451 28.1698 62.1019 29.1498 62.6698ZM41.678 62.9928V64.6521L39.0387 66.1889C37.5799 67.0352 36.0653 67.915 35.6756 68.1489C35.2747 68.3827 34.8849 68.572 34.8069 68.572C34.6844 68.572 34.6622 68.2379 34.6844 66.8905L34.7179 65.2089L37.6021 63.5385C39.1946 62.6253 40.698 61.7567 40.943 61.6008C41.1991 61.456 41.4664 61.3335 41.5443 61.3335C41.6446 61.3335 41.678 61.7344 41.678 62.9928ZM71.4785 61.5451C71.8125 61.7455 75.2314 63.7166 75.9775 64.151C76.1891 64.2623 76.7013 64.563 77.1245 64.808L77.8706 65.2423V66.9684V68.6834L77.4586 68.4718C77.2247 68.3493 75.6545 67.4584 73.973 66.4784L70.9105 64.6966L70.8771 63.0151C70.8437 61.1776 70.8548 61.1665 71.4785 61.5451ZM85.8887 63.0039V64.6744L85.4767 64.9305C84.2517 65.71 79.1958 68.572 79.0511 68.572C78.8952 68.572 78.8729 68.3382 78.8729 66.9796C78.8729 65.1421 78.7949 65.298 80.0422 64.5964C82.7817 63.0373 85.3987 61.5228 85.4989 61.4337C85.5546 61.378 85.666 61.3335 85.7439 61.3335C85.8553 61.3335 85.8887 61.7121 85.8887 63.0039ZM55.7096 69.9529C55.7096 73.9508 55.6762 75.1424 55.576 75.2315C55.498 75.2872 54.1283 76.089 52.5358 77.0021C50.9433 77.9153 48.794 79.1626 47.7472 79.7639C46.7115 80.3653 45.2082 81.2339 44.4063 81.6905C43.6157 82.1471 42.3127 82.9043 41.5109 83.3609C39.1167 84.7418 38.9051 84.8643 37.0008 85.9668C35.9874 86.5459 35.0519 87.0804 34.9183 87.1584L34.6622 87.292V82.0802V76.8685L34.974 76.6903C35.6533 76.2894 38.8494 74.4408 40.62 73.4163C44.6291 71.0999 45.7538 70.454 45.9097 70.3427C45.9988 70.287 46.5556 69.9752 47.1347 69.6522C48.1258 69.0954 49.3063 68.4161 53.7608 65.8325C54.7407 65.2534 55.576 64.7969 55.6316 64.7857C55.6762 64.7857 55.7096 67.1132 55.7096 69.9529ZM57.7475 65.2423C58.193 65.4984 58.85 65.8882 59.2175 66.0998C59.585 66.3114 60.0638 66.5786 60.2754 66.7011C60.487 66.8236 60.9882 67.1132 61.3891 67.347C61.79 67.5809 62.2911 67.8704 62.5027 67.9929C62.7143 68.1154 63.2154 68.3939 63.6163 68.6277C64.0172 68.8616 64.5183 69.14 64.7299 69.2625C65.1085 69.4741 66.2779 70.1534 66.6231 70.3538C66.8903 70.5097 69.886 72.247 71.523 73.1936C74.4184 74.864 76.7459 76.2115 77.5031 76.6569L77.8706 76.8685V82.0802V87.292L77.5366 87.1138C77.3584 87.0247 76.4897 86.5236 75.6211 86.0113C74.7414 85.4991 73.6834 84.8866 73.2491 84.6416C72.4028 84.1627 69.318 82.3809 67.6253 81.4009C66.6119 80.8107 65.5985 80.2316 64.897 79.8196C64.7188 79.7194 63.7165 79.1403 62.6697 78.5389C59.997 76.991 59.507 76.7126 58.9391 76.3896C58.6607 76.2337 58.0927 75.8997 57.6584 75.6435L56.8789 75.1869L56.8455 69.9863C56.8344 67.1243 56.8455 64.7857 56.8789 64.7857C56.9123 64.7857 57.3021 64.9973 57.7475 65.2423ZM17.4567 67.5475C18.626 68.2157 19.7731 68.8838 20.0181 69.0175C20.2631 69.1511 21.566 69.9084 22.9135 70.6879C24.261 71.4674 25.5416 72.2136 25.7532 72.3249C25.9648 72.4474 26.9225 73.0042 27.8691 73.5499C28.8157 74.0956 30.4527 75.0422 31.4884 75.6324C32.5352 76.2337 33.4483 76.7794 33.5263 76.8351C33.6265 76.9242 33.6599 78.1046 33.6599 82.058C33.6599 86.4568 33.6376 87.1695 33.4929 87.1695C33.4038 87.1695 32.2902 86.5681 31.0206 85.822C29.7511 85.0759 28.5039 84.3632 28.2589 84.2184C28.0139 84.0848 27.0339 83.5168 26.0873 82.9711C22.791 81.0668 20.6751 79.8419 18.8488 78.7951C17.8354 78.2048 16.4656 77.403 15.7863 77.0133L14.5613 76.3006L14.5279 71.2336C14.5168 68.4495 14.5279 66.1109 14.5613 66.033C14.6059 65.9105 14.695 65.9328 14.9734 66.0998C15.1738 66.2223 16.2986 66.8682 17.4567 67.5475ZM98.0272 71.1222C98.0272 75.0756 97.9938 76.256 97.8935 76.3451C97.8156 76.4008 97.5483 76.5678 97.3033 76.7015C96.9135 76.913 94.0738 78.5612 91.9023 79.8196C91.5014 80.0535 89.8977 80.9778 88.3387 81.8798C86.7796 82.7818 85.2539 83.6616 84.9421 83.8398C81.3674 85.9334 79.0288 87.2474 78.962 87.2029C78.9063 87.1806 78.8729 84.8643 78.8729 82.058C78.8729 78.1046 78.9063 76.9242 79.0177 76.8351C79.0845 76.7794 80.0088 76.2337 81.0445 75.6324C82.0913 75.0422 83.7171 74.0956 84.6637 73.5499C85.6103 73.0042 86.568 72.4474 86.7796 72.3249C87.2919 72.0354 91.7129 69.4852 95.1318 67.503C96.6351 66.6343 97.8935 65.9439 97.9492 65.9773C97.9938 65.9996 98.0272 68.3159 98.0272 71.1222Z" fill="black"/>
<g opacity="0.1">
<g filter="url(#filter0_f_707_2634)">
<ellipse cx="17.1472" cy="28.2411" rx="17.1472" ry="28.2411" transform="matrix(-0.0370296 0.999314 0.999314 0.0370296 56.6953 30.125)" fill="url(#paint0_linear_707_2634)"/>
</g>
<g filter="url(#filter1_f_707_2634)">
<ellipse cx="12.5467" cy="20.6642" rx="12.5467" ry="20.6642" transform="matrix(-0.0370296 0.999314 0.999314 0.0370296 52.9297 40.4922)" fill="url(#paint1_linear_707_2634)"/>
</g>
</g>
<g opacity="0.1">
<g filter="url(#filter2_f_707_2634)">
<ellipse cx="17.1472" cy="28.2411" rx="17.1472" ry="28.2411" transform="matrix(-0.0370296 0.999314 0.999314 0.0370296 15.6953 50.125)" fill="url(#paint2_linear_707_2634)"/>
</g>
<g filter="url(#filter3_f_707_2634)">
<ellipse cx="12.5467" cy="20.6642" rx="12.5467" ry="20.6642" transform="matrix(-0.0370296 0.999314 0.999314 0.0370296 11.9297 60.4922)" fill="url(#paint3_linear_707_2634)"/>
</g>
</g>
<defs>
<filter id="filter0_f_707_2634" x="42.2785" y="17.3625" width="84.0054" height="61.8882" filterUnits="userSpaceOnUse" color-interpolation-filters="sRGB">
<feFlood flood-opacity="0" result="BackgroundImageFix"/>
<feBlend mode="normal" in="SourceGraphic" in2="BackgroundImageFix" result="shape"/>
<feGaussianBlur stdDeviation="6.88807" result="effect1_foregroundBlur_707_2634"/>
</filter>
<filter id="filter1_f_707_2634" x="45.5729" y="34.3463" width="55.0886" height="38.8992" filterUnits="userSpaceOnUse" color-interpolation-filters="sRGB">
<feFlood flood-opacity="0" result="BackgroundImageFix"/>
<feBlend mode="normal" in="SourceGraphic" in2="BackgroundImageFix" result="shape"/>
<feGaussianBlur stdDeviation="3.44403" result="effect1_foregroundBlur_707_2634"/>
</filter>
<filter id="filter2_f_707_2634" x="1.27855" y="37.3625" width="84.0054" height="61.8882" filterUnits="userSpaceOnUse" color-interpolation-filters="sRGB">
<feFlood flood-opacity="0" result="BackgroundImageFix"/>
<feBlend mode="normal" in="SourceGraphic" in2="BackgroundImageFix" result="shape"/>
<feGaussianBlur stdDeviation="6.88807" result="effect1_foregroundBlur_707_2634"/>
</filter>
<filter id="filter3_f_707_2634" x="4.57287" y="54.3463" width="55.0886" height="38.8992" filterUnits="userSpaceOnUse" color-interpolation-filters="sRGB">
<feFlood flood-opacity="0" result="BackgroundImageFix"/>
<feBlend mode="normal" in="SourceGraphic" in2="BackgroundImageFix" result="shape"/>
<feGaussianBlur stdDeviation="3.44403" result="effect1_foregroundBlur_707_2634"/>
</filter>
<linearGradient id="paint0_linear_707_2634" x1="17.1472" y1="0" x2="17.1472" y2="56.4822" gradientUnits="userSpaceOnUse">
<stop stop-color="#FF7BCA"/>
<stop offset="1" stop-color="#FFC56F" stop-opacity="0.46"/>
</linearGradient>
<linearGradient id="paint1_linear_707_2634" x1="12.5467" y1="0" x2="12.5467" y2="41.3284" gradientUnits="userSpaceOnUse">
<stop stop-color="#F22FB0"/>
<stop offset="1" stop-color="#F58A25" stop-opacity="0"/>
<stop offset="1" stop-color="#7061A3"/>
</linearGradient>
<linearGradient id="paint2_linear_707_2634" x1="17.1472" y1="0" x2="17.1472" y2="56.4822" gradientUnits="userSpaceOnUse">
<stop stop-color="#6321B6"/>
<stop offset="1" stop-color="#FFC56F" stop-opacity="0.46"/>
</linearGradient>
<linearGradient id="paint3_linear_707_2634" x1="12.5467" y1="0" x2="12.5467" y2="41.3284" gradientUnits="userSpaceOnUse">
<stop stop-color="#6321B6"/>
<stop offset="1" stop-color="#F58A25" stop-opacity="0"/>
<stop offset="1" stop-color="#7061A3"/>
</linearGradient>
</defs>
</svg>
